%FSLAX25Y25*%
%MOIN*%
G70*
G01*
G75*
G04 Layer_Physical_Order=1*
G04 Layer_Color=255*
%ADD10R,0.03937X0.03740*%
%ADD11R,0.25984X0.25984*%
%ADD12O,0.00945X0.02362*%
%ADD13O,0.02362X0.00945*%
%ADD14R,0.02165X0.02362*%
%ADD15R,0.02362X0.02165*%
%ADD16R,0.03740X0.03937*%
%ADD17C,0.00984*%
%ADD18R,0.01772X0.05433*%
%ADD19R,0.09350X0.07480*%
%ADD20R,0.04606X0.07480*%
%ADD21R,0.05807X0.08268*%
%ADD22R,0.03150X0.00984*%
%ADD23R,0.00984X0.03150*%
%ADD24R,0.03937X0.02165*%
%ADD25R,0.04134X0.02362*%
%ADD26R,0.06693X0.06693*%
%ADD27O,0.03347X0.01102*%
%ADD28O,0.01102X0.03347*%
%ADD29R,0.03150X0.03740*%
%ADD30R,0.06299X0.07087*%
%ADD31R,0.01378X0.03937*%
%ADD32R,0.06299X0.03150*%
%ADD33C,0.01200*%
%ADD34C,0.00800*%
%ADD35C,0.01500*%
%ADD36C,0.02000*%
%ADD37C,0.01000*%
%ADD38C,0.01826*%
%ADD39R,0.04000X0.04100*%
%ADD40R,0.01300X0.04400*%
%ADD41R,0.04000X0.04200*%
%ADD42C,0.05906*%
%ADD43R,0.05906X0.05906*%
%ADD44C,0.02200*%
%ADD45C,0.04331*%
%ADD46C,0.05000*%
%ADD47C,0.04000*%
D10*
X316750Y304700D02*
D03*
X310450D02*
D03*
X309750Y389600D02*
D03*
X303450D02*
D03*
X316750Y310700D02*
D03*
X310450D02*
D03*
X239150Y312400D02*
D03*
X232850D02*
D03*
X269150Y387800D02*
D03*
X262850D02*
D03*
X269150Y381800D02*
D03*
X262850D02*
D03*
X239150Y348900D02*
D03*
X232850D02*
D03*
X239150Y342700D02*
D03*
X232850D02*
D03*
Y336700D02*
D03*
X239150D02*
D03*
X232850Y330700D02*
D03*
X239150D02*
D03*
Y324700D02*
D03*
X232850D02*
D03*
X239150Y318700D02*
D03*
X232850D02*
D03*
X262850Y348700D02*
D03*
X269150D02*
D03*
X262850Y342700D02*
D03*
X269150D02*
D03*
X262850Y336700D02*
D03*
X269150D02*
D03*
X262850Y330700D02*
D03*
X269150D02*
D03*
Y324700D02*
D03*
X262850D02*
D03*
X269150Y318700D02*
D03*
X262850D02*
D03*
X247850Y312300D02*
D03*
X254150D02*
D03*
X262850D02*
D03*
X269150D02*
D03*
Y394000D02*
D03*
X262850D02*
D03*
X322350Y352300D02*
D03*
X316050D02*
D03*
Y346300D02*
D03*
X322350D02*
D03*
X309750Y401600D02*
D03*
X303450D02*
D03*
X309750Y395600D02*
D03*
X303450D02*
D03*
X322350Y364300D02*
D03*
X316050D02*
D03*
X322350Y358300D02*
D03*
X316050D02*
D03*
X232850Y354900D02*
D03*
X239150D02*
D03*
X310350Y316700D02*
D03*
X316650D02*
D03*
D11*
X291100Y365800D02*
D03*
D12*
X292084Y381154D02*
D03*
X294053D02*
D03*
X296021D02*
D03*
X297990D02*
D03*
X299958D02*
D03*
X301927D02*
D03*
X303895D02*
D03*
X290116D02*
D03*
X288147D02*
D03*
X286179D02*
D03*
X284210D02*
D03*
X282242D02*
D03*
X280273D02*
D03*
X278305D02*
D03*
Y350446D02*
D03*
X280273D02*
D03*
X282242D02*
D03*
X284210D02*
D03*
X286179D02*
D03*
X288147D02*
D03*
X290116D02*
D03*
X303895D02*
D03*
X301927D02*
D03*
X299958D02*
D03*
X297990D02*
D03*
X296021D02*
D03*
X294053D02*
D03*
X292084D02*
D03*
D13*
X306454Y353005D02*
D03*
Y354973D02*
D03*
Y356942D02*
D03*
Y358910D02*
D03*
Y360879D02*
D03*
Y362847D02*
D03*
Y364816D02*
D03*
Y378595D02*
D03*
Y376627D02*
D03*
Y374658D02*
D03*
Y372690D02*
D03*
Y370721D02*
D03*
Y368753D02*
D03*
Y366784D02*
D03*
X275746Y353005D02*
D03*
Y354973D02*
D03*
Y356942D02*
D03*
Y358910D02*
D03*
Y360879D02*
D03*
Y362847D02*
D03*
Y364816D02*
D03*
Y378595D02*
D03*
Y376627D02*
D03*
Y374658D02*
D03*
Y372690D02*
D03*
Y370721D02*
D03*
Y368753D02*
D03*
Y366784D02*
D03*
D14*
X321200Y407227D02*
D03*
Y410573D02*
D03*
Y399473D02*
D03*
Y396127D02*
D03*
D15*
X321173Y403100D02*
D03*
X317827D02*
D03*
D16*
X277400Y335950D02*
D03*
Y329650D02*
D03*
X310400Y338650D02*
D03*
Y332350D02*
D03*
X304300Y338650D02*
D03*
Y332350D02*
D03*
X239100Y365850D02*
D03*
Y372150D02*
D03*
X251300Y365850D02*
D03*
Y372150D02*
D03*
X247500Y408350D02*
D03*
Y402050D02*
D03*
X267000Y402150D02*
D03*
Y408450D02*
D03*
X234500Y408350D02*
D03*
Y402050D02*
D03*
X273500Y402150D02*
D03*
Y408450D02*
D03*
X254000Y408350D02*
D03*
Y402050D02*
D03*
X260500Y408450D02*
D03*
Y402150D02*
D03*
X241000Y408350D02*
D03*
Y402050D02*
D03*
X245100Y365850D02*
D03*
Y372150D02*
D03*
X257500Y365850D02*
D03*
Y372150D02*
D03*
X232800Y372250D02*
D03*
Y365950D02*
D03*
X316400Y338750D02*
D03*
Y332450D02*
D03*
D17*
X277987Y321213D02*
D03*
X276413D02*
D03*
Y322787D02*
D03*
X277987D02*
D03*
X236587Y394913D02*
D03*
X235013D02*
D03*
Y396487D02*
D03*
X236587D02*
D03*
D18*
X245893Y303265D02*
D03*
X240775D02*
D03*
X251011D02*
D03*
X248452D02*
D03*
X243334D02*
D03*
D19*
X234426Y292792D02*
D03*
X257360D02*
D03*
D20*
X249180D02*
D03*
X242605D02*
D03*
D21*
X255588Y301847D02*
D03*
X236198D02*
D03*
D22*
X257274Y380879D02*
D03*
Y382847D02*
D03*
Y384816D02*
D03*
Y386784D02*
D03*
Y388753D02*
D03*
Y390721D02*
D03*
X241526D02*
D03*
Y388753D02*
D03*
Y386784D02*
D03*
Y384816D02*
D03*
Y382847D02*
D03*
Y380879D02*
D03*
D23*
X244479Y393674D02*
D03*
X246447D02*
D03*
X248416D02*
D03*
X250384D02*
D03*
X252353D02*
D03*
X254321D02*
D03*
Y377926D02*
D03*
X252353D02*
D03*
X250384D02*
D03*
X248416D02*
D03*
X246447D02*
D03*
X244479D02*
D03*
D24*
X285985Y321860D02*
D03*
Y329340D02*
D03*
D25*
X296615D02*
D03*
Y321860D02*
D03*
Y325600D02*
D03*
D26*
X287600Y307700D02*
D03*
D27*
X281793Y308684D02*
D03*
Y306716D02*
D03*
Y304747D02*
D03*
Y310653D02*
D03*
X293407D02*
D03*
Y304747D02*
D03*
Y306716D02*
D03*
Y308684D02*
D03*
D28*
X288584Y313507D02*
D03*
X286616D02*
D03*
X284647D02*
D03*
X290553D02*
D03*
Y301893D02*
D03*
X284647D02*
D03*
X286616D02*
D03*
X288584D02*
D03*
D29*
X247557Y348900D02*
D03*
X254643D02*
D03*
X247557Y342700D02*
D03*
X254643D02*
D03*
X254543Y336700D02*
D03*
X247457D02*
D03*
X254543Y330700D02*
D03*
X247457D02*
D03*
Y324700D02*
D03*
X254543D02*
D03*
X247457Y318700D02*
D03*
X254543D02*
D03*
X254643Y354900D02*
D03*
X247557D02*
D03*
D30*
X278812Y292600D02*
D03*
X267788D02*
D03*
X287588D02*
D03*
X298612D02*
D03*
D31*
X313559Y369913D02*
D03*
X311000D02*
D03*
X316118D02*
D03*
Y377000D02*
D03*
X311000D02*
D03*
X313559D02*
D03*
D32*
X321100Y427993D02*
D03*
Y414607D02*
D03*
D33*
X251643Y345700D02*
X254643Y342700D01*
Y354900D02*
Y359457D01*
X236000Y351900D02*
X251700D01*
X254600Y349000D01*
X233300Y325100D02*
X235900Y327700D01*
X242900D01*
X286616Y313507D02*
Y315684D01*
X285700Y316600D02*
X286616Y315684D01*
X281600Y316600D02*
X285700D01*
X281100Y316100D02*
X281600Y316600D01*
X289000Y329400D02*
X290521Y330921D01*
X285445Y329400D02*
X289000D01*
X290521Y330921D02*
X293033D01*
X296913Y334800D01*
X300200D01*
X239400Y342600D02*
X247900D01*
X240500Y348800D02*
X246300D01*
X252000Y362100D02*
X254643Y359457D01*
X246100Y299600D02*
Y301750D01*
Y299600D02*
X247000Y298700D01*
X278700Y292400D02*
X287200D01*
X232900Y318200D02*
Y324843D01*
X243600Y345700D02*
X251643D01*
X304800Y333100D02*
X310500Y338800D01*
X300200Y334800D02*
X303500Y338100D01*
X240200Y354800D02*
X246000D01*
D34*
X260600Y351900D02*
Y352200D01*
Y351900D02*
Y352800D01*
X260700Y352900D01*
Y356600D01*
X254371Y393324D02*
Y394015D01*
X312700Y366900D02*
X314700Y364900D01*
X306500Y366900D02*
X312700D01*
X242900Y327700D02*
X243500Y328300D01*
X277600Y334650D02*
Y336800D01*
X277700Y336900D01*
X252300Y365000D02*
X260700Y356600D01*
X290379Y334321D02*
Y343521D01*
X297480Y341620D02*
X299300Y339800D01*
X297480Y341620D02*
Y342820D01*
X292084Y348216D02*
X297480Y342820D01*
X299300Y339800D02*
X299500D01*
X295843Y337300D02*
X297200D01*
X292447Y340696D02*
Y343753D01*
Y340696D02*
X295843Y337300D01*
X294516Y341684D02*
X296300Y339900D01*
X294516Y341684D02*
Y343684D01*
X306500Y379500D02*
X308600Y381600D01*
X305500Y350700D02*
X308000Y348200D01*
X301927Y384527D02*
X303000Y385600D01*
X301927Y381154D02*
Y384527D01*
X299958Y381154D02*
Y385600D01*
X308100Y362400D02*
X312100D01*
X307653Y362847D02*
X308100Y362400D01*
X306454Y362847D02*
X307653D01*
X299958Y348042D02*
Y350446D01*
X303150Y347800D02*
X304400D01*
X301927Y349173D02*
X303150Y347950D01*
X301927Y349173D02*
Y350446D01*
X272700Y344500D02*
X276000Y341200D01*
X272700Y344500D02*
Y353500D01*
X275746Y345954D02*
X278000Y343700D01*
X275746Y345954D02*
Y353005D01*
X294053Y348447D02*
Y350446D01*
Y348447D02*
X299500Y343000D01*
X292084Y348216D02*
Y350446D01*
X290116Y348084D02*
Y350446D01*
Y348084D02*
X294516Y343684D01*
X288147Y348053D02*
X292447Y343753D01*
X288147Y348053D02*
Y350446D01*
X286179Y347721D02*
Y350446D01*
Y347721D02*
X290379Y343521D01*
X284210Y347690D02*
Y350446D01*
Y347690D02*
X288510Y343390D01*
X282242Y347558D02*
Y350446D01*
X280273Y346927D02*
Y350446D01*
Y346927D02*
X284573Y342627D01*
X272084Y364816D02*
X275746D01*
X271400Y365500D02*
X272084Y364816D01*
X269000Y365500D02*
X271400D01*
X270853Y362847D02*
X275746D01*
X270300Y363400D02*
X270853Y362847D01*
X268000Y366500D02*
X269000Y365500D01*
X270800Y367000D02*
X275746D01*
X267200Y370600D02*
X270800Y367000D01*
X265600Y370600D02*
X267200D01*
X263700Y363700D02*
X268500Y358900D01*
X258700Y366100D02*
X264600D01*
X269800Y360900D01*
X275335D01*
X304100Y350700D02*
X305500D01*
X307100Y353100D02*
X309300Y350900D01*
X308200Y354900D02*
X309400Y353700D01*
X306300Y354900D02*
X308200D01*
X306300Y357000D02*
X309000D01*
X267700Y392600D02*
X268500D01*
X306400Y364800D02*
X310100D01*
X306754Y368727D02*
X311000D01*
X310900Y374000D02*
Y375800D01*
X307627Y370727D02*
X310900Y374000D01*
X307154Y370727D02*
X307627D01*
X264250Y404900D02*
X267000Y402150D01*
X245450Y302400D02*
X246100Y301750D01*
X257700Y405100D02*
X260575Y402225D01*
X243200Y328300D02*
X243500D01*
X288510Y333300D02*
Y343390D01*
X277987Y317787D02*
Y321213D01*
X240000Y364900D02*
X242800Y362100D01*
X244515Y380231D02*
X246108Y381795D01*
X244492Y377576D02*
X244515Y380231D01*
X246200Y371400D02*
X250700D01*
Y315300D02*
X254200Y318800D01*
X251400Y321800D02*
X254900Y325300D01*
X250700Y333200D02*
X254200Y336700D01*
X250700Y327200D02*
X254200Y330700D01*
X258700Y327700D02*
X262200Y331200D01*
X251300Y404900D02*
X254175Y402025D01*
X239757Y336600D02*
X247400D01*
X239157Y330600D02*
X246800D01*
X238957Y324600D02*
X246600D01*
X239657Y318600D02*
X247300D01*
X264000Y341200D02*
X264500D01*
X258900Y333800D02*
X260400Y335300D01*
X261900D01*
X255900Y314000D02*
X259400Y317500D01*
X261500D01*
X270100Y319000D02*
X270700Y318400D01*
X270600Y323400D02*
X272650Y321350D01*
X262642Y318700D02*
Y325200D01*
X264100Y325900D02*
X268100Y329900D01*
X264000Y404900D02*
X264250D01*
X306500Y378600D02*
Y379500D01*
X284573Y337573D02*
Y342627D01*
X280600Y330500D02*
Y333600D01*
X284573Y337573D01*
X250400Y398900D02*
X250900D01*
X248200Y401100D02*
X250400Y398900D01*
X237300Y382200D02*
X238600Y380900D01*
X268100Y401100D02*
X270150Y399050D01*
X292600Y404000D02*
X295700Y407100D01*
X294400Y402700D02*
X295600Y403900D01*
X294400Y398600D02*
Y402700D01*
X292600Y397900D02*
Y404000D01*
X273400Y402150D02*
X276350D01*
X281100Y397400D01*
X257324Y390900D02*
Y393724D01*
X236500Y395000D02*
X241300D01*
X246200Y399900D01*
Y401000D01*
X257324Y393724D02*
X260600Y397000D01*
X235013Y393300D02*
Y394913D01*
X260600Y397000D02*
X277900D01*
X278305Y381154D02*
Y383495D01*
X282200Y381054D02*
Y386400D01*
X286200Y381154D02*
Y388700D01*
X277900Y397000D02*
X286200Y388700D01*
X284100Y381200D02*
Y384000D01*
X284700Y384600D01*
X288100Y381200D02*
Y385700D01*
X290100Y381100D02*
Y384200D01*
X291000Y385100D01*
Y386700D01*
X292100Y381100D02*
Y384100D01*
X293100Y385100D01*
Y389400D01*
X294000Y390300D01*
X292600Y397900D02*
X296000Y394500D01*
Y389538D02*
Y394500D01*
X294500Y388037D02*
X296000Y389538D01*
X294000Y381600D02*
Y383600D01*
X294500Y384100D01*
Y388037D01*
X296000Y381500D02*
Y387100D01*
X298000Y381200D02*
Y386700D01*
X296000Y387100D02*
X297400Y388500D01*
Y395600D01*
X294400Y398600D02*
X297400Y395600D01*
X298000Y386700D02*
X298900Y387600D01*
Y397200D01*
X296900Y399200D02*
X298900Y397200D01*
X269450Y383150D02*
X270850D01*
X273600Y388200D02*
X278305Y383495D01*
X270100Y386700D02*
Y388200D01*
X273600D01*
X274673Y376627D02*
X275746D01*
X274442Y374658D02*
X275746D01*
X273810Y372690D02*
X275746D01*
X236100Y375200D02*
X239324Y371976D01*
X235200Y390400D02*
Y390600D01*
X244900Y386326D02*
Y390000D01*
X270900Y372600D02*
X272680Y370820D01*
X275746D01*
X268000Y372500D02*
X271700Y368800D01*
X275746D01*
X234000Y365200D02*
Y366500D01*
X268500Y358900D02*
X275735D01*
X274173Y354973D02*
X275746D01*
X272700Y353500D02*
X274173Y354973D01*
X242800Y362100D02*
X248600D01*
X259600Y378400D02*
X263100Y381900D01*
X233600Y373400D02*
Y389000D01*
X235200Y390600D01*
X243374Y384800D02*
X244900Y386326D01*
X241600Y384800D02*
X243374D01*
X237400Y385274D02*
Y388400D01*
Y385274D02*
X239674Y383000D01*
X241400D01*
X238600Y380900D02*
X241400D01*
X247400Y388600D02*
X249200Y386800D01*
X256400D01*
X253000Y388900D02*
X253400Y388500D01*
X253000Y388800D02*
X257500D01*
X252600Y373200D02*
X254800Y375400D01*
X260100D01*
X272300Y379000D02*
X274673Y376627D01*
X263500Y381000D02*
X265500Y379000D01*
X272300D01*
X271600Y377500D02*
X274442Y374658D01*
X260100Y375400D02*
X262200Y377500D01*
X271600D01*
X263000Y374800D02*
X263800Y375600D01*
X270900D01*
X273810Y372690D01*
X266000Y350690D02*
X272252Y356942D01*
X266000Y345700D02*
Y350690D01*
X272252Y356942D02*
X275746D01*
X264500Y341200D02*
X265900Y339800D01*
X258600Y340200D02*
Y344100D01*
X261900Y347400D01*
X282242Y347558D02*
X287000Y342800D01*
X283450Y332550D02*
X287000Y336100D01*
Y342800D01*
X283050Y389300D02*
X284700Y387650D01*
Y384600D02*
Y387650D01*
X306500Y358900D02*
X310100D01*
X314600Y354400D01*
Y352600D02*
Y354400D01*
X267600Y295400D02*
X269600Y293400D01*
X272700D01*
X269500Y331000D02*
Y349600D01*
X269700Y313600D02*
X271300D01*
X273900Y316200D01*
X272400Y326825D02*
X276325Y322900D01*
X272400Y326825D02*
Y328100D01*
X269500Y331000D02*
X272400Y328100D01*
X290379Y334321D02*
X291500Y333200D01*
X296000Y290000D02*
Y292900D01*
Y290000D02*
X303200Y297200D01*
X299958Y348042D02*
X302600Y345400D01*
X309300D01*
X276400Y316200D02*
X277987Y317787D01*
X273900Y316200D02*
X276400D01*
D35*
X312800Y343100D02*
X315300Y345600D01*
X309800Y343100D02*
X312800D01*
X275746Y378595D02*
Y382554D01*
X253000Y383700D02*
X253900Y382800D01*
X248416Y377926D02*
Y380316D01*
X251800Y383700D02*
X253000D01*
X248416Y380316D02*
X251800Y383700D01*
X254371Y394015D02*
X256957Y396600D01*
X245400Y393300D02*
Y395100D01*
X246900Y396600D01*
X250384Y393674D02*
Y395616D01*
X249400Y396600D02*
X250384Y395616D01*
X231300Y405150D02*
X234500Y408350D01*
X231300Y395400D02*
Y405150D01*
Y395400D02*
X233600Y393100D01*
X246447D01*
X232900Y360200D02*
X234900Y362200D01*
X233200Y364900D02*
X234900Y363200D01*
X303800Y388600D02*
X306400Y386000D01*
Y383800D02*
Y386000D01*
X318550Y342500D02*
X322350Y346300D01*
X284000Y318900D02*
X293500D01*
X278500Y329300D02*
X282700Y325100D01*
X304498Y304747D02*
X310450Y310700D01*
X306700Y302000D02*
X309700Y305000D01*
X280900Y336900D02*
X282000Y338000D01*
X296000Y321400D02*
X303900D01*
X293500Y318900D02*
X296000Y321400D01*
X310400Y327900D02*
Y332350D01*
X303900Y321400D02*
X310400Y327900D01*
X288584Y313507D02*
Y316516D01*
X286700Y318400D02*
X288584Y316516D01*
X293407Y304747D02*
X304498D01*
X290646Y302000D02*
X306700D01*
X240900Y305900D02*
Y306700D01*
X239000Y308600D02*
X240900Y306700D01*
X235000Y308600D02*
X239000D01*
X251000Y309150D02*
X259850D01*
X247850Y312300D02*
X251000Y309150D01*
X271500Y301500D02*
Y307700D01*
X277300Y313500D01*
X274800Y302800D02*
Y306100D01*
X279353Y310653D01*
X278700Y305400D02*
X281200Y307900D01*
X279353Y310653D02*
X281793D01*
X277300Y313500D02*
X284600D01*
X283100Y300300D02*
X284400Y301600D01*
X275800Y300300D02*
X283100D01*
X275800D02*
X276000Y300100D01*
X277700Y336900D02*
X280900D01*
X233800Y337300D02*
X236000Y339500D01*
X232800Y330500D02*
Y337143D01*
X232900Y341600D02*
Y360200D01*
X303900Y381300D02*
X306400Y383800D01*
X307300Y374600D02*
X308400D01*
X316400Y361200D02*
X319600D01*
X316200Y358100D02*
Y365069D01*
X319600Y368300D02*
X322350Y365550D01*
Y346300D02*
Y365550D01*
X243100Y304100D02*
Y308200D01*
X263450Y313050D02*
X268500Y318100D01*
X259850Y309150D02*
X262300Y311600D01*
X251000Y303600D02*
Y309150D01*
X240200Y312200D02*
X247150D01*
X234500Y408350D02*
X260400D01*
X241000Y397600D02*
Y401000D01*
X234500Y401600D02*
X241000D01*
X316100Y368400D02*
X319600D01*
X241425Y408175D02*
X244300Y405300D01*
X246900Y396600D02*
X249400D01*
X273000Y385300D02*
X275746Y382554D01*
X264100Y386700D02*
X267850Y382950D01*
X270850Y383150D02*
X273000Y385300D01*
X303650Y389600D02*
Y401350D01*
X306454Y372690D02*
Y376600D01*
X299073Y401100D02*
X303100D01*
X253900Y382800D02*
X256800D01*
X234900Y362200D02*
Y363200D01*
X288584Y294016D02*
Y301893D01*
X281793Y307000D02*
Y308516D01*
X293300Y310900D02*
Y312300D01*
X291300Y313400D02*
X292200D01*
X278700Y302700D02*
Y305400D01*
X310500Y338750D02*
X316400D01*
Y342500D02*
X318550D01*
X316400Y338900D02*
Y342500D01*
X281000Y321400D02*
X285985D01*
D36*
X282600Y325600D02*
X296615D01*
Y329340D01*
X262300Y304900D02*
Y311600D01*
Y304900D02*
X266400Y300800D01*
X310300Y316200D02*
Y323000D01*
X316600Y329300D01*
X293800Y307900D02*
X300800D01*
X309400Y316500D01*
X270800Y300800D02*
X271500Y301500D01*
X266400Y300800D02*
X270800D01*
X317000Y316500D02*
X320800Y312700D01*
X270600Y300600D02*
X276400Y294800D01*
X232500Y311100D02*
X235000Y308600D01*
X320800Y297700D02*
Y312700D01*
X316600Y305500D02*
Y310700D01*
X307800Y295900D02*
X316100Y304200D01*
X316600Y329300D02*
Y332000D01*
D37*
X282000Y338000D02*
X282500Y338500D01*
X279600Y322800D02*
X281000Y321400D01*
X310100Y310400D02*
X310900D01*
X287600Y295000D02*
X288584Y294016D01*
X296021Y349079D02*
Y350446D01*
X278305Y346595D02*
X282500Y342400D01*
Y338500D02*
Y342400D01*
X281300Y294740D02*
X281440Y294600D01*
X266000Y390900D02*
X267700Y392600D01*
X310600Y402800D02*
X317568D01*
X267250Y408450D02*
X273500D01*
X267250D02*
X267400Y408300D01*
X236600Y396600D02*
X237963Y397963D01*
X235013Y396487D02*
Y400900D01*
X272600Y409100D02*
Y415400D01*
X302950Y402050D02*
X303650Y401350D01*
X262950Y388100D02*
Y393150D01*
X280300Y381154D02*
Y385500D01*
X259700Y384800D02*
X262200Y387300D01*
X255100Y369100D02*
X256700Y370700D01*
X246300Y366100D02*
Y366900D01*
X248500Y369100D01*
X255100D01*
X258000Y365100D02*
X259100D01*
X260900Y363300D01*
X309850Y386300D02*
Y402150D01*
X278305Y346595D02*
Y350446D01*
X257800Y384800D02*
X259700D01*
X272900Y392900D02*
X280300Y385500D01*
X269600Y392900D02*
X272900D01*
X306700Y360900D02*
X310500D01*
X313100Y358300D01*
X315200D01*
X270700Y318400D02*
X273600D01*
X276413Y321213D01*
X293500Y306800D02*
Y308500D01*
X318600Y295500D02*
X320800Y297700D01*
X316100Y304200D02*
Y305500D01*
X292200Y313400D02*
X293300Y312300D01*
X296021Y349079D02*
X301900Y343200D01*
X309800D01*
X278200Y322800D02*
X279600D01*
X277600Y329300D02*
X278500D01*
X326400Y288000D02*
Y431500D01*
X228000Y288000D02*
X326400D01*
X228000Y431500D02*
X326400D01*
X228000Y288000D02*
Y431500D01*
D38*
X321200Y379900D02*
Y395700D01*
X318200Y376900D02*
X321200Y379900D01*
X316400Y376900D02*
X318200D01*
X321200Y400100D02*
Y406500D01*
Y411300D02*
Y414107D01*
D39*
X314900Y369850D02*
D03*
D40*
X313550Y373000D02*
D03*
D41*
X314900Y369900D02*
D03*
D42*
X308600Y295500D02*
D03*
D43*
X318600D02*
D03*
D44*
X260600Y352200D02*
D03*
X284000Y318900D02*
D03*
X268200Y303500D02*
D03*
X280800Y316000D02*
D03*
X276000Y300100D02*
D03*
X252000Y362100D02*
D03*
X291500Y333200D02*
D03*
X296500Y339700D02*
D03*
X299500Y339800D02*
D03*
Y342600D02*
D03*
X297900Y337200D02*
D03*
X308400Y374600D02*
D03*
X308600Y381600D02*
D03*
X308000Y348200D02*
D03*
X310100Y364800D02*
D03*
X312100Y362400D02*
D03*
X316400Y342500D02*
D03*
X270300Y363400D02*
D03*
X268000Y366500D02*
D03*
X263700Y363700D02*
D03*
X319200Y361300D02*
D03*
X309400Y350700D02*
D03*
Y353700D02*
D03*
X309300Y356700D02*
D03*
X309800Y386000D02*
D03*
X319600Y368300D02*
D03*
X258600Y340000D02*
D03*
X244300Y405300D02*
D03*
X257700Y405100D02*
D03*
X263800Y405300D02*
D03*
X243200Y328300D02*
D03*
X243500Y321500D02*
D03*
X234900Y308600D02*
D03*
X243300Y308200D02*
D03*
X282000Y338000D02*
D03*
X266000Y345700D02*
D03*
X246300Y381600D02*
D03*
X237300Y382200D02*
D03*
X251300Y404900D02*
D03*
X241000Y397600D02*
D03*
X271500Y301500D02*
D03*
X247000Y298600D02*
D03*
X260300D02*
D03*
X251000Y333700D02*
D03*
Y327700D02*
D03*
Y321800D02*
D03*
X237400Y388400D02*
D03*
X236000Y351900D02*
D03*
X265900Y339800D02*
D03*
X258700Y333700D02*
D03*
X258500Y327500D02*
D03*
X260400Y301700D02*
D03*
X258600Y316500D02*
D03*
X251000Y315800D02*
D03*
X272900Y321300D02*
D03*
X281000Y409400D02*
D03*
X278000Y343700D02*
D03*
X276000Y341200D02*
D03*
X272600Y415300D02*
D03*
X237600Y398200D02*
D03*
X253000Y388900D02*
D03*
Y383700D02*
D03*
X250900Y398900D02*
D03*
X256900Y396600D02*
D03*
X284500Y402400D02*
D03*
X281100Y397400D02*
D03*
X270200Y399100D02*
D03*
X295700Y407100D02*
D03*
X298900Y401200D02*
D03*
X295500Y403900D02*
D03*
X296900Y399200D02*
D03*
X291000Y386700D02*
D03*
X282400Y389300D02*
D03*
Y386400D02*
D03*
X288300Y385300D02*
D03*
X293900Y390300D02*
D03*
X266000Y390900D02*
D03*
X273000Y385300D02*
D03*
X236100Y375200D02*
D03*
X248200Y368900D02*
D03*
X235200Y390400D02*
D03*
X244800Y390100D02*
D03*
X247400Y388600D02*
D03*
X270900Y372600D02*
D03*
X268000Y372500D02*
D03*
X265600Y370600D02*
D03*
X234900Y362200D02*
D03*
X248600Y362100D02*
D03*
X235900Y369100D02*
D03*
X242100Y369000D02*
D03*
X260000Y378700D02*
D03*
X260600Y363600D02*
D03*
X300100Y385600D02*
D03*
X303000D02*
D03*
X263200Y375400D02*
D03*
X236000Y339700D02*
D03*
X243600Y345700D02*
D03*
X264800Y352600D02*
D03*
X272700Y293400D02*
D03*
X288400Y333300D02*
D03*
X278700Y302700D02*
D03*
X292947Y313207D02*
D03*
X303200Y297200D02*
D03*
X309900Y346100D02*
D03*
X304400Y347700D02*
D03*
X309800Y343100D02*
D03*
X283200Y332800D02*
D03*
X274800Y302800D02*
D03*
X276400Y316200D02*
D03*
X281000Y321400D02*
D03*
X282600Y325200D02*
D03*
X281100Y330500D02*
D03*
X298900Y332500D02*
D03*
X299000Y312600D02*
D03*
X303400Y316400D02*
D03*
X313900Y320700D02*
D03*
D45*
X289300Y390700D02*
D03*
X293300Y410700D02*
D03*
X284946D02*
D03*
D46*
X283800Y357700D02*
D03*
X283600Y373400D02*
D03*
X298400Y372700D02*
D03*
X297600Y357500D02*
D03*
X291200Y364700D02*
D03*
D47*
X287600Y307700D02*
D03*
M02*
