%FSLAX25Y25*%
%MOIN*%
G70*
G01*
G75*
G04 Layer_Physical_Order=4*
G04 Layer_Color=16711680*
%ADD10R,0.03937X0.03740*%
%ADD11R,0.25984X0.25984*%
%ADD12O,0.00945X0.02362*%
%ADD13O,0.02362X0.00945*%
%ADD14R,0.02165X0.02362*%
%ADD15R,0.02362X0.02165*%
%ADD16R,0.03740X0.03937*%
%ADD17C,0.00984*%
%ADD18R,0.01772X0.05433*%
%ADD19R,0.09350X0.07480*%
%ADD20R,0.04606X0.07480*%
%ADD21R,0.05807X0.08268*%
%ADD22R,0.03150X0.00984*%
%ADD23R,0.00984X0.03150*%
%ADD24R,0.03937X0.02165*%
%ADD25R,0.04134X0.02362*%
%ADD26R,0.06693X0.06693*%
%ADD27O,0.03347X0.01102*%
%ADD28O,0.01102X0.03347*%
%ADD29R,0.03150X0.03740*%
%ADD30R,0.06299X0.07087*%
%ADD31R,0.01378X0.03937*%
%ADD32R,0.06299X0.03150*%
%ADD33C,0.01200*%
%ADD34C,0.00800*%
%ADD35C,0.01500*%
%ADD36C,0.02000*%
%ADD37C,0.01000*%
%ADD38C,0.01826*%
%ADD39R,0.04000X0.04100*%
%ADD40R,0.01300X0.04400*%
%ADD41R,0.04000X0.04200*%
%ADD42C,0.05906*%
%ADD43R,0.05906X0.05906*%
%ADD44C,0.02200*%
%ADD45C,0.04331*%
%ADD46C,0.05000*%
%ADD47C,0.04000*%
%ADD48R,0.06728X0.02402*%
%ADD49C,0.03098*%
%ADD50R,0.02362X0.03937*%
%ADD51R,0.03937X0.02362*%
%ADD52R,0.07500X0.05500*%
%ADD53R,0.07100X0.05500*%
%ADD54R,0.05500X0.07500*%
%ADD55R,0.03200X0.05900*%
%ADD56R,0.04724X0.04331*%
%ADD57R,0.05906X0.03150*%
%ADD58R,0.02402X0.06728*%
%ADD59C,0.01800*%
D10*
X316050Y358300D02*
D03*
X322350D02*
D03*
X316050Y346300D02*
D03*
X322350D02*
D03*
Y352300D02*
D03*
X316050D02*
D03*
Y364300D02*
D03*
X322350D02*
D03*
X314050Y389600D02*
D03*
X320350D02*
D03*
X320250Y401600D02*
D03*
X313950D02*
D03*
X320250Y395600D02*
D03*
X313950D02*
D03*
D16*
X296000Y322850D02*
D03*
Y329150D02*
D03*
X289200Y374750D02*
D03*
Y381050D02*
D03*
X283200D02*
D03*
Y374750D02*
D03*
X295200Y381150D02*
D03*
Y374850D02*
D03*
X301300Y381150D02*
D03*
Y374850D02*
D03*
X290000Y329150D02*
D03*
Y322850D02*
D03*
X302000D02*
D03*
Y329150D02*
D03*
X308200D02*
D03*
Y322850D02*
D03*
D17*
X285187Y365913D02*
D03*
Y367487D02*
D03*
X283613D02*
D03*
Y365913D02*
D03*
D33*
X247150Y364950D02*
X249150D01*
X244900Y367200D02*
X247150Y364950D01*
X244900Y367200D02*
Y370000D01*
X249150Y364950D02*
X252000Y362100D01*
X242900Y372000D02*
X244900Y370000D01*
X236000Y372000D02*
X242900D01*
X233700Y374300D02*
X236000Y372000D01*
X239900Y366800D02*
X242100Y369000D01*
X234700Y366800D02*
X239900D01*
X233253Y371747D02*
X235900Y369100D01*
X309800Y386000D02*
X317100D01*
X319300Y388200D01*
X280100Y384150D02*
X283200Y381050D01*
X277100Y415600D02*
Y424900D01*
X281000Y409400D02*
Y413400D01*
X278300Y416100D02*
X281000Y413400D01*
X244400Y409600D02*
X266900D01*
X237600Y398200D02*
Y402800D01*
X244400Y409600D01*
X281000Y409400D02*
X284300Y406100D01*
X286900D01*
X277100Y393900D02*
X278600D01*
X266900Y409600D02*
X272600Y415300D01*
X266900Y391800D02*
Y409600D01*
X280100Y384150D02*
Y392400D01*
X278600Y393900D02*
X280100Y392400D01*
X266000Y390900D02*
X266900Y391800D01*
X320350Y389600D02*
Y401650D01*
X232903Y368597D02*
X234700Y366800D01*
X230700Y374300D02*
X233700D01*
X265200Y352100D02*
X269900Y347400D01*
Y341900D02*
Y347400D01*
Y341900D02*
X273800Y338000D01*
X282000D01*
X273000Y385300D02*
Y391900D01*
X274900Y393800D01*
X275700D01*
X291066Y336200D02*
X292600D01*
X291600Y333100D02*
X292050D01*
X296000Y329150D01*
X278700Y334700D02*
X282000Y338000D01*
X298900Y332500D02*
X302300Y335900D01*
X302000Y322700D02*
X303400Y321300D01*
D34*
X231265Y371747D02*
X233253D01*
X296000Y337200D02*
X297900D01*
X292900Y340300D02*
X296000Y337200D01*
X293700Y344300D02*
X296200Y341800D01*
Y339800D02*
Y341800D01*
Y339800D02*
X296300Y339700D01*
X299600Y340100D02*
X302500D01*
X299100Y339600D02*
X299600Y340100D01*
X300400Y343900D02*
X302600D01*
X299100Y342600D02*
X300400Y343900D01*
X307500Y382700D02*
X308600Y381600D01*
X307500Y387300D02*
X309800Y389600D01*
X307500Y382700D02*
Y387300D01*
X308000Y348200D02*
Y348900D01*
X309300Y362600D02*
X311900D01*
X312100Y362400D01*
X309300Y356700D02*
X316000Y363400D01*
X267400D02*
X270300D01*
X264700Y366100D02*
X267400Y363400D01*
X266600Y367800D02*
X267950Y366450D01*
X316000Y345400D02*
Y353100D01*
X312900Y357200D02*
X316000D01*
X309400Y353700D02*
X312900Y357200D01*
X285187Y362413D02*
Y365913D01*
X304300Y357600D02*
X309300Y362600D01*
X298100Y357600D02*
X304300D01*
X296148Y359552D02*
X298100Y357600D01*
X297500Y363500D02*
X300350Y360650D01*
X297500Y363500D02*
Y371200D01*
X294600Y365800D02*
X296148Y364252D01*
Y359552D02*
Y364252D01*
X297500Y371200D02*
X300100Y373800D01*
X287700Y367300D02*
Y374000D01*
X286313Y365913D02*
X287700Y367300D01*
X285187Y365913D02*
X286313D01*
X293400Y365800D02*
X294600D01*
X305800Y364800D02*
X310100D01*
X302700Y361700D02*
X305800Y364800D01*
X301600Y361700D02*
X302700D01*
X300100Y373800D02*
Y374950D01*
X293900Y366700D02*
Y373900D01*
X309800Y389600D02*
X314050D01*
X292100Y395400D02*
X293100D01*
X283613Y367487D02*
Y373900D01*
X271700Y302200D02*
X271800Y302100D01*
X250300Y306100D02*
X257800Y298600D01*
X260900D01*
X259050Y303050D02*
X260400Y301700D01*
X259050Y303050D02*
Y306250D01*
X268100Y303600D02*
Y306600D01*
X262450Y308250D02*
Y312650D01*
X258600Y316500D02*
X262450Y312650D01*
X286400Y400500D02*
X286500D01*
X284500Y402400D02*
X286400Y400500D01*
X281100Y397400D02*
X284300Y394200D01*
X292200Y405200D02*
X293800D01*
X295700Y407100D01*
X291500Y399900D02*
X295500Y403900D01*
X296900Y399200D02*
X297100Y399000D01*
X293100Y395400D02*
X296900Y399200D01*
X231265Y390645D02*
X235200D01*
X284300Y390257D02*
Y394200D01*
Y390257D02*
X284420Y390137D01*
Y389580D02*
Y390137D01*
Y389580D02*
X288300Y385700D01*
Y385300D02*
Y385700D01*
X300000Y398300D02*
X302900Y401200D01*
X300000Y385600D02*
Y398300D01*
X307600Y401800D02*
X313200D01*
X302900Y401200D02*
X305600D01*
X307900Y394300D02*
X313500D01*
X302800Y385600D02*
Y391400D01*
X303800Y392400D01*
Y393300D01*
X231265Y368597D02*
X232903D01*
X232800Y387300D02*
X233800Y386300D01*
X234154Y379546D02*
Y379608D01*
Y379546D02*
X234200Y379500D01*
X232566Y381196D02*
X234154Y379608D01*
X231265Y381196D02*
X232566D01*
X243500Y318800D02*
Y321500D01*
Y318800D02*
X250500Y311800D01*
X253300D01*
X271360Y361300D02*
X272300Y360360D01*
X263400Y338400D02*
Y343100D01*
X266000Y345700D01*
X258700Y333700D02*
X263400Y338400D01*
X285187Y362413D02*
X292200Y355400D01*
X304700D01*
X309400Y350700D01*
X233800Y386300D02*
X256300D01*
X267900Y374700D01*
Y372500D02*
Y374700D01*
X270900Y372600D02*
Y374700D01*
X257700Y361300D02*
X271360D01*
X257300Y358800D02*
X258100Y358000D01*
X257300Y358800D02*
Y362400D01*
X248400Y369100D02*
X250600D01*
X257300Y362400D01*
X231265Y377546D02*
X244954D01*
X256400Y366100D01*
X264700D01*
X231265Y384345D02*
X247255D01*
X261000Y370600D01*
X265600D01*
X234200Y379500D02*
X247300D01*
X259000Y367800D01*
X266600D01*
X234865Y390495D02*
X236770Y392400D01*
X253200D01*
X270900Y374700D01*
X275300Y307400D02*
Y309800D01*
X308000Y348900D02*
X308600Y348300D01*
X314200D01*
X314900Y347600D01*
X258500Y326600D02*
Y327500D01*
Y326600D02*
X275300Y309800D01*
X280000Y309600D02*
Y310500D01*
X272900Y315300D02*
Y321300D01*
Y315300D02*
X276300Y311900D01*
X278600D02*
X280000Y310500D01*
X276300Y311900D02*
X278600D01*
D35*
X247500Y356800D02*
X249200Y355100D01*
X275500D01*
X280600Y360200D01*
Y372200D01*
X309800Y336300D02*
Y338300D01*
Y336300D02*
X317200Y328900D01*
X241000Y397600D02*
X242700Y395900D01*
X256200D02*
X256900Y396600D01*
X242700Y395900D02*
X256200D01*
X309800Y338300D02*
Y343100D01*
X307500Y336000D02*
X309800Y338300D01*
X318550Y342500D02*
X322350Y346300D01*
X279300Y318900D02*
X284000D01*
X267600Y330600D02*
X279300Y318900D01*
X245300Y330600D02*
X267600D01*
X287900Y336200D02*
X291066D01*
X285700Y334000D02*
X287900Y336200D01*
X285700Y328300D02*
Y334000D01*
X281000Y321400D02*
X288450D01*
X278700Y323700D02*
X281000Y321400D01*
X319200Y361300D02*
X322000D01*
X322050Y351100D02*
Y363150D01*
X280600Y372200D02*
X282500Y374100D01*
X235000Y358200D02*
X247801D01*
X283500Y380100D02*
X301800D01*
X243250Y328550D02*
X245300Y330600D01*
X234900Y359400D02*
Y362300D01*
X316400Y342500D02*
X318550D01*
X288450Y321400D02*
X290000Y322950D01*
X278700Y323700D02*
Y334700D01*
X282600Y325200D02*
X285700Y328300D01*
X289800D01*
X306400Y336000D02*
X307500D01*
X317200Y313900D02*
Y328900D01*
D36*
X299000Y303200D02*
X311700D01*
X297300Y304900D02*
X299000Y303200D01*
X293800Y304900D02*
X297300D01*
X311700Y303200D02*
X319500Y295400D01*
X311400Y303500D02*
Y318800D01*
X293727Y293220D02*
X306320D01*
X295980Y328980D02*
X308200D01*
X296200Y322700D02*
X302000D01*
X308200Y322000D02*
X311400Y318800D01*
X303500Y313700D02*
Y316400D01*
X303400D02*
Y321300D01*
D37*
X283613Y358913D02*
Y365913D01*
X277300Y352600D02*
X283613Y358913D01*
X264800Y352600D02*
X277300D01*
X289300Y369500D02*
X292200Y372400D01*
X289300Y364000D02*
Y369500D01*
Y364000D02*
X291900Y361400D01*
X286200Y368500D02*
Y380100D01*
X285187Y367487D02*
X286200Y368500D01*
X292200Y372400D02*
Y380100D01*
X301500Y367500D02*
X304200Y370200D01*
Y378400D01*
X302400Y380200D02*
X304200Y378400D01*
X271700Y302200D02*
Y305000D01*
X306320Y293220D02*
X308600Y295500D01*
X308200Y322000D02*
Y322850D01*
X302000Y309600D02*
X305935D01*
X299000Y312600D02*
X302000Y309600D01*
X313900Y313000D02*
Y320700D01*
Y313000D02*
X317400Y309500D01*
X326400Y288000D02*
Y431500D01*
X228000Y288000D02*
X326400D01*
X228000Y431500D02*
X326400D01*
X228000Y288000D02*
Y431500D01*
D42*
X308600Y295500D02*
D03*
D43*
X318600D02*
D03*
D44*
X260600Y352200D02*
D03*
X284000Y318900D02*
D03*
X268200Y303500D02*
D03*
X280800Y316000D02*
D03*
X276000Y300100D02*
D03*
X252000Y362100D02*
D03*
X291500Y333200D02*
D03*
X296500Y339700D02*
D03*
X299500Y339800D02*
D03*
Y342600D02*
D03*
X297900Y337200D02*
D03*
X308400Y374600D02*
D03*
X308600Y381600D02*
D03*
X308000Y348200D02*
D03*
X310100Y364800D02*
D03*
X312100Y362400D02*
D03*
X316400Y342500D02*
D03*
X270300Y363400D02*
D03*
X268000Y366500D02*
D03*
X263700Y363700D02*
D03*
X319200Y361300D02*
D03*
X309400Y350700D02*
D03*
Y353700D02*
D03*
X309300Y356700D02*
D03*
X309800Y386000D02*
D03*
X319600Y368300D02*
D03*
X258600Y340000D02*
D03*
X244300Y405300D02*
D03*
X257700Y405100D02*
D03*
X263800Y405300D02*
D03*
X243200Y328300D02*
D03*
X243500Y321500D02*
D03*
X234900Y308600D02*
D03*
X243300Y308200D02*
D03*
X282000Y338000D02*
D03*
X266000Y345700D02*
D03*
X246300Y381600D02*
D03*
X237300Y382200D02*
D03*
X251300Y404900D02*
D03*
X241000Y397600D02*
D03*
X271500Y301500D02*
D03*
X247000Y298600D02*
D03*
X260300D02*
D03*
X251000Y333700D02*
D03*
Y327700D02*
D03*
Y321800D02*
D03*
X237400Y388400D02*
D03*
X236000Y351900D02*
D03*
X265900Y339800D02*
D03*
X258700Y333700D02*
D03*
X258500Y327500D02*
D03*
X260400Y301700D02*
D03*
X258600Y316500D02*
D03*
X251000Y315800D02*
D03*
X272900Y321300D02*
D03*
X281000Y409400D02*
D03*
X278000Y343700D02*
D03*
X276000Y341200D02*
D03*
X272600Y415300D02*
D03*
X237600Y398200D02*
D03*
X253000Y388900D02*
D03*
Y383700D02*
D03*
X250900Y398900D02*
D03*
X256900Y396600D02*
D03*
X284500Y402400D02*
D03*
X281100Y397400D02*
D03*
X270200Y399100D02*
D03*
X295700Y407100D02*
D03*
X298900Y401200D02*
D03*
X295500Y403900D02*
D03*
X296900Y399200D02*
D03*
X291000Y386700D02*
D03*
X282400Y389300D02*
D03*
Y386400D02*
D03*
X288300Y385300D02*
D03*
X293900Y390300D02*
D03*
X266000Y390900D02*
D03*
X273000Y385300D02*
D03*
X236100Y375200D02*
D03*
X248200Y368900D02*
D03*
X235200Y390400D02*
D03*
X244800Y390100D02*
D03*
X247400Y388600D02*
D03*
X270900Y372600D02*
D03*
X268000Y372500D02*
D03*
X265600Y370600D02*
D03*
X234900Y362200D02*
D03*
X248600Y362100D02*
D03*
X235900Y369100D02*
D03*
X242100Y369000D02*
D03*
X260000Y378700D02*
D03*
X260600Y363600D02*
D03*
X300100Y385600D02*
D03*
X303000D02*
D03*
X263200Y375400D02*
D03*
X236000Y339700D02*
D03*
X243600Y345700D02*
D03*
X264800Y352600D02*
D03*
X272700Y293400D02*
D03*
X288400Y333300D02*
D03*
X278700Y302700D02*
D03*
X292947Y313207D02*
D03*
X303200Y297200D02*
D03*
X309900Y346100D02*
D03*
X304400Y347700D02*
D03*
X309800Y343100D02*
D03*
X283200Y332800D02*
D03*
X274800Y302800D02*
D03*
X276400Y316200D02*
D03*
X281000Y321400D02*
D03*
X282600Y325200D02*
D03*
X281100Y330500D02*
D03*
X298900Y332500D02*
D03*
X299000Y312600D02*
D03*
X303400Y316400D02*
D03*
X313900Y320700D02*
D03*
D45*
X289300Y390700D02*
D03*
X293300Y410700D02*
D03*
X284946D02*
D03*
D48*
X291066Y344137D02*
D03*
X304334D02*
D03*
Y336231D02*
D03*
Y340168D02*
D03*
X291066D02*
D03*
Y336231D02*
D03*
X319334Y313668D02*
D03*
Y309732D02*
D03*
X306066D02*
D03*
Y313668D02*
D03*
D49*
X291800Y400700D02*
D03*
Y405700D02*
D03*
Y395700D02*
D03*
X286800Y400700D02*
D03*
Y405700D02*
D03*
Y395700D02*
D03*
D50*
X247801Y358361D02*
D03*
X250950D02*
D03*
X254100D02*
D03*
X257249D02*
D03*
X260399D02*
D03*
X263549D02*
D03*
X266698D02*
D03*
X269848D02*
D03*
X272997D02*
D03*
X244651D02*
D03*
X241501D02*
D03*
X238352D02*
D03*
X235202D02*
D03*
D51*
X276935Y425290D02*
D03*
Y422141D02*
D03*
Y418991D02*
D03*
Y415841D02*
D03*
Y412692D02*
D03*
Y409542D02*
D03*
Y406393D02*
D03*
Y403243D02*
D03*
Y400093D02*
D03*
Y396944D02*
D03*
Y393794D02*
D03*
Y390645D02*
D03*
Y387495D02*
D03*
Y384345D02*
D03*
Y381196D02*
D03*
Y378046D02*
D03*
Y374897D02*
D03*
Y371747D02*
D03*
Y368597D02*
D03*
Y365448D02*
D03*
Y362298D02*
D03*
X231265D02*
D03*
Y365448D02*
D03*
Y368597D02*
D03*
Y371747D02*
D03*
Y374897D02*
D03*
Y378046D02*
D03*
Y381196D02*
D03*
Y384345D02*
D03*
Y387495D02*
D03*
Y390645D02*
D03*
Y393794D02*
D03*
Y396944D02*
D03*
Y400093D02*
D03*
Y403243D02*
D03*
Y406393D02*
D03*
Y409542D02*
D03*
Y412692D02*
D03*
D52*
X254700Y348300D02*
D03*
D53*
X277400D02*
D03*
D54*
X231800Y292600D02*
D03*
X283600Y296500D02*
D03*
D55*
X280500Y307700D02*
D03*
X276200D02*
D03*
X271900Y306900D02*
D03*
X267600Y307700D02*
D03*
X263300Y306900D02*
D03*
X259000Y307700D02*
D03*
X254700Y309300D02*
D03*
X250400Y307700D02*
D03*
D56*
X301134Y360947D02*
D03*
X292866D02*
D03*
Y366853D02*
D03*
X301134D02*
D03*
D57*
X306000Y393369D02*
D03*
Y402031D02*
D03*
D58*
X293332Y306734D02*
D03*
X297269D02*
D03*
Y293466D02*
D03*
X293332D02*
D03*
D59*
X278700Y302700D02*
X283700D01*
X285800Y304800D01*
Y317100D01*
X284000Y318900D02*
X285800Y317100D01*
M02*
