%FSLAX25Y25*%
%MOIN*%
G70*
G01*
G75*
G04 Layer_Color=2752767*
%ADD10R,0.03937X0.03740*%
%ADD11R,0.25984X0.25984*%
%ADD12O,0.00945X0.02362*%
%ADD13O,0.02362X0.00945*%
%ADD14R,0.02165X0.02362*%
%ADD15R,0.02362X0.02165*%
%ADD16R,0.03740X0.03937*%
%ADD17C,0.00984*%
%ADD18R,0.01772X0.05433*%
%ADD19R,0.09350X0.07480*%
%ADD20R,0.04606X0.07480*%
%ADD21R,0.05807X0.08268*%
%ADD22R,0.03150X0.00984*%
%ADD23R,0.00984X0.03150*%
%ADD24R,0.03937X0.02165*%
%ADD25R,0.04134X0.02362*%
%ADD26R,0.06693X0.06693*%
%ADD27O,0.03347X0.01102*%
%ADD28O,0.01102X0.03347*%
%ADD29R,0.03150X0.03740*%
%ADD30R,0.06299X0.07087*%
%ADD31R,0.01378X0.03937*%
%ADD32R,0.06299X0.03150*%
%ADD33C,0.01200*%
%ADD34C,0.00800*%
%ADD35C,0.01500*%
%ADD36C,0.02000*%
%ADD37C,0.01000*%
%ADD38C,0.01826*%
%ADD39R,0.04000X0.04100*%
%ADD40R,0.01300X0.04400*%
%ADD41R,0.04000X0.04200*%
%ADD42C,0.05906*%
%ADD43R,0.05906X0.05906*%
%ADD44C,0.02200*%
%ADD45C,0.04331*%
%ADD46C,0.05000*%
%ADD47C,0.04000*%
%ADD48R,0.06728X0.02402*%
%ADD49C,0.03098*%
%ADD50R,0.02362X0.03937*%
%ADD51R,0.03937X0.02362*%
%ADD52R,0.07500X0.05500*%
%ADD53R,0.07100X0.05500*%
%ADD54R,0.05500X0.07500*%
%ADD55R,0.03200X0.05900*%
%ADD56R,0.04724X0.04331*%
%ADD57R,0.05906X0.03150*%
%ADD58R,0.02402X0.06728*%
%ADD59C,0.01800*%
%ADD60C,0.01181*%
%ADD61C,0.01969*%
%ADD62R,0.02362X0.02362*%
%ADD63C,0.00394*%
%ADD64C,0.00591*%
%ADD65C,0.00787*%
%ADD66C,0.00315*%
%ADD67C,0.00400*%
%ADD68C,0.00600*%
%ADD69C,0.00700*%
%ADD70R,0.04737X0.04540*%
%ADD71R,0.26784X0.26784*%
%ADD72O,0.01745X0.03162*%
%ADD73O,0.03162X0.01745*%
%ADD74R,0.02965X0.03162*%
%ADD75R,0.03162X0.02965*%
%ADD76R,0.04540X0.04737*%
%ADD77C,0.01784*%
%ADD78R,0.10150X0.08280*%
%ADD79R,0.05406X0.08280*%
%ADD80R,0.06607X0.09068*%
%ADD81R,0.03950X0.01784*%
%ADD82R,0.01784X0.03950*%
%ADD83R,0.04737X0.02965*%
%ADD84R,0.04934X0.03162*%
%ADD85R,0.07493X0.07493*%
%ADD86O,0.04147X0.01902*%
%ADD87O,0.01902X0.04147*%
%ADD88R,0.03950X0.04540*%
%ADD89R,0.07099X0.07887*%
%ADD90R,0.02178X0.04737*%
%ADD91R,0.07099X0.03950*%
%ADD92C,0.06706*%
%ADD93R,0.06706X0.06706*%
%ADD94C,0.03000*%
%ADD95C,0.05131*%
%ADD96C,0.05800*%
%ADD97C,0.04800*%
%ADD98R,0.07528X0.03202*%
%ADD99C,0.03898*%
%ADD100R,0.02756X0.04331*%
%ADD101R,0.04331X0.02756*%
%ADD102R,0.08300X0.06300*%
%ADD103R,0.07900X0.06300*%
%ADD104R,0.06300X0.08300*%
%ADD105R,0.04000X0.06700*%
%ADD106R,0.05524X0.05131*%
%ADD107R,0.06706X0.03950*%
%ADD108R,0.03202X0.07528*%
%ADD109C,0.00500*%
%ADD110C,0.00667*%
D109*
X306600Y293500D02*
Y297500D01*
X310600D01*
Y293500D01*
X306600D01*
X316600D02*
Y297500D01*
X320600D01*
Y293500D01*
X316600D01*
X289300Y388700D02*
X287300Y392700D01*
X291300D01*
X289300Y388700D01*
X293300Y408700D02*
X291300Y412700D01*
X295300D01*
X293300Y408700D01*
X284946D02*
X282946Y412700D01*
X286946D01*
X284946Y408700D01*
D110*
X262600Y352200D02*
G03*
X262600Y352200I-2000J0D01*
G01*
X286000Y318900D02*
G03*
X286000Y318900I-2000J0D01*
G01*
X270200Y303500D02*
G03*
X270200Y303500I-2000J0D01*
G01*
X282800Y316000D02*
G03*
X282800Y316000I-2000J0D01*
G01*
X278000Y300100D02*
G03*
X278000Y300100I-2000J0D01*
G01*
X254000Y362100D02*
G03*
X254000Y362100I-2000J0D01*
G01*
X293500Y333200D02*
G03*
X293500Y333200I-2000J0D01*
G01*
X298500Y339700D02*
G03*
X298500Y339700I-2000J0D01*
G01*
X301500Y339800D02*
G03*
X301500Y339800I-2000J0D01*
G01*
Y342600D02*
G03*
X301500Y342600I-2000J0D01*
G01*
X299900Y337200D02*
G03*
X299900Y337200I-2000J0D01*
G01*
X310400Y374600D02*
G03*
X310400Y374600I-2000J0D01*
G01*
X310600Y381600D02*
G03*
X310600Y381600I-2000J0D01*
G01*
X310000Y348200D02*
G03*
X310000Y348200I-2000J0D01*
G01*
X312100Y364800D02*
G03*
X312100Y364800I-2000J0D01*
G01*
X314100Y362400D02*
G03*
X314100Y362400I-2000J0D01*
G01*
X318400Y342500D02*
G03*
X318400Y342500I-2000J0D01*
G01*
X272300Y363400D02*
G03*
X272300Y363400I-2000J0D01*
G01*
X270000Y366500D02*
G03*
X270000Y366500I-2000J0D01*
G01*
X265700Y363700D02*
G03*
X265700Y363700I-2000J0D01*
G01*
X321200Y361300D02*
G03*
X321200Y361300I-2000J0D01*
G01*
X311400Y350700D02*
G03*
X311400Y350700I-2000J0D01*
G01*
Y353700D02*
G03*
X311400Y353700I-2000J0D01*
G01*
X311300Y356700D02*
G03*
X311300Y356700I-2000J0D01*
G01*
X311800Y386000D02*
G03*
X311800Y386000I-2000J0D01*
G01*
X321600Y368300D02*
G03*
X321600Y368300I-2000J0D01*
G01*
X260600Y340000D02*
G03*
X260600Y340000I-2000J0D01*
G01*
X246300Y405300D02*
G03*
X246300Y405300I-2000J0D01*
G01*
X259700Y405100D02*
G03*
X259700Y405100I-2000J0D01*
G01*
X265800Y405300D02*
G03*
X265800Y405300I-2000J0D01*
G01*
X245200Y328300D02*
G03*
X245200Y328300I-2000J0D01*
G01*
X245500Y321500D02*
G03*
X245500Y321500I-2000J0D01*
G01*
X236900Y308600D02*
G03*
X236900Y308600I-2000J0D01*
G01*
X245300Y308200D02*
G03*
X245300Y308200I-2000J0D01*
G01*
X284000Y338000D02*
G03*
X284000Y338000I-2000J0D01*
G01*
X268000Y345700D02*
G03*
X268000Y345700I-2000J0D01*
G01*
X248300Y381600D02*
G03*
X248300Y381600I-2000J0D01*
G01*
X239300Y382200D02*
G03*
X239300Y382200I-2000J0D01*
G01*
X253300Y404900D02*
G03*
X253300Y404900I-2000J0D01*
G01*
X243000Y397600D02*
G03*
X243000Y397600I-2000J0D01*
G01*
X273500Y301500D02*
G03*
X273500Y301500I-2000J0D01*
G01*
X249000Y298600D02*
G03*
X249000Y298600I-2000J0D01*
G01*
X262300D02*
G03*
X262300Y298600I-2000J0D01*
G01*
X253000Y333700D02*
G03*
X253000Y333700I-2000J0D01*
G01*
Y327700D02*
G03*
X253000Y327700I-2000J0D01*
G01*
Y321800D02*
G03*
X253000Y321800I-2000J0D01*
G01*
X239400Y388400D02*
G03*
X239400Y388400I-2000J0D01*
G01*
X238000Y351900D02*
G03*
X238000Y351900I-2000J0D01*
G01*
X267900Y339800D02*
G03*
X267900Y339800I-2000J0D01*
G01*
X260700Y333700D02*
G03*
X260700Y333700I-2000J0D01*
G01*
X260500Y327500D02*
G03*
X260500Y327500I-2000J0D01*
G01*
X262400Y301700D02*
G03*
X262400Y301700I-2000J0D01*
G01*
X260600Y316500D02*
G03*
X260600Y316500I-2000J0D01*
G01*
X253000Y315800D02*
G03*
X253000Y315800I-2000J0D01*
G01*
X274900Y321300D02*
G03*
X274900Y321300I-2000J0D01*
G01*
X283000Y409400D02*
G03*
X283000Y409400I-2000J0D01*
G01*
X280000Y343700D02*
G03*
X280000Y343700I-2000J0D01*
G01*
X278000Y341200D02*
G03*
X278000Y341200I-2000J0D01*
G01*
X274600Y415300D02*
G03*
X274600Y415300I-2000J0D01*
G01*
X239600Y398200D02*
G03*
X239600Y398200I-2000J0D01*
G01*
X255000Y388900D02*
G03*
X255000Y388900I-2000J0D01*
G01*
Y383700D02*
G03*
X255000Y383700I-2000J0D01*
G01*
X252900Y398900D02*
G03*
X252900Y398900I-2000J0D01*
G01*
X258900Y396600D02*
G03*
X258900Y396600I-2000J0D01*
G01*
X286500Y402400D02*
G03*
X286500Y402400I-2000J0D01*
G01*
X283100Y397400D02*
G03*
X283100Y397400I-2000J0D01*
G01*
X272200Y399100D02*
G03*
X272200Y399100I-2000J0D01*
G01*
X297700Y407100D02*
G03*
X297700Y407100I-2000J0D01*
G01*
X300900Y401200D02*
G03*
X300900Y401200I-2000J0D01*
G01*
X297500Y403900D02*
G03*
X297500Y403900I-2000J0D01*
G01*
X298900Y399200D02*
G03*
X298900Y399200I-2000J0D01*
G01*
X293000Y386700D02*
G03*
X293000Y386700I-2000J0D01*
G01*
X284400Y389300D02*
G03*
X284400Y389300I-2000J0D01*
G01*
Y386400D02*
G03*
X284400Y386400I-2000J0D01*
G01*
X290300Y385300D02*
G03*
X290300Y385300I-2000J0D01*
G01*
X295900Y390300D02*
G03*
X295900Y390300I-2000J0D01*
G01*
X268000Y390900D02*
G03*
X268000Y390900I-2000J0D01*
G01*
X275000Y385300D02*
G03*
X275000Y385300I-2000J0D01*
G01*
X238100Y375200D02*
G03*
X238100Y375200I-2000J0D01*
G01*
X250200Y368900D02*
G03*
X250200Y368900I-2000J0D01*
G01*
X237200Y390400D02*
G03*
X237200Y390400I-2000J0D01*
G01*
X246800Y390100D02*
G03*
X246800Y390100I-2000J0D01*
G01*
X249400Y388600D02*
G03*
X249400Y388600I-2000J0D01*
G01*
X272900Y372600D02*
G03*
X272900Y372600I-2000J0D01*
G01*
X270000Y372500D02*
G03*
X270000Y372500I-2000J0D01*
G01*
X267600Y370600D02*
G03*
X267600Y370600I-2000J0D01*
G01*
X236900Y362200D02*
G03*
X236900Y362200I-2000J0D01*
G01*
X250600Y362100D02*
G03*
X250600Y362100I-2000J0D01*
G01*
X237900Y369100D02*
G03*
X237900Y369100I-2000J0D01*
G01*
X244100Y369000D02*
G03*
X244100Y369000I-2000J0D01*
G01*
X262000Y378700D02*
G03*
X262000Y378700I-2000J0D01*
G01*
X262600Y363600D02*
G03*
X262600Y363600I-2000J0D01*
G01*
X302100Y385600D02*
G03*
X302100Y385600I-2000J0D01*
G01*
X305000D02*
G03*
X305000Y385600I-2000J0D01*
G01*
X265200Y375400D02*
G03*
X265200Y375400I-2000J0D01*
G01*
X238000Y339700D02*
G03*
X238000Y339700I-2000J0D01*
G01*
X245600Y345700D02*
G03*
X245600Y345700I-2000J0D01*
G01*
X266800Y352600D02*
G03*
X266800Y352600I-2000J0D01*
G01*
X274700Y293400D02*
G03*
X274700Y293400I-2000J0D01*
G01*
X290400Y333300D02*
G03*
X290400Y333300I-2000J0D01*
G01*
X280700Y302700D02*
G03*
X280700Y302700I-2000J0D01*
G01*
X294947Y313207D02*
G03*
X294947Y313207I-2000J0D01*
G01*
X305200Y297200D02*
G03*
X305200Y297200I-2000J0D01*
G01*
X311900Y346100D02*
G03*
X311900Y346100I-2000J0D01*
G01*
X306400Y347700D02*
G03*
X306400Y347700I-2000J0D01*
G01*
X311800Y343100D02*
G03*
X311800Y343100I-2000J0D01*
G01*
X285200Y332800D02*
G03*
X285200Y332800I-2000J0D01*
G01*
X276800Y302800D02*
G03*
X276800Y302800I-2000J0D01*
G01*
X278400Y316200D02*
G03*
X278400Y316200I-2000J0D01*
G01*
X283000Y321400D02*
G03*
X283000Y321400I-2000J0D01*
G01*
X284600Y325200D02*
G03*
X284600Y325200I-2000J0D01*
G01*
X283100Y330500D02*
G03*
X283100Y330500I-2000J0D01*
G01*
X300900Y332500D02*
G03*
X300900Y332500I-2000J0D01*
G01*
X301000Y312600D02*
G03*
X301000Y312600I-2000J0D01*
G01*
X305400Y316400D02*
G03*
X305400Y316400I-2000J0D01*
G01*
X315900Y320700D02*
G03*
X315900Y320700I-2000J0D01*
G01*
M02*
