%FSLAX25Y25*%
%MOIN*%
G70*
G01*
G75*
G04 Layer_Physical_Order=2*
G04 Layer_Color=5485115*
%ADD10R,0.03937X0.03740*%
%ADD11R,0.25984X0.25984*%
%ADD12O,0.00945X0.02362*%
%ADD13O,0.02362X0.00945*%
%ADD14R,0.02165X0.02362*%
%ADD15R,0.02362X0.02165*%
%ADD16R,0.03740X0.03937*%
%ADD17C,0.00984*%
%ADD18R,0.01772X0.05433*%
%ADD19R,0.09350X0.07480*%
%ADD20R,0.04606X0.07480*%
%ADD21R,0.05807X0.08268*%
%ADD22R,0.03150X0.00984*%
%ADD23R,0.00984X0.03150*%
%ADD24R,0.03937X0.02165*%
%ADD25R,0.04134X0.02362*%
%ADD26R,0.06693X0.06693*%
%ADD27O,0.03347X0.01102*%
%ADD28O,0.01102X0.03347*%
%ADD29R,0.03150X0.03740*%
%ADD30R,0.06299X0.07087*%
%ADD31R,0.01378X0.03937*%
%ADD32R,0.06299X0.03150*%
%ADD33C,0.01200*%
%ADD34C,0.00800*%
%ADD35C,0.01500*%
%ADD36C,0.02000*%
%ADD37C,0.01000*%
%ADD38C,0.01826*%
%ADD39R,0.04000X0.04100*%
%ADD40R,0.01300X0.04400*%
%ADD41R,0.04000X0.04200*%
%ADD42C,0.05906*%
%ADD43R,0.05906X0.05906*%
%ADD44C,0.02200*%
%ADD45C,0.04331*%
%ADD46C,0.05000*%
%ADD47C,0.04000*%
G36*
X297700Y407884D02*
X297221Y407739D01*
X296868Y408268D01*
X296332Y408626D01*
X295722Y408747D01*
X295677Y408865D01*
X295595Y409280D01*
X295646Y409346D01*
X295916Y409999D01*
X296008Y410700D01*
X295916Y411401D01*
X295646Y412054D01*
X295215Y412615D01*
X294654Y413046D01*
X294001Y413316D01*
X293300Y413409D01*
X292599Y413316D01*
X291946Y413046D01*
X291385Y412615D01*
X290954Y412054D01*
X290684Y411401D01*
X290592Y410700D01*
X290684Y409999D01*
X290954Y409346D01*
X291385Y408785D01*
X291946Y408354D01*
X292599Y408084D01*
X293300Y407992D01*
X293706Y408045D01*
X294063Y407806D01*
X294167Y407696D01*
X294048Y407100D01*
X294174Y406468D01*
X294532Y405932D01*
X294705Y405817D01*
Y405317D01*
X294332Y405068D01*
X293974Y404532D01*
X293848Y403900D01*
X293974Y403268D01*
X294332Y402732D01*
X294868Y402374D01*
X295500Y402248D01*
X296132Y402374D01*
X296668Y402732D01*
X297026Y403268D01*
X297152Y403900D01*
X297026Y404532D01*
X296668Y405068D01*
X296496Y405183D01*
Y405683D01*
X296868Y405932D01*
X297221Y406461D01*
X297700Y406316D01*
Y404900D01*
X298000Y405200D01*
X325000D01*
X325100Y405100D01*
Y289400D01*
X230153D01*
X229962Y289862D01*
X230100Y290000D01*
Y412900D01*
X263100D01*
X264600Y411400D01*
Y430000D01*
X297700D01*
Y407884D01*
D02*
G37*
%LPC*%
G36*
X238042Y339200D02*
X236500D01*
Y337658D01*
X236819Y337722D01*
X237514Y338186D01*
X237978Y338881D01*
X238042Y339200D01*
D02*
G37*
G36*
X235500D02*
X233958D01*
X234022Y338881D01*
X234486Y338186D01*
X235181Y337722D01*
X235500Y337658D01*
Y339200D01*
D02*
G37*
G36*
X283200Y334452D02*
X282568Y334326D01*
X282032Y333968D01*
X281674Y333432D01*
X281548Y332800D01*
X281613Y332473D01*
X281260Y332120D01*
X281100Y332152D01*
X280468Y332026D01*
X279932Y331668D01*
X279574Y331132D01*
X279448Y330500D01*
X279574Y329868D01*
X279932Y329332D01*
X280468Y328974D01*
X281100Y328848D01*
X281732Y328974D01*
X282268Y329332D01*
X282626Y329868D01*
X282752Y330500D01*
X282687Y330826D01*
X283040Y331180D01*
X283200Y331148D01*
X283832Y331274D01*
X284368Y331632D01*
X284726Y332168D01*
X284852Y332800D01*
X284726Y333432D01*
X284368Y333968D01*
X283832Y334326D01*
X283200Y334452D01*
D02*
G37*
G36*
X282000Y339652D02*
X281368Y339526D01*
X280832Y339168D01*
X280474Y338632D01*
X280348Y338000D01*
X280474Y337368D01*
X280832Y336832D01*
X281368Y336474D01*
X282000Y336348D01*
X282632Y336474D01*
X283168Y336832D01*
X283526Y337368D01*
X283652Y338000D01*
X283526Y338632D01*
X283168Y339168D01*
X282632Y339526D01*
X282000Y339652D01*
D02*
G37*
G36*
X265900Y341452D02*
X265268Y341326D01*
X264732Y340968D01*
X264374Y340432D01*
X264248Y339800D01*
X264374Y339168D01*
X264732Y338632D01*
X265268Y338274D01*
X265900Y338148D01*
X266532Y338274D01*
X267068Y338632D01*
X267426Y339168D01*
X267552Y339800D01*
X267426Y340432D01*
X267068Y340968D01*
X266532Y341326D01*
X265900Y341452D01*
D02*
G37*
G36*
X236500Y341742D02*
Y340200D01*
X238042D01*
X237978Y340519D01*
X237514Y341214D01*
X236819Y341678D01*
X236500Y341742D01*
D02*
G37*
G36*
X315900Y342000D02*
X314358D01*
X314422Y341681D01*
X314886Y340986D01*
X315581Y340522D01*
X315900Y340458D01*
Y342000D01*
D02*
G37*
G36*
X258600Y341652D02*
X257968Y341526D01*
X257432Y341168D01*
X257074Y340632D01*
X256948Y340000D01*
X257074Y339368D01*
X257432Y338832D01*
X257968Y338474D01*
X258600Y338348D01*
X259232Y338474D01*
X259768Y338832D01*
X260126Y339368D01*
X260252Y340000D01*
X260126Y340632D01*
X259768Y341168D01*
X259232Y341526D01*
X258600Y341652D01*
D02*
G37*
G36*
X235500Y341742D02*
X235181Y341678D01*
X234486Y341214D01*
X234022Y340519D01*
X233958Y340200D01*
X235500D01*
Y341742D01*
D02*
G37*
G36*
X258500Y329152D02*
X257868Y329026D01*
X257332Y328668D01*
X256974Y328132D01*
X256848Y327500D01*
X256974Y326868D01*
X257332Y326332D01*
X257868Y325974D01*
X258500Y325848D01*
X259132Y325974D01*
X259668Y326332D01*
X260026Y326868D01*
X260152Y327500D01*
X260026Y328132D01*
X259668Y328668D01*
X259132Y329026D01*
X258500Y329152D01*
D02*
G37*
G36*
X251000Y329352D02*
X250368Y329226D01*
X249832Y328868D01*
X249474Y328332D01*
X249348Y327700D01*
X249474Y327068D01*
X249832Y326532D01*
X250368Y326174D01*
X251000Y326048D01*
X251632Y326174D01*
X252168Y326532D01*
X252526Y327068D01*
X252652Y327700D01*
X252526Y328332D01*
X252168Y328868D01*
X251632Y329226D01*
X251000Y329352D01*
D02*
G37*
G36*
X282100Y327242D02*
X281781Y327178D01*
X281086Y326714D01*
X280622Y326019D01*
X280558Y325700D01*
X282100D01*
Y327242D01*
D02*
G37*
G36*
X283100D02*
Y325700D01*
X284642D01*
X284578Y326019D01*
X284114Y326714D01*
X283419Y327178D01*
X283100Y327242D01*
D02*
G37*
G36*
X243200Y329952D02*
X242568Y329826D01*
X242032Y329468D01*
X241674Y328932D01*
X241548Y328300D01*
X241674Y327668D01*
X242032Y327132D01*
X242568Y326774D01*
X243200Y326648D01*
X243832Y326774D01*
X244368Y327132D01*
X244726Y327668D01*
X244852Y328300D01*
X244726Y328932D01*
X244368Y329468D01*
X243832Y329826D01*
X243200Y329952D01*
D02*
G37*
G36*
X251000Y335352D02*
X250368Y335226D01*
X249832Y334868D01*
X249474Y334332D01*
X249348Y333700D01*
X249474Y333068D01*
X249832Y332532D01*
X250368Y332174D01*
X251000Y332048D01*
X251632Y332174D01*
X252168Y332532D01*
X252526Y333068D01*
X252652Y333700D01*
X252526Y334332D01*
X252168Y334868D01*
X251632Y335226D01*
X251000Y335352D01*
D02*
G37*
G36*
X258700D02*
X258068Y335226D01*
X257532Y334868D01*
X257174Y334332D01*
X257048Y333700D01*
X257174Y333068D01*
X257532Y332532D01*
X258068Y332174D01*
X258700Y332048D01*
X259332Y332174D01*
X259868Y332532D01*
X260226Y333068D01*
X260352Y333700D01*
X260226Y334332D01*
X259868Y334868D01*
X259332Y335226D01*
X258700Y335352D01*
D02*
G37*
G36*
X298900Y334152D02*
X298268Y334026D01*
X297732Y333668D01*
X297374Y333132D01*
X297248Y332500D01*
X297374Y331868D01*
X297732Y331332D01*
X298268Y330974D01*
X298900Y330848D01*
X299532Y330974D01*
X300068Y331332D01*
X300426Y331868D01*
X300552Y332500D01*
X300426Y333132D01*
X300068Y333668D01*
X299532Y334026D01*
X298900Y334152D01*
D02*
G37*
G36*
X288400Y334952D02*
X287768Y334826D01*
X287232Y334468D01*
X286874Y333932D01*
X286748Y333300D01*
X286874Y332668D01*
X287232Y332132D01*
X287768Y331774D01*
X288400Y331648D01*
X289032Y331774D01*
X289568Y332132D01*
X289667Y332280D01*
X290167D01*
X290332Y332032D01*
X290868Y331674D01*
X291500Y331548D01*
X292132Y331674D01*
X292668Y332032D01*
X293026Y332568D01*
X293152Y333200D01*
X293026Y333832D01*
X292668Y334368D01*
X292132Y334726D01*
X291500Y334852D01*
X290868Y334726D01*
X290332Y334368D01*
X290233Y334220D01*
X289733D01*
X289568Y334468D01*
X289032Y334826D01*
X288400Y334952D01*
D02*
G37*
G36*
X297100Y357000D02*
X294136D01*
X294190Y356586D01*
X294543Y355735D01*
X295104Y355004D01*
X295835Y354443D01*
X296686Y354090D01*
X297100Y354036D01*
Y357000D01*
D02*
G37*
G36*
X301064D02*
X298100D01*
Y354036D01*
X298514Y354090D01*
X299365Y354443D01*
X300096Y355004D01*
X300657Y355735D01*
X301010Y356586D01*
X301064Y357000D01*
D02*
G37*
G36*
X260600Y353852D02*
X259968Y353726D01*
X259432Y353368D01*
X259074Y352832D01*
X258948Y352200D01*
X259074Y351568D01*
X259432Y351032D01*
X259968Y350674D01*
X260600Y350548D01*
X261232Y350674D01*
X261768Y351032D01*
X262126Y351568D01*
X262252Y352200D01*
X262126Y352832D01*
X261768Y353368D01*
X261232Y353726D01*
X260600Y353852D01*
D02*
G37*
G36*
X264800Y354252D02*
X264168Y354126D01*
X263632Y353768D01*
X263274Y353232D01*
X263148Y352600D01*
X263274Y351968D01*
X263632Y351432D01*
X264168Y351074D01*
X264800Y350948D01*
X265432Y351074D01*
X265968Y351432D01*
X266326Y351968D01*
X266452Y352600D01*
X266326Y353232D01*
X265968Y353768D01*
X265432Y354126D01*
X264800Y354252D01*
D02*
G37*
G36*
X283300Y357200D02*
X280336D01*
X280390Y356786D01*
X280743Y355935D01*
X281304Y355204D01*
X282035Y354643D01*
X282886Y354290D01*
X283300Y354236D01*
Y357200D01*
D02*
G37*
G36*
X298100Y360964D02*
Y358000D01*
X301064D01*
X301010Y358414D01*
X300657Y359265D01*
X300096Y359996D01*
X299365Y360557D01*
X298514Y360910D01*
X298100Y360964D01*
D02*
G37*
G36*
X283300Y361164D02*
X282886Y361110D01*
X282035Y360757D01*
X281304Y360196D01*
X280743Y359465D01*
X280390Y358614D01*
X280336Y358200D01*
X283300D01*
Y361164D01*
D02*
G37*
G36*
X287264Y357200D02*
X284300D01*
Y354236D01*
X284714Y354290D01*
X285565Y354643D01*
X286296Y355204D01*
X286857Y355935D01*
X287210Y356786D01*
X287264Y357200D01*
D02*
G37*
G36*
X297100Y360964D02*
X296686Y360910D01*
X295835Y360557D01*
X295104Y359996D01*
X294543Y359265D01*
X294190Y358414D01*
X294136Y358000D01*
X297100D01*
Y360964D01*
D02*
G37*
G36*
X278000Y345352D02*
X277368Y345226D01*
X276832Y344868D01*
X276474Y344332D01*
X276348Y343700D01*
X276450Y343186D01*
X276097Y342832D01*
X276000Y342852D01*
X275368Y342726D01*
X274832Y342368D01*
X274474Y341832D01*
X274348Y341200D01*
X274474Y340568D01*
X274832Y340032D01*
X275368Y339674D01*
X276000Y339548D01*
X276632Y339674D01*
X277168Y340032D01*
X277526Y340568D01*
X277652Y341200D01*
X277550Y341714D01*
X277903Y342068D01*
X278000Y342048D01*
X278632Y342174D01*
X279168Y342532D01*
X279526Y343068D01*
X279652Y343700D01*
X279526Y344332D01*
X279168Y344868D01*
X278632Y345226D01*
X278000Y345352D01*
D02*
G37*
G36*
X315900Y344542D02*
X315581Y344478D01*
X314886Y344014D01*
X314422Y343319D01*
X314358Y343000D01*
X315900D01*
Y344542D01*
D02*
G37*
G36*
X318442Y342000D02*
X316900D01*
Y340458D01*
X317219Y340522D01*
X317914Y340986D01*
X318378Y341681D01*
X318442Y342000D01*
D02*
G37*
G36*
X299500Y344252D02*
X298868Y344126D01*
X298332Y343768D01*
X297974Y343232D01*
X297848Y342600D01*
X297974Y341968D01*
X298332Y341432D01*
Y340968D01*
X298217Y340795D01*
X297717D01*
X297668Y340868D01*
X297132Y341226D01*
X296500Y341352D01*
X295868Y341226D01*
X295332Y340868D01*
X294974Y340332D01*
X294848Y339700D01*
X294974Y339068D01*
X295332Y338532D01*
X295868Y338174D01*
X296500Y338048D01*
X296500Y338048D01*
X296374Y337832D01*
D01*
X296374Y337832D01*
X296374Y337832D01*
X296248Y337200D01*
X296374Y336568D01*
X296732Y336032D01*
X297268Y335674D01*
X297900Y335548D01*
X298532Y335674D01*
X299068Y336032D01*
X299426Y336568D01*
X299552Y337200D01*
X299426Y337832D01*
X300068Y338261D01*
X300132Y338274D01*
X300668Y338632D01*
X301026Y339168D01*
X301152Y339800D01*
X301026Y340432D01*
X300668Y340968D01*
Y341432D01*
X301026Y341968D01*
X301152Y342600D01*
X301026Y343232D01*
X300668Y343768D01*
X300132Y344126D01*
X299500Y344252D01*
D02*
G37*
G36*
X316900Y344542D02*
Y343000D01*
X318442D01*
X318378Y343319D01*
X317914Y344014D01*
X317219Y344478D01*
X316900Y344542D01*
D02*
G37*
G36*
X309300Y358352D02*
X308668Y358226D01*
X308132Y357868D01*
X307774Y357332D01*
X307648Y356700D01*
X307774Y356068D01*
X308132Y355532D01*
X308305Y355417D01*
Y354917D01*
X308232Y354868D01*
X307874Y354332D01*
X307748Y353700D01*
X307874Y353068D01*
X308232Y352532D01*
X308355Y352450D01*
Y351950D01*
X308232Y351868D01*
X307874Y351332D01*
X307748Y350700D01*
X307874Y350068D01*
D01*
X307874D01*
Y350068D01*
X307874D01*
X307874D01*
X307755Y349803D01*
X307368Y349726D01*
X306832Y349368D01*
X306474Y348832D01*
X306399Y348456D01*
X305909Y348358D01*
X305568Y348868D01*
X305032Y349226D01*
X304400Y349352D01*
X303768Y349226D01*
X303232Y348868D01*
X302874Y348332D01*
X302748Y347700D01*
X302874Y347068D01*
X303232Y346532D01*
X303768Y346174D01*
X304400Y346048D01*
X305032Y346174D01*
X305568Y346532D01*
X305926Y347068D01*
X306001Y347445D01*
X306491Y347542D01*
X306832Y347032D01*
X307368Y346674D01*
X308000Y346548D01*
X308281Y346267D01*
X308248Y346100D01*
X308374Y345468D01*
X308732Y344932D01*
X308805Y344883D01*
Y344383D01*
X308632Y344268D01*
X308274Y343732D01*
X308148Y343100D01*
X308274Y342468D01*
X308632Y341932D01*
X309168Y341574D01*
X309800Y341448D01*
X310432Y341574D01*
X310968Y341932D01*
X311326Y342468D01*
X311452Y343100D01*
X311326Y343732D01*
X310968Y344268D01*
X310895Y344317D01*
Y344817D01*
X311068Y344932D01*
X311426Y345468D01*
X311552Y346100D01*
X311426Y346732D01*
X311068Y347268D01*
X310532Y347626D01*
X309900Y347752D01*
X309619Y348033D01*
X309652Y348200D01*
X309526Y348832D01*
X309526Y348832D01*
X309526Y348832D01*
D01*
X309400Y349048D01*
X309400Y349048D01*
X310032Y349174D01*
X310568Y349532D01*
X310926Y350068D01*
X311052Y350700D01*
X310926Y351332D01*
X310568Y351868D01*
X310445Y351950D01*
Y352450D01*
X310568Y352532D01*
X310926Y353068D01*
X311052Y353700D01*
X310926Y354332D01*
X310568Y354868D01*
X310395Y354983D01*
Y355483D01*
X310468Y355532D01*
X310826Y356068D01*
X310952Y356700D01*
X310826Y357332D01*
X310468Y357868D01*
X309932Y358226D01*
X309300Y358352D01*
D02*
G37*
G36*
X236000Y353552D02*
X235368Y353426D01*
X234832Y353068D01*
X234474Y352532D01*
X234348Y351900D01*
X234474Y351268D01*
X234832Y350732D01*
X235368Y350374D01*
X236000Y350248D01*
X236632Y350374D01*
X237168Y350732D01*
X237526Y351268D01*
X237652Y351900D01*
X237526Y352532D01*
X237168Y353068D01*
X236632Y353426D01*
X236000Y353552D01*
D02*
G37*
G36*
X243600Y347352D02*
X242968Y347226D01*
X242432Y346868D01*
X242074Y346332D01*
X241948Y345700D01*
X242074Y345068D01*
X242432Y344532D01*
X242968Y344174D01*
X243600Y344048D01*
X244232Y344174D01*
X244768Y344532D01*
X245126Y345068D01*
X245252Y345700D01*
X245126Y346332D01*
X244768Y346868D01*
X244232Y347226D01*
X243600Y347352D01*
D02*
G37*
G36*
X266000D02*
X265368Y347226D01*
X264832Y346868D01*
X264474Y346332D01*
X264348Y345700D01*
X264474Y345068D01*
X264832Y344532D01*
X265368Y344174D01*
X266000Y344048D01*
X266632Y344174D01*
X267168Y344532D01*
X267526Y345068D01*
X267652Y345700D01*
X267526Y346332D01*
X267168Y346868D01*
X266632Y347226D01*
X266000Y347352D01*
D02*
G37*
G36*
X290560Y307200D02*
X288100D01*
Y304740D01*
X288383Y304777D01*
X289113Y305080D01*
X289740Y305560D01*
X290220Y306187D01*
X290523Y306917D01*
X290560Y307200D01*
D02*
G37*
G36*
X243300Y309852D02*
X242668Y309726D01*
X242132Y309368D01*
X241774Y308832D01*
X241648Y308200D01*
X241774Y307568D01*
X242132Y307032D01*
X242668Y306674D01*
X243300Y306548D01*
X243932Y306674D01*
X244468Y307032D01*
X244826Y307568D01*
X244952Y308200D01*
X244826Y308832D01*
X244468Y309368D01*
X243932Y309726D01*
X243300Y309852D01*
D02*
G37*
G36*
X274800Y304452D02*
X274168Y304326D01*
X273632Y303968D01*
X273274Y303432D01*
X273258Y303351D01*
X272796Y303160D01*
X272319Y303478D01*
X272000Y303542D01*
Y301500D01*
Y299458D01*
X272319Y299522D01*
X273014Y299986D01*
X273478Y300681D01*
X273575Y301170D01*
X274037Y301361D01*
X274168Y301274D01*
X274316Y301244D01*
X274508Y300782D01*
X274474Y300732D01*
X274348Y300100D01*
X274474Y299468D01*
X274832Y298932D01*
X275368Y298574D01*
X276000Y298448D01*
X276632Y298574D01*
X277168Y298932D01*
X277526Y299468D01*
X277652Y300100D01*
X277526Y300732D01*
X277268Y301119D01*
X277277Y301129D01*
D01*
X277621Y301473D01*
X278068Y301174D01*
X278700Y301048D01*
X279332Y301174D01*
X279868Y301532D01*
X280226Y302068D01*
X280352Y302700D01*
X280226Y303332D01*
X279868Y303868D01*
X279332Y304226D01*
X278700Y304352D01*
X278068Y304226D01*
X277532Y303868D01*
X277174Y303332D01*
X277048Y302700D01*
X277174Y302068D01*
X277432Y301681D01*
X277423Y301671D01*
D01*
X277079Y301327D01*
X276632Y301626D01*
X276484Y301656D01*
X276292Y302117D01*
X276326Y302168D01*
X276452Y302800D01*
X276326Y303432D01*
X275968Y303968D01*
X275432Y304326D01*
X274800Y304452D01*
D02*
G37*
G36*
X287100Y307200D02*
X284640D01*
X284677Y306917D01*
X284980Y306187D01*
X285460Y305560D01*
X286087Y305080D01*
X286817Y304777D01*
X287100Y304740D01*
Y307200D01*
D02*
G37*
G36*
X234900Y310252D02*
X234268Y310126D01*
X233732Y309768D01*
X233374Y309232D01*
X233248Y308600D01*
X233374Y307968D01*
X233732Y307432D01*
X234268Y307074D01*
X234900Y306948D01*
X235532Y307074D01*
X236068Y307432D01*
X236426Y307968D01*
X236552Y308600D01*
X236426Y309232D01*
X236068Y309768D01*
X235532Y310126D01*
X234900Y310252D01*
D02*
G37*
G36*
X299000Y314252D02*
X298368Y314126D01*
X297832Y313768D01*
X297474Y313232D01*
X297348Y312600D01*
X297474Y311968D01*
X297832Y311432D01*
X298368Y311074D01*
X299000Y310948D01*
X299632Y311074D01*
X300168Y311432D01*
X300526Y311968D01*
X300652Y312600D01*
X300526Y313232D01*
X300168Y313768D01*
X299632Y314126D01*
X299000Y314252D01*
D02*
G37*
G36*
X292447Y312707D02*
X290905D01*
X290969Y312388D01*
X291433Y311693D01*
X292128Y311229D01*
X292447Y311165D01*
Y312707D01*
D02*
G37*
G36*
X287100Y310660D02*
X286817Y310623D01*
X286087Y310320D01*
X285460Y309840D01*
X284980Y309213D01*
X284677Y308483D01*
X284640Y308200D01*
X287100D01*
Y310660D01*
D02*
G37*
G36*
X288100D02*
Y308200D01*
X290560D01*
X290523Y308483D01*
X290220Y309213D01*
X289740Y309840D01*
X289113Y310320D01*
X288383Y310623D01*
X288100Y310660D01*
D02*
G37*
G36*
X322073Y298973D02*
X315127D01*
Y292027D01*
X322073D01*
Y298973D01*
D02*
G37*
G36*
X309100Y299421D02*
Y296000D01*
X312521D01*
X312451Y296532D01*
X312053Y297493D01*
X311419Y298319D01*
X310593Y298953D01*
X309632Y299351D01*
X309100Y299421D01*
D02*
G37*
G36*
X312521Y295000D02*
X309100D01*
Y291579D01*
X309632Y291649D01*
X310593Y292047D01*
X311419Y292681D01*
X312053Y293507D01*
X312451Y294468D01*
X312521Y295000D01*
D02*
G37*
G36*
X272700Y295052D02*
X272068Y294926D01*
X271532Y294568D01*
X271174Y294032D01*
X271048Y293400D01*
X271174Y292768D01*
X271532Y292232D01*
X272068Y291874D01*
X272700Y291748D01*
X273332Y291874D01*
X273868Y292232D01*
X274226Y292768D01*
X274352Y293400D01*
X274226Y294032D01*
X273868Y294568D01*
X273332Y294926D01*
X272700Y295052D01*
D02*
G37*
G36*
X247000Y300252D02*
X246368Y300126D01*
X245832Y299768D01*
X245474Y299232D01*
X245348Y298600D01*
X245474Y297968D01*
X245832Y297432D01*
X246368Y297074D01*
X247000Y296948D01*
X247632Y297074D01*
X248168Y297432D01*
X248526Y297968D01*
X248652Y298600D01*
X248526Y299232D01*
X248168Y299768D01*
X247632Y300126D01*
X247000Y300252D01*
D02*
G37*
G36*
X271000Y301000D02*
X269458D01*
X269522Y300681D01*
X269986Y299986D01*
X270681Y299522D01*
X271000Y299458D01*
Y301000D01*
D02*
G37*
G36*
X268200Y305152D02*
X267568Y305026D01*
X267032Y304668D01*
X266674Y304132D01*
X266548Y303500D01*
X266674Y302868D01*
X267032Y302332D01*
X267568Y301974D01*
X268200Y301848D01*
X268832Y301974D01*
X269005Y302090D01*
X269139Y302000D01*
X271000D01*
Y303542D01*
X270681Y303478D01*
X270263Y303199D01*
X269847Y303477D01*
X269852Y303500D01*
X269726Y304132D01*
X269368Y304668D01*
X268832Y305026D01*
X268200Y305152D01*
D02*
G37*
G36*
X260400Y303352D02*
X259768Y303226D01*
X259232Y302868D01*
X258874Y302332D01*
X258748Y301700D01*
X258874Y301068D01*
X259232Y300532D01*
X259380Y300433D01*
Y299933D01*
X259132Y299768D01*
X258774Y299232D01*
X258648Y298600D01*
X258774Y297968D01*
X259132Y297432D01*
X259668Y297074D01*
X260300Y296948D01*
X260932Y297074D01*
X261468Y297432D01*
X261826Y297968D01*
X261952Y298600D01*
X261826Y299232D01*
X261468Y299768D01*
X261320Y299867D01*
Y300367D01*
X261568Y300532D01*
X261926Y301068D01*
X262052Y301700D01*
X261926Y302332D01*
X261568Y302868D01*
X261032Y303226D01*
X260400Y303352D01*
D02*
G37*
G36*
X308100Y299421D02*
X307568Y299351D01*
X306607Y298953D01*
X305781Y298319D01*
X305235Y297608D01*
X304748Y297721D01*
X304726Y297832D01*
X304368Y298368D01*
X303832Y298726D01*
X303200Y298852D01*
X302568Y298726D01*
X302032Y298368D01*
X301674Y297832D01*
X301548Y297200D01*
X301674Y296568D01*
X302032Y296032D01*
X302568Y295674D01*
X303200Y295548D01*
X303832Y295674D01*
X304210Y295926D01*
X304634Y295662D01*
X304613Y295500D01*
X304749Y294468D01*
X305147Y293507D01*
X305781Y292681D01*
X306607Y292047D01*
X307568Y291649D01*
X308100Y291579D01*
Y295500D01*
Y299421D01*
D02*
G37*
G36*
X284000Y320552D02*
X283368Y320426D01*
X282832Y320068D01*
X282474Y319532D01*
X282348Y318900D01*
X282474Y318268D01*
X282832Y317732D01*
X283368Y317374D01*
X284000Y317248D01*
X284632Y317374D01*
X285168Y317732D01*
X285526Y318268D01*
X285652Y318900D01*
X285526Y319532D01*
X285168Y320068D01*
X284632Y320426D01*
X284000Y320552D01*
D02*
G37*
G36*
X313900Y322352D02*
X313268Y322226D01*
X312732Y321868D01*
X312374Y321332D01*
X312248Y320700D01*
X312374Y320068D01*
X312732Y319532D01*
X313268Y319174D01*
X313900Y319048D01*
X314532Y319174D01*
X315068Y319532D01*
X315426Y320068D01*
X315552Y320700D01*
X315426Y321332D01*
X315068Y321868D01*
X314532Y322226D01*
X313900Y322352D01*
D02*
G37*
G36*
X302900Y318442D02*
X302581Y318378D01*
X301886Y317914D01*
X301422Y317219D01*
X301358Y316900D01*
X302900D01*
Y318442D01*
D02*
G37*
G36*
X303900D02*
Y316900D01*
X305442D01*
X305378Y317219D01*
X304914Y317914D01*
X304219Y318378D01*
X303900Y318442D01*
D02*
G37*
G36*
X272900Y322952D02*
X272268Y322826D01*
X271732Y322468D01*
X271374Y321932D01*
X271248Y321300D01*
X271374Y320668D01*
X271732Y320132D01*
X272268Y319774D01*
X272900Y319648D01*
X273532Y319774D01*
X274068Y320132D01*
X274426Y320668D01*
X274552Y321300D01*
X274426Y321932D01*
X274068Y322468D01*
X273532Y322826D01*
X272900Y322952D01*
D02*
G37*
G36*
X282100Y324700D02*
X280558D01*
X280622Y324381D01*
X281086Y323686D01*
X281409Y323470D01*
X281217Y323008D01*
X281000Y323052D01*
X280368Y322926D01*
X279832Y322568D01*
X279474Y322032D01*
X279348Y321400D01*
X279474Y320768D01*
X279832Y320232D01*
X280368Y319874D01*
X281000Y319748D01*
X281632Y319874D01*
X282168Y320232D01*
X282526Y320768D01*
X282652Y321400D01*
X282526Y322032D01*
X282168Y322568D01*
X282004Y322677D01*
X282100Y322909D01*
Y324700D01*
D02*
G37*
G36*
X284642D02*
X283100D01*
Y323158D01*
X283419Y323222D01*
X284114Y323686D01*
X284578Y324381D01*
X284642Y324700D01*
D02*
G37*
G36*
X243500Y323152D02*
X242868Y323026D01*
X242332Y322668D01*
X241974Y322132D01*
X241848Y321500D01*
X241974Y320868D01*
X242332Y320332D01*
X242868Y319974D01*
X243500Y319848D01*
X244132Y319974D01*
X244668Y320332D01*
X245026Y320868D01*
X245152Y321500D01*
X245026Y322132D01*
X244668Y322668D01*
X244132Y323026D01*
X243500Y323152D01*
D02*
G37*
G36*
X251000Y323452D02*
X250368Y323326D01*
X249832Y322968D01*
X249474Y322432D01*
X249348Y321800D01*
X249474Y321168D01*
X249832Y320632D01*
X250368Y320274D01*
X251000Y320148D01*
X251632Y320274D01*
X252168Y320632D01*
X252526Y321168D01*
X252652Y321800D01*
X252526Y322432D01*
X252168Y322968D01*
X251632Y323326D01*
X251000Y323452D01*
D02*
G37*
G36*
X293447Y315249D02*
Y313707D01*
X294989D01*
X294925Y314026D01*
X294461Y314721D01*
X293767Y315185D01*
X293447Y315249D01*
D02*
G37*
G36*
X251000Y317452D02*
X250368Y317326D01*
X249832Y316968D01*
X249474Y316432D01*
X249348Y315800D01*
X249474Y315168D01*
X249832Y314632D01*
X250368Y314274D01*
X251000Y314148D01*
X251632Y314274D01*
X252168Y314632D01*
X252526Y315168D01*
X252652Y315800D01*
X252526Y316432D01*
X252168Y316968D01*
X251632Y317326D01*
X251000Y317452D01*
D02*
G37*
G36*
X294989Y312707D02*
X293447D01*
Y311165D01*
X293767Y311229D01*
X294461Y311693D01*
X294925Y312388D01*
X294989Y312707D01*
D02*
G37*
G36*
X292447Y315249D02*
X292128Y315185D01*
X291433Y314721D01*
X290969Y314026D01*
X290905Y313707D01*
X292447D01*
Y315249D01*
D02*
G37*
G36*
X280800Y317652D02*
X280168Y317526D01*
X279632Y317168D01*
X279274Y316632D01*
X279148Y316000D01*
X279274Y315368D01*
X279632Y314832D01*
X280168Y314474D01*
X280800Y314348D01*
X281432Y314474D01*
X281968Y314832D01*
X282326Y315368D01*
X282452Y316000D01*
X282326Y316632D01*
X281968Y317168D01*
X281432Y317526D01*
X280800Y317652D01*
D02*
G37*
G36*
X276400Y317852D02*
X275768Y317726D01*
X275232Y317368D01*
X274874Y316832D01*
X274748Y316200D01*
X274874Y315568D01*
X275232Y315032D01*
X275768Y314674D01*
X276400Y314548D01*
X277032Y314674D01*
X277568Y315032D01*
X277926Y315568D01*
X278052Y316200D01*
X277926Y316832D01*
X277568Y317368D01*
X277032Y317726D01*
X276400Y317852D01*
D02*
G37*
G36*
X258600Y318152D02*
X257968Y318026D01*
X257432Y317668D01*
X257074Y317132D01*
X256948Y316500D01*
X257074Y315868D01*
X257432Y315332D01*
X257968Y314974D01*
X258600Y314848D01*
X259232Y314974D01*
X259768Y315332D01*
X260126Y315868D01*
X260252Y316500D01*
X260126Y317132D01*
X259768Y317668D01*
X259232Y318026D01*
X258600Y318152D01*
D02*
G37*
G36*
X302900Y315900D02*
X301358D01*
X301422Y315581D01*
X301886Y314886D01*
X302581Y314422D01*
X302900Y314358D01*
Y315900D01*
D02*
G37*
G36*
X305442D02*
X303900D01*
Y314358D01*
X304219Y314422D01*
X304914Y314886D01*
X305378Y315581D01*
X305442Y315900D01*
D02*
G37*
G36*
X310300Y388042D02*
Y386500D01*
X311842D01*
X311778Y386819D01*
X311314Y387514D01*
X310619Y387978D01*
X310300Y388042D01*
D02*
G37*
G36*
X303000Y387252D02*
X302368Y387126D01*
X301832Y386768D01*
X301800Y386720D01*
X301300D01*
X301268Y386768D01*
X300732Y387126D01*
X300100Y387252D01*
X299468Y387126D01*
X298932Y386768D01*
X298574Y386232D01*
X298448Y385600D01*
X298574Y384968D01*
X298932Y384432D01*
X299468Y384074D01*
X300100Y383948D01*
X300732Y384074D01*
X301268Y384432D01*
X301300Y384480D01*
X301800D01*
X301832Y384432D01*
X302368Y384074D01*
X303000Y383948D01*
X303632Y384074D01*
X304168Y384432D01*
X304526Y384968D01*
X304652Y385600D01*
X304526Y386232D01*
X304168Y386768D01*
X303632Y387126D01*
X303000Y387252D01*
D02*
G37*
G36*
X273500Y387342D02*
Y385800D01*
X275042D01*
X274978Y386119D01*
X274514Y386814D01*
X273819Y387278D01*
X273500Y387342D01*
D02*
G37*
G36*
X309300Y388042D02*
X308981Y387978D01*
X308286Y387514D01*
X307822Y386819D01*
X307758Y386500D01*
X309300D01*
Y388042D01*
D02*
G37*
G36*
X235200Y392052D02*
X234568Y391926D01*
X234032Y391568D01*
X233674Y391032D01*
X233548Y390400D01*
X233674Y389768D01*
X234032Y389232D01*
X234568Y388874D01*
X235200Y388748D01*
X235402Y388788D01*
X235755Y388435D01*
X235748Y388400D01*
X235874Y387768D01*
X236232Y387232D01*
X236768Y386874D01*
X237400Y386748D01*
X238032Y386874D01*
X238568Y387232D01*
X238926Y387768D01*
X239052Y388400D01*
X238926Y389032D01*
X238568Y389568D01*
X238032Y389926D01*
X237400Y390052D01*
X237198Y390012D01*
X236845Y390365D01*
X236852Y390400D01*
X236726Y391032D01*
X236368Y391568D01*
X235832Y391926D01*
X235200Y392052D01*
D02*
G37*
G36*
X289300Y393408D02*
X288599Y393316D01*
X287946Y393046D01*
X287385Y392615D01*
X286954Y392054D01*
X286684Y391401D01*
X286592Y390700D01*
X286684Y389999D01*
X286954Y389346D01*
X287385Y388785D01*
X287946Y388354D01*
X288599Y388084D01*
X289300Y387991D01*
X289373Y388001D01*
X289637Y387577D01*
X289474Y387332D01*
X289409Y387007D01*
X288947Y386816D01*
X288932Y386826D01*
X288300Y386952D01*
X287668Y386826D01*
X287132Y386468D01*
X286774Y385932D01*
X286648Y385300D01*
X286774Y384668D01*
X287132Y384132D01*
X287668Y383774D01*
X288300Y383648D01*
X288932Y383774D01*
X289468Y384132D01*
X289826Y384668D01*
X289891Y384993D01*
X290353Y385184D01*
X290368Y385174D01*
X291000Y385048D01*
X291632Y385174D01*
X292168Y385532D01*
X292526Y386068D01*
X292652Y386700D01*
X292526Y387332D01*
X292168Y387868D01*
X291632Y388226D01*
X291317Y388289D01*
X291203Y388776D01*
X291215Y388785D01*
X291646Y389346D01*
X291851Y389843D01*
X292349Y389793D01*
X292374Y389668D01*
X292732Y389132D01*
X293268Y388774D01*
X293900Y388648D01*
X294532Y388774D01*
X295068Y389132D01*
X295426Y389668D01*
X295552Y390300D01*
X295426Y390932D01*
X295068Y391468D01*
X294532Y391826D01*
X293900Y391952D01*
X293268Y391826D01*
X292732Y391468D01*
X292438Y391027D01*
X291950Y391141D01*
X291916Y391401D01*
X291646Y392054D01*
X291215Y392615D01*
X290654Y393046D01*
X290001Y393316D01*
X289300Y393408D01*
D02*
G37*
G36*
X266000Y392552D02*
X265368Y392426D01*
X264832Y392068D01*
X264474Y391532D01*
X264348Y390900D01*
X264474Y390268D01*
X264832Y389732D01*
X265368Y389374D01*
X266000Y389248D01*
X266632Y389374D01*
X267168Y389732D01*
X267526Y390268D01*
X267652Y390900D01*
X267526Y391532D01*
X267168Y392068D01*
X266632Y392426D01*
X266000Y392552D01*
D02*
G37*
G36*
X244800Y391752D02*
X244168Y391626D01*
X243632Y391268D01*
X243274Y390732D01*
X243148Y390100D01*
X243274Y389468D01*
X243632Y388932D01*
X244168Y388574D01*
X244800Y388448D01*
X245432Y388574D01*
X245432Y388574D01*
X245432Y388574D01*
X245748Y388600D01*
X245748Y388600D01*
X245748D01*
X245874Y387968D01*
X246232Y387432D01*
X246768Y387074D01*
X247400Y386948D01*
X248032Y387074D01*
X248568Y387432D01*
X248926Y387968D01*
X249052Y388600D01*
X248926Y389232D01*
X248568Y389768D01*
X248032Y390126D01*
X247400Y390252D01*
X246768Y390126D01*
X246768Y390126D01*
X246768Y390126D01*
X246452Y390100D01*
D01*
X246326Y390732D01*
X245968Y391268D01*
X245432Y391626D01*
X244800Y391752D01*
D02*
G37*
G36*
X253000Y390552D02*
X252368Y390426D01*
X251832Y390068D01*
X251474Y389532D01*
X251348Y388900D01*
X251474Y388268D01*
X251832Y387732D01*
X252368Y387374D01*
X253000Y387248D01*
X253632Y387374D01*
X254168Y387732D01*
X254526Y388268D01*
X254652Y388900D01*
X254526Y389532D01*
X254168Y390068D01*
X253632Y390426D01*
X253000Y390552D01*
D02*
G37*
G36*
Y385352D02*
X252368Y385226D01*
X251832Y384868D01*
X251474Y384332D01*
X251348Y383700D01*
X251474Y383068D01*
X251832Y382532D01*
X252368Y382174D01*
X253000Y382048D01*
X253632Y382174D01*
X254168Y382532D01*
X254526Y383068D01*
X254652Y383700D01*
X254526Y384332D01*
X254168Y384868D01*
X253632Y385226D01*
X253000Y385352D01*
D02*
G37*
G36*
X272500Y384800D02*
X270958D01*
X271022Y384481D01*
X271486Y383786D01*
X272181Y383322D01*
X272500Y383258D01*
Y384800D01*
D02*
G37*
G36*
X308600Y383252D02*
X307968Y383126D01*
X307432Y382768D01*
X307074Y382232D01*
X306948Y381600D01*
X307074Y380968D01*
X307432Y380432D01*
X307968Y380074D01*
X308600Y379948D01*
X309232Y380074D01*
X309768Y380432D01*
X310126Y380968D01*
X310252Y381600D01*
X310126Y382232D01*
X309768Y382768D01*
X309232Y383126D01*
X308600Y383252D01*
D02*
G37*
G36*
X237300Y383852D02*
X236668Y383726D01*
X236132Y383368D01*
X235774Y382832D01*
X235648Y382200D01*
X235774Y381568D01*
X236132Y381032D01*
X236668Y380674D01*
X237300Y380548D01*
X237932Y380674D01*
X238468Y381032D01*
X238826Y381568D01*
X238952Y382200D01*
X238826Y382832D01*
X238468Y383368D01*
X237932Y383726D01*
X237300Y383852D01*
D02*
G37*
G36*
X275042Y384800D02*
X273500D01*
Y383258D01*
X273819Y383322D01*
X274514Y383786D01*
X274978Y384481D01*
X275042Y384800D01*
D02*
G37*
G36*
X282400Y390952D02*
X281768Y390826D01*
X281232Y390468D01*
X280874Y389932D01*
X280748Y389300D01*
X280874Y388668D01*
X281232Y388132D01*
X281280Y388100D01*
Y387600D01*
X281232Y387568D01*
X280874Y387032D01*
X280748Y386400D01*
X280874Y385768D01*
X281232Y385232D01*
X281768Y384874D01*
X282400Y384748D01*
X283032Y384874D01*
X283568Y385232D01*
X283926Y385768D01*
X284052Y386400D01*
X283926Y387032D01*
X283568Y387568D01*
X283520Y387600D01*
Y388100D01*
X283568Y388132D01*
X283926Y388668D01*
X284052Y389300D01*
X283926Y389932D01*
X283568Y390468D01*
X283032Y390826D01*
X282400Y390952D01*
D02*
G37*
G36*
X272500Y387342D02*
X272181Y387278D01*
X271486Y386814D01*
X271022Y386119D01*
X270958Y385800D01*
X272500D01*
Y387342D01*
D02*
G37*
G36*
X309300Y385500D02*
X307758D01*
X307822Y385181D01*
X308286Y384486D01*
X308981Y384022D01*
X309300Y383958D01*
Y385500D01*
D02*
G37*
G36*
X311842D02*
X310300D01*
Y383958D01*
X310619Y384022D01*
X311314Y384486D01*
X311778Y385181D01*
X311842Y385500D01*
D02*
G37*
G36*
X263800Y406952D02*
X263168Y406826D01*
X262632Y406468D01*
X262274Y405932D01*
X262148Y405300D01*
X262274Y404668D01*
X262632Y404132D01*
X263168Y403774D01*
X263800Y403648D01*
X264432Y403774D01*
X264968Y404132D01*
X265326Y404668D01*
X265452Y405300D01*
X265326Y405932D01*
X264968Y406468D01*
X264432Y406826D01*
X263800Y406952D01*
D02*
G37*
G36*
X243800Y407342D02*
X243481Y407278D01*
X242786Y406814D01*
X242322Y406119D01*
X242258Y405800D01*
X243800D01*
Y407342D01*
D02*
G37*
G36*
X246342Y404800D02*
X244800D01*
Y403258D01*
X245119Y403322D01*
X245814Y403786D01*
X246278Y404481D01*
X246342Y404800D01*
D02*
G37*
G36*
X257700Y406752D02*
X257068Y406626D01*
X256532Y406268D01*
X256174Y405732D01*
X256048Y405100D01*
X256174Y404468D01*
X256532Y403932D01*
X257068Y403574D01*
X257700Y403448D01*
X258332Y403574D01*
X258868Y403932D01*
X259226Y404468D01*
X259352Y405100D01*
X259226Y405732D01*
X258868Y406268D01*
X258332Y406626D01*
X257700Y406752D01*
D02*
G37*
G36*
X244800Y407342D02*
Y405800D01*
X246342D01*
X246278Y406119D01*
X245814Y406814D01*
X245119Y407278D01*
X244800Y407342D01*
D02*
G37*
G36*
X284946Y413409D02*
X284245Y413316D01*
X283591Y413046D01*
X283031Y412615D01*
X282600Y412054D01*
X282362Y411480D01*
X281884Y411335D01*
X281819Y411378D01*
X281500Y411442D01*
Y409400D01*
Y407358D01*
X281819Y407422D01*
X282514Y407886D01*
X282883Y408438D01*
X283327Y408511D01*
X283408Y408495D01*
X283591Y408354D01*
X284245Y408084D01*
X284946Y407992D01*
X285647Y408084D01*
X286300Y408354D01*
X286861Y408785D01*
X287291Y409346D01*
X287562Y409999D01*
X287654Y410700D01*
X287562Y411401D01*
X287291Y412054D01*
X286861Y412615D01*
X286300Y413046D01*
X285647Y413316D01*
X284946Y413409D01*
D02*
G37*
G36*
X272600Y416952D02*
X271968Y416826D01*
X271432Y416468D01*
X271074Y415932D01*
X270948Y415300D01*
X271074Y414668D01*
X271432Y414132D01*
X271968Y413774D01*
X272600Y413648D01*
X273232Y413774D01*
X273768Y414132D01*
X274126Y414668D01*
X274252Y415300D01*
X274126Y415932D01*
X273768Y416468D01*
X273232Y416826D01*
X272600Y416952D01*
D02*
G37*
G36*
X280500Y408900D02*
X278958D01*
X279022Y408581D01*
X279486Y407886D01*
X280181Y407422D01*
X280500Y407358D01*
Y408900D01*
D02*
G37*
G36*
Y411442D02*
X280181Y411378D01*
X279486Y410914D01*
X279022Y410219D01*
X278958Y409900D01*
X280500D01*
Y411442D01*
D02*
G37*
G36*
X237600Y399852D02*
X236968Y399726D01*
X236432Y399368D01*
X236074Y398832D01*
X235948Y398200D01*
X236074Y397568D01*
X236432Y397032D01*
X236968Y396674D01*
X237600Y396548D01*
X238232Y396674D01*
X238768Y397032D01*
X238939Y397288D01*
X239430Y397191D01*
X239474Y396968D01*
X239832Y396432D01*
X240368Y396074D01*
X241000Y395948D01*
X241632Y396074D01*
X242168Y396432D01*
X242526Y396968D01*
X242652Y397600D01*
X242526Y398232D01*
X242168Y398768D01*
X241632Y399126D01*
X241000Y399252D01*
X240368Y399126D01*
X239832Y398768D01*
X239661Y398512D01*
X239170Y398609D01*
X239126Y398832D01*
X238768Y399368D01*
X238232Y399726D01*
X237600Y399852D01*
D02*
G37*
G36*
X250900Y400552D02*
X250268Y400426D01*
X249732Y400068D01*
X249374Y399532D01*
X249248Y398900D01*
X249374Y398268D01*
X249732Y397732D01*
X250268Y397374D01*
X250900Y397248D01*
X251532Y397374D01*
X252068Y397732D01*
X252426Y398268D01*
X252552Y398900D01*
X252426Y399532D01*
X252068Y400068D01*
X251532Y400426D01*
X250900Y400552D01*
D02*
G37*
G36*
X256900Y398252D02*
X256268Y398126D01*
X255732Y397768D01*
X255374Y397232D01*
X255248Y396600D01*
X255374Y395968D01*
X255732Y395432D01*
X256268Y395074D01*
X256900Y394948D01*
X257532Y395074D01*
X258068Y395432D01*
X258426Y395968D01*
X258552Y396600D01*
X258426Y397232D01*
X258068Y397768D01*
X257532Y398126D01*
X256900Y398252D01*
D02*
G37*
G36*
X281100Y399052D02*
X280468Y398926D01*
X279932Y398568D01*
X279574Y398032D01*
X279448Y397400D01*
X279574Y396768D01*
X279932Y396232D01*
X280468Y395874D01*
X281100Y395748D01*
X281732Y395874D01*
X282268Y396232D01*
X282626Y396768D01*
X282752Y397400D01*
X282626Y398032D01*
X282268Y398568D01*
X281732Y398926D01*
X281100Y399052D01*
D02*
G37*
G36*
X270200Y400752D02*
X269568Y400626D01*
X269032Y400268D01*
X268674Y399732D01*
X268548Y399100D01*
X268674Y398468D01*
X269032Y397932D01*
X269568Y397574D01*
X270200Y397448D01*
X270832Y397574D01*
X271368Y397932D01*
X271726Y398468D01*
X271852Y399100D01*
X271726Y399732D01*
X271368Y400268D01*
X270832Y400626D01*
X270200Y400752D01*
D02*
G37*
G36*
X251300Y406552D02*
X250668Y406426D01*
X250132Y406068D01*
X249774Y405532D01*
X249648Y404900D01*
X249774Y404268D01*
X250132Y403732D01*
X250668Y403374D01*
X251300Y403248D01*
X251932Y403374D01*
X252468Y403732D01*
X252826Y404268D01*
X252952Y404900D01*
X252826Y405532D01*
X252468Y406068D01*
X251932Y406426D01*
X251300Y406552D01*
D02*
G37*
G36*
X243800Y404800D02*
X242258D01*
X242322Y404481D01*
X242786Y403786D01*
X243481Y403322D01*
X243800Y403258D01*
Y404800D01*
D02*
G37*
G36*
X298900Y402852D02*
X298268Y402726D01*
X297732Y402368D01*
X297374Y401832D01*
X297248Y401200D01*
X296900Y400852D01*
X296268Y400726D01*
X295732Y400368D01*
X295374Y399832D01*
X295248Y399200D01*
X295374Y398568D01*
X295732Y398032D01*
X296268Y397674D01*
X296900Y397548D01*
X297532Y397674D01*
X298068Y398032D01*
X298426Y398568D01*
X298552Y399200D01*
X298900Y399548D01*
X299532Y399674D01*
X300068Y400032D01*
X300426Y400568D01*
X300552Y401200D01*
X300426Y401832D01*
X300068Y402368D01*
X299532Y402726D01*
X298900Y402852D01*
D02*
G37*
G36*
X284500Y404052D02*
X283868Y403926D01*
X283332Y403568D01*
X282974Y403032D01*
X282848Y402400D01*
X282974Y401768D01*
X283332Y401232D01*
X283868Y400874D01*
X284500Y400748D01*
X285132Y400874D01*
X285668Y401232D01*
X286026Y401768D01*
X286152Y402400D01*
X286026Y403032D01*
X285668Y403568D01*
X285132Y403926D01*
X284500Y404052D01*
D02*
G37*
G36*
X291700Y368164D02*
Y365200D01*
X294664D01*
X294610Y365614D01*
X294257Y366465D01*
X293696Y367196D01*
X292965Y367757D01*
X292114Y368110D01*
X291700Y368164D01*
D02*
G37*
G36*
X319100Y367800D02*
X317558D01*
X317622Y367481D01*
X318086Y366786D01*
X318781Y366322D01*
X319100Y366258D01*
Y367800D01*
D02*
G37*
G36*
X268000Y368152D02*
X267368Y368026D01*
X266832Y367668D01*
X266474Y367132D01*
X266348Y366500D01*
X266474Y365868D01*
X266832Y365332D01*
X267368Y364974D01*
X268000Y364848D01*
X268632Y364974D01*
X269168Y365332D01*
X269526Y365868D01*
X269652Y366500D01*
X269526Y367132D01*
X269168Y367668D01*
X268632Y368026D01*
X268000Y368152D01*
D02*
G37*
G36*
X290700Y368164D02*
X290286Y368110D01*
X289435Y367757D01*
X288704Y367196D01*
X288143Y366465D01*
X287790Y365614D01*
X287736Y365200D01*
X290700D01*
Y368164D01*
D02*
G37*
G36*
X321642Y367800D02*
X320100D01*
Y366258D01*
X320419Y366322D01*
X321114Y366786D01*
X321578Y367481D01*
X321642Y367800D01*
D02*
G37*
G36*
X242100Y370652D02*
X241468Y370526D01*
X240932Y370168D01*
X240574Y369632D01*
X240448Y369000D01*
X240574Y368368D01*
X240932Y367832D01*
X241468Y367474D01*
X242100Y367348D01*
X242732Y367474D01*
X243268Y367832D01*
X243626Y368368D01*
X243752Y369000D01*
X243626Y369632D01*
X243268Y370168D01*
X242732Y370526D01*
X242100Y370652D01*
D02*
G37*
G36*
X235900Y370752D02*
X235268Y370626D01*
X234732Y370268D01*
X234374Y369732D01*
X234248Y369100D01*
X234374Y368468D01*
X234732Y367932D01*
X235268Y367574D01*
X235900Y367448D01*
X236532Y367574D01*
X237068Y367932D01*
X237426Y368468D01*
X237552Y369100D01*
X237426Y369732D01*
X237068Y370268D01*
X236532Y370626D01*
X235900Y370752D01*
D02*
G37*
G36*
X247700Y368400D02*
X246158D01*
X246222Y368081D01*
X246686Y367386D01*
X247381Y366922D01*
X247700Y366858D01*
Y368400D01*
D02*
G37*
G36*
X250242D02*
X248700D01*
Y366858D01*
X249019Y366922D01*
X249714Y367386D01*
X250178Y368081D01*
X250242Y368400D01*
D02*
G37*
G36*
X234900Y363852D02*
X234268Y363726D01*
X233732Y363368D01*
X233374Y362832D01*
X233248Y362200D01*
X233374Y361568D01*
X233732Y361032D01*
X234268Y360674D01*
X234900Y360548D01*
X235532Y360674D01*
X236068Y361032D01*
X236426Y361568D01*
X236552Y362200D01*
X236426Y362832D01*
X236068Y363368D01*
X235532Y363726D01*
X234900Y363852D01*
D02*
G37*
G36*
X310100Y366452D02*
X309468Y366326D01*
X308932Y365968D01*
X308574Y365432D01*
X308448Y364800D01*
X308574Y364168D01*
X308932Y363632D01*
X309468Y363274D01*
X310100Y363148D01*
X310176Y363163D01*
X310530Y362810D01*
X310448Y362400D01*
X310574Y361768D01*
X310932Y361232D01*
X311468Y360874D01*
X312100Y360748D01*
X312732Y360874D01*
X313268Y361232D01*
X313626Y361768D01*
X313752Y362400D01*
X313626Y363032D01*
X313268Y363568D01*
X312732Y363926D01*
X312100Y364052D01*
X312024Y364037D01*
X311670Y364390D01*
X311752Y364800D01*
X311626Y365432D01*
X311268Y365968D01*
X310732Y366326D01*
X310100Y366452D01*
D02*
G37*
G36*
X284300Y361164D02*
Y358200D01*
X287264D01*
X287210Y358614D01*
X286857Y359465D01*
X286296Y360196D01*
X285565Y360757D01*
X284714Y361110D01*
X284300Y361164D01*
D02*
G37*
G36*
X319200Y362952D02*
X318568Y362826D01*
X318032Y362468D01*
X317674Y361932D01*
X317548Y361300D01*
X317674Y360668D01*
X318032Y360132D01*
X318568Y359774D01*
X319200Y359648D01*
X319832Y359774D01*
X320368Y360132D01*
X320726Y360668D01*
X320852Y361300D01*
X320726Y361932D01*
X320368Y362468D01*
X319832Y362826D01*
X319200Y362952D01*
D02*
G37*
G36*
X290700Y364200D02*
X287736D01*
X287790Y363786D01*
X288143Y362935D01*
X288704Y362204D01*
X289435Y361643D01*
X290286Y361290D01*
X290700Y361236D01*
Y364200D01*
D02*
G37*
G36*
X252000Y363752D02*
X251368Y363626D01*
X250832Y363268D01*
X250550Y362846D01*
X250050D01*
X249768Y363268D01*
X249232Y363626D01*
X248600Y363752D01*
X247968Y363626D01*
X247432Y363268D01*
X247074Y362732D01*
X246948Y362100D01*
X247074Y361468D01*
X247432Y360932D01*
X247968Y360574D01*
X248600Y360448D01*
X249232Y360574D01*
X249768Y360932D01*
X250050Y361354D01*
X250550D01*
X250832Y360932D01*
X251368Y360574D01*
X252000Y360448D01*
X252632Y360574D01*
X253168Y360932D01*
X253526Y361468D01*
X253652Y362100D01*
X253526Y362732D01*
X253168Y363268D01*
X252632Y363626D01*
X252000Y363752D01*
D02*
G37*
G36*
X263700Y365352D02*
X263068Y365226D01*
X262532Y364868D01*
X262367Y364620D01*
X261867D01*
X261768Y364768D01*
X261232Y365126D01*
X260600Y365252D01*
X259968Y365126D01*
X259432Y364768D01*
X259074Y364232D01*
X258948Y363600D01*
X259074Y362968D01*
X259432Y362432D01*
X259968Y362074D01*
X260600Y361948D01*
X261232Y362074D01*
X261768Y362432D01*
X261933Y362680D01*
X262433D01*
X262532Y362532D01*
X263068Y362174D01*
X263700Y362048D01*
X264332Y362174D01*
X264868Y362532D01*
X265226Y363068D01*
X265352Y363700D01*
X265226Y364332D01*
X264868Y364868D01*
X264332Y365226D01*
X263700Y365352D01*
D02*
G37*
G36*
X294664Y364200D02*
X291700D01*
Y361236D01*
X292114Y361290D01*
X292965Y361643D01*
X293696Y362204D01*
X294257Y362935D01*
X294610Y363786D01*
X294664Y364200D01*
D02*
G37*
G36*
X270300Y365052D02*
X269668Y364926D01*
X269132Y364568D01*
X268774Y364032D01*
X268648Y363400D01*
X268774Y362768D01*
X269132Y362232D01*
X269668Y361874D01*
X270300Y361748D01*
X270932Y361874D01*
X271468Y362232D01*
X271826Y362768D01*
X271952Y363400D01*
X271826Y364032D01*
X271468Y364568D01*
X270932Y364926D01*
X270300Y365052D01*
D02*
G37*
G36*
X236100Y376852D02*
X235468Y376726D01*
X234932Y376368D01*
X234574Y375832D01*
X234448Y375200D01*
X234574Y374568D01*
X234932Y374032D01*
X235468Y373674D01*
X236100Y373548D01*
X236732Y373674D01*
X237268Y374032D01*
X237626Y374568D01*
X237752Y375200D01*
X237626Y375832D01*
X237268Y376368D01*
X236732Y376726D01*
X236100Y376852D01*
D02*
G37*
G36*
X270900Y374252D02*
X270268Y374126D01*
X269732Y373768D01*
X269665Y373668D01*
X269168D01*
X268632Y374026D01*
X268000Y374152D01*
X267368Y374026D01*
X266832Y373668D01*
X266474Y373132D01*
X266348Y372500D01*
X266348Y372500D01*
X266348Y372500D01*
X266232Y372126D01*
X265600Y372252D01*
X264968Y372126D01*
X264432Y371768D01*
X264074Y371232D01*
X263948Y370600D01*
X264074Y369968D01*
X264432Y369432D01*
X264968Y369074D01*
X265600Y368948D01*
X266232Y369074D01*
X266768Y369432D01*
X267126Y369968D01*
X267252Y370600D01*
X267252Y370600D01*
X267252Y370600D01*
X267368Y370974D01*
D01*
X267368Y370974D01*
X268000Y370848D01*
X268632Y370974D01*
X269168Y371332D01*
X269235Y371432D01*
X269732D01*
X270268Y371074D01*
X270900Y370948D01*
X271532Y371074D01*
X272068Y371432D01*
X272426Y371968D01*
X272552Y372600D01*
X272426Y373232D01*
X272068Y373768D01*
X271532Y374126D01*
X270900Y374252D01*
D02*
G37*
G36*
X297900Y376164D02*
X297486Y376110D01*
X296635Y375757D01*
X295904Y375196D01*
X295343Y374465D01*
X294990Y373614D01*
X294936Y373200D01*
X297900D01*
Y376164D01*
D02*
G37*
G36*
X298900D02*
Y373200D01*
X301864D01*
X301810Y373614D01*
X301457Y374465D01*
X300896Y375196D01*
X300165Y375757D01*
X299314Y376110D01*
X298900Y376164D01*
D02*
G37*
G36*
X263200Y377052D02*
X262568Y376926D01*
X262032Y376568D01*
X261674Y376032D01*
X261548Y375400D01*
X261674Y374768D01*
X262032Y374232D01*
X262568Y373874D01*
X263200Y373748D01*
X263832Y373874D01*
X264368Y374232D01*
X264726Y374768D01*
X264852Y375400D01*
X264726Y376032D01*
X264368Y376568D01*
X263832Y376926D01*
X263200Y377052D01*
D02*
G37*
G36*
X260000Y380352D02*
X259368Y380226D01*
X258832Y379868D01*
X258474Y379332D01*
X258348Y378700D01*
X258474Y378068D01*
X258832Y377532D01*
X259368Y377174D01*
X260000Y377048D01*
X260632Y377174D01*
X261168Y377532D01*
X261526Y378068D01*
X261652Y378700D01*
X261526Y379332D01*
X261168Y379868D01*
X260632Y380226D01*
X260000Y380352D01*
D02*
G37*
G36*
X246300Y383252D02*
X245668Y383126D01*
X245132Y382768D01*
X244774Y382232D01*
X244648Y381600D01*
X244774Y380968D01*
X245132Y380432D01*
X245668Y380074D01*
X246300Y379948D01*
X246932Y380074D01*
X247468Y380432D01*
X247826Y380968D01*
X247952Y381600D01*
X247826Y382232D01*
X247468Y382768D01*
X246932Y383126D01*
X246300Y383252D01*
D02*
G37*
G36*
X283100Y376864D02*
X282686Y376810D01*
X281835Y376457D01*
X281104Y375896D01*
X280543Y375165D01*
X280190Y374314D01*
X280136Y373900D01*
X283100D01*
Y376864D01*
D02*
G37*
G36*
X284100D02*
Y373900D01*
X287064D01*
X287010Y374314D01*
X286657Y375165D01*
X286096Y375896D01*
X285365Y376457D01*
X284514Y376810D01*
X284100Y376864D01*
D02*
G37*
G36*
X297900Y372200D02*
X294936D01*
X294990Y371786D01*
X295343Y370935D01*
X295904Y370204D01*
X296635Y369643D01*
X297486Y369290D01*
X297900Y369236D01*
Y372200D01*
D02*
G37*
G36*
X301864D02*
X298900D01*
Y369236D01*
X299314Y369290D01*
X300165Y369643D01*
X300896Y370204D01*
X301457Y370935D01*
X301810Y371786D01*
X301864Y372200D01*
D02*
G37*
G36*
X319100Y370342D02*
X318781Y370278D01*
X318086Y369814D01*
X317622Y369119D01*
X317558Y368800D01*
X319100D01*
Y370342D01*
D02*
G37*
G36*
X320100D02*
Y368800D01*
X321642D01*
X321578Y369119D01*
X321114Y369814D01*
X320419Y370278D01*
X320100Y370342D01*
D02*
G37*
G36*
X247700Y370942D02*
X247381Y370878D01*
X246686Y370414D01*
X246222Y369719D01*
X246158Y369400D01*
X247700D01*
Y370942D01*
D02*
G37*
G36*
X287064Y372900D02*
X284100D01*
Y369936D01*
X284514Y369990D01*
X285365Y370343D01*
X286096Y370904D01*
X286657Y371635D01*
X287010Y372486D01*
X287064Y372900D01*
D02*
G37*
G36*
X308400Y376252D02*
X307768Y376126D01*
X307232Y375768D01*
X306874Y375232D01*
X306748Y374600D01*
X306874Y373968D01*
X307232Y373432D01*
X307768Y373074D01*
X308400Y372948D01*
X309032Y373074D01*
X309568Y373432D01*
X309926Y373968D01*
X310052Y374600D01*
X309926Y375232D01*
X309568Y375768D01*
X309032Y376126D01*
X308400Y376252D01*
D02*
G37*
G36*
X248700Y370942D02*
Y369400D01*
X250242D01*
X250178Y369719D01*
X249714Y370414D01*
X249019Y370878D01*
X248700Y370942D01*
D02*
G37*
G36*
X283100Y372900D02*
X280136D01*
X280190Y372486D01*
X280543Y371635D01*
X281104Y370904D01*
X281835Y370343D01*
X282686Y369990D01*
X283100Y369936D01*
Y372900D01*
D02*
G37*
%LPD*%
D37*
X326400Y288000D02*
Y431500D01*
X228000Y288000D02*
X326400D01*
X228000Y431500D02*
X326400D01*
X228000Y288000D02*
Y431500D01*
D42*
X308600Y295500D02*
D03*
D44*
X316400Y342500D02*
D03*
X309800Y386000D02*
D03*
X319600Y368300D02*
D03*
X244300Y405300D02*
D03*
X271500Y301500D02*
D03*
X281000Y409400D02*
D03*
X273000Y385300D02*
D03*
X248200Y368900D02*
D03*
X236000Y339700D02*
D03*
X292947Y313207D02*
D03*
X282600Y325200D02*
D03*
X303400Y316400D02*
D03*
D46*
X283800Y357700D02*
D03*
X283600Y373400D02*
D03*
X298400Y372700D02*
D03*
X297600Y357500D02*
D03*
X291200Y364700D02*
D03*
D47*
X287600Y307700D02*
D03*
M02*
