%FSLAX25Y25*%
%MOIN*%
G70*
G01*
G75*
G04 Layer_Color=65535*
%ADD10R,0.03937X0.03740*%
%ADD11R,0.25984X0.25984*%
%ADD12O,0.00945X0.02362*%
%ADD13O,0.02362X0.00945*%
%ADD14R,0.02165X0.02362*%
%ADD15R,0.02362X0.02165*%
%ADD16R,0.03740X0.03937*%
%ADD17C,0.00984*%
%ADD18R,0.01772X0.05433*%
%ADD19R,0.09350X0.07480*%
%ADD20R,0.04606X0.07480*%
%ADD21R,0.05807X0.08268*%
%ADD22R,0.03150X0.00984*%
%ADD23R,0.00984X0.03150*%
%ADD24R,0.03937X0.02165*%
%ADD25R,0.04134X0.02362*%
%ADD26R,0.06693X0.06693*%
%ADD27O,0.03347X0.01102*%
%ADD28O,0.01102X0.03347*%
%ADD29R,0.03150X0.03740*%
%ADD30R,0.06299X0.07087*%
%ADD31R,0.01378X0.03937*%
%ADD32R,0.06299X0.03150*%
%ADD33C,0.01200*%
%ADD34C,0.00800*%
%ADD35C,0.01500*%
%ADD36C,0.02000*%
%ADD37C,0.01000*%
%ADD38C,0.01826*%
%ADD39R,0.04000X0.04100*%
%ADD40R,0.01300X0.04400*%
%ADD41R,0.04000X0.04200*%
%ADD42C,0.05906*%
%ADD43R,0.05906X0.05906*%
%ADD44C,0.02200*%
%ADD45C,0.04331*%
%ADD46C,0.05000*%
%ADD47C,0.04000*%
%ADD48R,0.06728X0.02402*%
%ADD49C,0.03098*%
%ADD50R,0.02362X0.03937*%
%ADD51R,0.03937X0.02362*%
%ADD52R,0.07500X0.05500*%
%ADD53R,0.07100X0.05500*%
%ADD54R,0.05500X0.07500*%
%ADD55R,0.03200X0.05900*%
%ADD56R,0.04724X0.04331*%
%ADD57R,0.05906X0.03150*%
%ADD58R,0.02402X0.06728*%
%ADD59C,0.01800*%
%ADD60C,0.01181*%
%ADD61C,0.01969*%
%ADD62R,0.02362X0.02362*%
%ADD63C,0.00394*%
%ADD64C,0.00591*%
%ADD65C,0.00787*%
%ADD66C,0.00315*%
%ADD67C,0.00400*%
%ADD68C,0.00600*%
%ADD69C,0.00700*%
D37*
X228964Y308583D02*
X262822D01*
X262964Y289052D02*
Y308540D01*
X228822Y289052D02*
Y308540D01*
Y289052D02*
X262964D01*
D60*
X273100Y378595D02*
D03*
X276413Y324362D02*
D03*
X244400Y380800D02*
D03*
X235013Y398062D02*
D03*
X296261Y304747D02*
D03*
D61*
X316059Y373457D02*
D03*
D62*
X321100Y418300D02*
D03*
D63*
X307773Y307259D02*
X310600D01*
X307773Y302141D02*
Y307259D01*
Y302141D02*
X310600D01*
X316600Y307259D02*
X319427D01*
Y302141D02*
Y307259D01*
X316600Y302141D02*
X319427D01*
X300773Y392159D02*
X303600D01*
X300773Y387041D02*
Y392159D01*
Y387041D02*
X303600D01*
X309600Y392159D02*
X312427D01*
Y387041D02*
Y392159D01*
X309600Y387041D02*
X312427D01*
X307773Y313259D02*
X310600D01*
X307773Y308141D02*
Y313259D01*
Y308141D02*
X310600D01*
X316600Y313259D02*
X319427D01*
Y308141D02*
Y313259D01*
X316600Y308141D02*
X319427D01*
X230173Y314959D02*
X233000D01*
X230173Y309841D02*
Y314959D01*
Y309841D02*
X233000D01*
X239000Y314959D02*
X241827D01*
Y309841D02*
Y314959D01*
X239000Y309841D02*
X241827D01*
X260173Y390359D02*
X263000D01*
X260173Y385241D02*
Y390359D01*
Y385241D02*
X263000D01*
X269000Y390359D02*
X271827D01*
Y385241D02*
Y390359D01*
X269000Y385241D02*
X271827D01*
X274841Y326973D02*
Y329800D01*
Y326973D02*
X279959D01*
Y329800D01*
X274841Y335800D02*
Y338627D01*
X279959D01*
Y335800D02*
Y338627D01*
X307841Y329673D02*
Y332500D01*
Y329673D02*
X312959D01*
Y332500D01*
X307841Y338500D02*
Y341327D01*
X312959D01*
Y338500D02*
Y341327D01*
X301741Y329673D02*
Y332500D01*
Y329673D02*
X306859D01*
Y332500D01*
X301741Y338500D02*
Y341327D01*
X306859D01*
Y338500D02*
Y341327D01*
X241659Y372000D02*
Y374827D01*
X236541D02*
X241659D01*
X236541Y372000D02*
Y374827D01*
X241659Y363173D02*
Y366000D01*
X236541Y363173D02*
X241659D01*
X236541D02*
Y366000D01*
X253859Y372000D02*
Y374827D01*
X248741D02*
X253859D01*
X248741Y372000D02*
Y374827D01*
X253859Y363173D02*
Y366000D01*
X248741Y363173D02*
X253859D01*
X248741D02*
Y366000D01*
X244941Y399373D02*
Y402200D01*
Y399373D02*
X250059D01*
Y402200D01*
X244941Y408200D02*
Y411027D01*
X250059D01*
Y408200D02*
Y411027D01*
X269559Y408300D02*
Y411127D01*
X264441D02*
X269559D01*
X264441Y408300D02*
Y411127D01*
X269559Y399473D02*
Y402300D01*
X264441Y399473D02*
X269559D01*
X264441D02*
Y402300D01*
X231941Y399373D02*
Y402200D01*
Y399373D02*
X237059D01*
Y402200D01*
X231941Y408200D02*
Y411027D01*
X237059D01*
Y408200D02*
Y411027D01*
X276059Y408300D02*
Y411127D01*
X270941D02*
X276059D01*
X270941Y408300D02*
Y411127D01*
X276059Y399473D02*
Y402300D01*
X270941Y399473D02*
X276059D01*
X270941D02*
Y402300D01*
X251441Y399373D02*
Y402200D01*
Y399373D02*
X256559D01*
Y402200D01*
X251441Y408200D02*
Y411027D01*
X256559D01*
Y408200D02*
Y411027D01*
X257941Y399473D02*
Y402300D01*
Y399473D02*
X263059D01*
Y402300D01*
X257941Y408300D02*
Y411127D01*
X263059D01*
Y408300D02*
Y411127D01*
X238441Y399373D02*
Y402200D01*
Y399373D02*
X243559D01*
Y402200D01*
X238441Y408200D02*
Y411027D01*
X243559D01*
Y408200D02*
Y411027D01*
X247659Y372000D02*
Y374827D01*
X242541D02*
X247659D01*
X242541Y372000D02*
Y374827D01*
X247659Y363173D02*
Y366000D01*
X242541Y363173D02*
X247659D01*
X242541D02*
Y366000D01*
X260173Y384359D02*
X263000D01*
X260173Y379241D02*
Y384359D01*
Y379241D02*
X263000D01*
X269000Y384359D02*
X271827D01*
Y379241D02*
Y384359D01*
X269000Y379241D02*
X271827D01*
X288150Y331505D02*
X294450D01*
X288150Y319694D02*
X294450D01*
X288150D02*
Y331505D01*
X294450Y319694D02*
Y331505D01*
X281695Y301795D02*
Y303369D01*
Y301795D02*
X283269D01*
X281695Y313605D02*
X283269D01*
X281695Y312031D02*
Y313605D01*
X293506Y312031D02*
Y313605D01*
X291931D02*
X293506D01*
Y301795D02*
Y303369D01*
X291931Y301795D02*
X293506D01*
X254100Y346341D02*
X256927D01*
Y351459D01*
X254100D02*
X256927D01*
X245273Y346341D02*
X248100D01*
X245273D02*
Y351459D01*
X248100D01*
X250100Y347400D02*
Y350400D01*
X251600Y347400D02*
Y350400D01*
X250100Y347400D02*
X251600Y348900D01*
X250100Y350400D02*
X251600Y348900D01*
X254100Y340141D02*
X256927D01*
Y345259D01*
X254100D02*
X256927D01*
X245273Y340141D02*
X248100D01*
X245273D02*
Y345259D01*
X248100D01*
X250100Y341200D02*
Y344200D01*
X251600Y341200D02*
Y344200D01*
X250100Y341200D02*
X251600Y342700D01*
X250100Y344200D02*
X251600Y342700D01*
X245173Y339259D02*
X248000D01*
X245173Y334141D02*
Y339259D01*
Y334141D02*
X248000D01*
X254000Y339259D02*
X256827D01*
Y334141D02*
Y339259D01*
X254000Y334141D02*
X256827D01*
X252000Y335200D02*
Y338200D01*
X250500Y335200D02*
Y338200D01*
Y336700D02*
X252000Y338200D01*
X250500Y336700D02*
X252000Y335200D01*
X245173Y333259D02*
X248000D01*
X245173Y328141D02*
Y333259D01*
Y328141D02*
X248000D01*
X254000Y333259D02*
X256827D01*
Y328141D02*
Y333259D01*
X254000Y328141D02*
X256827D01*
X252000Y329200D02*
Y332200D01*
X250500Y329200D02*
Y332200D01*
Y330700D02*
X252000Y332200D01*
X250500Y330700D02*
X252000Y329200D01*
X254000Y322141D02*
X256827D01*
Y327259D01*
X254000D02*
X256827D01*
X245173Y322141D02*
X248000D01*
X245173D02*
Y327259D01*
X248000D01*
X250000Y323200D02*
Y326200D01*
X251500Y323200D02*
Y326200D01*
X250000Y323200D02*
X251500Y324700D01*
X250000Y326200D02*
X251500Y324700D01*
X254000Y316141D02*
X256827D01*
Y321259D01*
X254000D02*
X256827D01*
X245173Y316141D02*
X248000D01*
X245173D02*
Y321259D01*
X248000D01*
X250000Y317200D02*
Y320200D01*
X251500Y317200D02*
Y320200D01*
X250000Y317200D02*
X251500Y318700D01*
X250000Y320200D02*
X251500Y318700D01*
X230173Y351459D02*
X233000D01*
X230173Y346341D02*
Y351459D01*
Y346341D02*
X233000D01*
X239000Y351459D02*
X241827D01*
Y346341D02*
Y351459D01*
X239000Y346341D02*
X241827D01*
X230173Y345259D02*
X233000D01*
X230173Y340141D02*
Y345259D01*
Y340141D02*
X233000D01*
X239000Y345259D02*
X241827D01*
Y340141D02*
Y345259D01*
X239000Y340141D02*
X241827D01*
X239000Y334141D02*
X241827D01*
Y339259D01*
X239000D02*
X241827D01*
X230173Y334141D02*
X233000D01*
X230173D02*
Y339259D01*
X233000D01*
X239000Y328141D02*
X241827D01*
Y333259D01*
X239000D02*
X241827D01*
X230173Y328141D02*
X233000D01*
X230173D02*
Y333259D01*
X233000D01*
X230173Y327259D02*
X233000D01*
X230173Y322141D02*
Y327259D01*
Y322141D02*
X233000D01*
X239000Y327259D02*
X241827D01*
Y322141D02*
Y327259D01*
X239000Y322141D02*
X241827D01*
X230173Y321259D02*
X233000D01*
X230173Y316141D02*
Y321259D01*
Y316141D02*
X233000D01*
X239000Y321259D02*
X241827D01*
Y316141D02*
Y321259D01*
X239000Y316141D02*
X241827D01*
X269000Y346141D02*
X271827D01*
Y351259D01*
X269000D02*
X271827D01*
X260173Y346141D02*
X263000D01*
X260173D02*
Y351259D01*
X263000D01*
X269000Y340141D02*
X271827D01*
Y345259D01*
X269000D02*
X271827D01*
X260173Y340141D02*
X263000D01*
X260173D02*
Y345259D01*
X263000D01*
X269000Y334141D02*
X271827D01*
Y339259D01*
X269000D02*
X271827D01*
X260173Y334141D02*
X263000D01*
X260173D02*
Y339259D01*
X263000D01*
X269000Y328141D02*
X271827D01*
Y333259D01*
X269000D02*
X271827D01*
X260173Y328141D02*
X263000D01*
X260173D02*
Y333259D01*
X263000D01*
X260173Y327259D02*
X263000D01*
X260173Y322141D02*
Y327259D01*
Y322141D02*
X263000D01*
X269000Y327259D02*
X271827D01*
Y322141D02*
Y327259D01*
X269000Y322141D02*
X271827D01*
X260173Y321259D02*
X263000D01*
X260173Y316141D02*
Y321259D01*
Y316141D02*
X263000D01*
X269000Y321259D02*
X271827D01*
Y316141D02*
Y321259D01*
X269000Y316141D02*
X271827D01*
X254000Y309741D02*
X256827D01*
Y314859D01*
X254000D02*
X256827D01*
X245173Y309741D02*
X248000D01*
X245173D02*
Y314859D01*
X248000D01*
X269000Y309741D02*
X271827D01*
Y314859D01*
X269000D02*
X271827D01*
X260173Y309741D02*
X263000D01*
X260173D02*
Y314859D01*
X263000D01*
X260173Y396559D02*
X263000D01*
X260173Y391441D02*
Y396559D01*
Y391441D02*
X263000D01*
X269000Y396559D02*
X271827D01*
Y391441D02*
Y396559D01*
X269000Y391441D02*
X271827D01*
X313373Y354859D02*
X316200D01*
X313373Y349741D02*
Y354859D01*
Y349741D02*
X316200D01*
X322200Y354859D02*
X325027D01*
Y349741D02*
Y354859D01*
X322200Y349741D02*
X325027D01*
X322200Y343741D02*
X325027D01*
Y348859D01*
X322200D02*
X325027D01*
X313373Y343741D02*
X316200D01*
X313373D02*
Y348859D01*
X316200D01*
X260059Y372000D02*
Y374827D01*
X254941D02*
X260059D01*
X254941Y372000D02*
Y374827D01*
X260059Y363173D02*
Y366000D01*
X254941Y363173D02*
X260059D01*
X254941D02*
Y366000D01*
X300773Y404159D02*
X303600D01*
X300773Y399041D02*
Y404159D01*
Y399041D02*
X303600D01*
X309600Y404159D02*
X312427D01*
Y399041D02*
Y404159D01*
X309600Y399041D02*
X312427D01*
X300773Y398159D02*
X303600D01*
X300773Y393041D02*
Y398159D01*
Y393041D02*
X303600D01*
X309600Y398159D02*
X312427D01*
Y393041D02*
Y398159D01*
X309600Y393041D02*
X312427D01*
X313373Y366859D02*
X316200D01*
X313373Y361741D02*
Y366859D01*
Y361741D02*
X316200D01*
X322200Y366859D02*
X325027D01*
Y361741D02*
Y366859D01*
X322200Y361741D02*
X325027D01*
X313373Y360859D02*
X316200D01*
X313373Y355741D02*
Y360859D01*
Y355741D02*
X316200D01*
X322200Y360859D02*
X325027D01*
Y355741D02*
Y360859D01*
X322200Y355741D02*
X325027D01*
X230241Y363273D02*
Y366100D01*
Y363273D02*
X235359D01*
Y366100D01*
X230241Y372100D02*
Y374927D01*
X235359D01*
Y372100D02*
Y374927D01*
X239000Y352341D02*
X241827D01*
Y357459D01*
X239000D02*
X241827D01*
X230173Y352341D02*
X233000D01*
X230173D02*
Y357459D01*
X233000D01*
X250100Y356400D02*
X251600Y354900D01*
X250100Y353400D02*
X251600Y354900D01*
Y353400D02*
Y356400D01*
X250100Y353400D02*
Y356400D01*
X245273Y357459D02*
X248100D01*
X245273Y352341D02*
Y357459D01*
Y352341D02*
X248100D01*
X254100Y357459D02*
X256927D01*
Y352341D02*
Y357459D01*
X254100Y352341D02*
X256927D01*
X316500Y314141D02*
X319327D01*
Y319259D01*
X316500D02*
X319327D01*
X307673Y314141D02*
X310500D01*
X307673D02*
Y319259D01*
X310500D01*
X313841Y329773D02*
Y332600D01*
Y329773D02*
X318959D01*
Y332600D01*
X313841Y338600D02*
Y341427D01*
X318959D01*
Y338600D02*
Y341427D01*
D64*
X275100Y381800D02*
X277100D01*
X275100Y379800D02*
Y381800D01*
Y349800D02*
X277100D01*
X275100D02*
Y351800D01*
X307100Y349800D02*
Y351800D01*
X305100Y349800D02*
X307100D01*
X305100Y381800D02*
X307100D01*
Y379800D02*
Y381800D01*
D65*
X303600Y290500D02*
X323600D01*
Y300500D01*
X303600D02*
X323600D01*
X303600Y290500D02*
Y300500D01*
X241526Y393674D02*
X243101D01*
X241526Y392099D02*
Y393674D01*
X257274Y392099D02*
Y393674D01*
X255699D02*
X257274D01*
X255699Y377926D02*
X257274D01*
Y379501D01*
X241526Y377926D02*
X243101D01*
X241526D02*
Y379501D01*
X272119Y289450D02*
X274481D01*
X272119Y295750D02*
X274481D01*
X291919D02*
X294281D01*
X291919Y289450D02*
X294281D01*
D66*
X278735Y320465D02*
Y323535D01*
X275665D02*
X278735D01*
X275665Y320465D02*
Y323535D01*
Y320465D02*
X278735D01*
X237335Y394165D02*
Y397235D01*
X234265D02*
X237335D01*
X234265Y394165D02*
Y397235D01*
Y394165D02*
X237335D01*
D67*
X230200Y375700D02*
Y377699D01*
X231200D01*
X231533Y377366D01*
Y376700D01*
X231200Y376366D01*
X230200D01*
X230866D02*
X231533Y375700D01*
X233532D02*
X232199D01*
X233532Y377033D01*
Y377366D01*
X233199Y377699D01*
X232533D01*
X232199Y377366D01*
X235532Y377699D02*
X234865Y377366D01*
X234199Y376700D01*
Y376033D01*
X234532Y375700D01*
X235198D01*
X235532Y376033D01*
Y376366D01*
X235198Y376700D01*
X234199D01*
X314666Y390967D02*
X314999Y391300D01*
Y391967D01*
X314666Y392300D01*
X313333D01*
X313000Y391967D01*
Y391300D01*
X313333Y390967D01*
X313000Y389301D02*
X314999D01*
X314000Y390301D01*
Y388968D01*
X313000Y387302D02*
X314999D01*
X314000Y388301D01*
Y386968D01*
X316000Y401099D02*
Y399100D01*
X317333D01*
X319332D02*
X317999D01*
X319332Y400433D01*
Y400766D01*
X318999Y401099D01*
X318333D01*
X317999Y400766D01*
X316400Y409099D02*
Y407100D01*
X317733D01*
X318399D02*
X319066D01*
X318733D01*
Y409099D01*
X318399Y408766D01*
X320433Y393366D02*
X320100Y393699D01*
X319433D01*
X319100Y393366D01*
Y392033D01*
X319433Y391700D01*
X320100D01*
X320433Y392033D01*
X321099Y393366D02*
X321433Y393699D01*
X322099D01*
X322432Y393366D01*
Y393033D01*
X322099Y392700D01*
X321766D01*
X322099D01*
X322432Y392366D01*
Y392033D01*
X322099Y391700D01*
X321433D01*
X321099Y392033D01*
X323099Y393366D02*
X323432Y393699D01*
X324098D01*
X324432Y393366D01*
Y393033D01*
X324098Y392700D01*
X324432Y392366D01*
Y392033D01*
X324098Y391700D01*
X323432D01*
X323099Y392033D01*
Y392366D01*
X323432Y392700D01*
X323099Y393033D01*
Y393366D01*
X323432Y392700D02*
X324098D01*
X319699Y375100D02*
X318033D01*
X317700Y374767D01*
Y374100D01*
X318033Y373767D01*
X319699D01*
X317700Y373101D02*
Y372434D01*
Y372767D01*
X319699D01*
X319366Y373101D01*
Y371434D02*
X319699Y371101D01*
Y370435D01*
X319366Y370102D01*
X318033D01*
X317700Y370435D01*
Y371101D01*
X318033Y371434D01*
X319366D01*
X319800Y422900D02*
Y424233D01*
X320466Y424899D01*
X321133Y424233D01*
Y422900D01*
Y423900D01*
X319800D01*
X321799Y422900D02*
X322466D01*
X322133D01*
Y424899D01*
X321799Y424566D01*
X315233Y328566D02*
X314900Y328899D01*
X314233D01*
X313900Y328566D01*
Y327233D01*
X314233Y326900D01*
X314900D01*
X315233Y327233D01*
X315899Y326900D02*
X316566D01*
X316233D01*
Y328899D01*
X315899Y328566D01*
X317565Y327233D02*
X317899Y326900D01*
X318565D01*
X318898Y327233D01*
Y328566D01*
X318565Y328899D01*
X317899D01*
X317565Y328566D01*
Y328233D01*
X317899Y327900D01*
X318898D01*
X260033Y307699D02*
X259366D01*
X259700D01*
Y306033D01*
X259366Y305700D01*
X259033D01*
X258700Y306033D01*
X262032Y307699D02*
X260699D01*
Y306700D01*
X261366Y307033D01*
X261699D01*
X262032Y306700D01*
Y306033D01*
X261699Y305700D01*
X261033D01*
X260699Y306033D01*
X291800Y300999D02*
Y299333D01*
X292133Y299000D01*
X292800D01*
X293133Y299333D01*
Y300999D01*
X294799Y299000D02*
Y300999D01*
X293799Y300000D01*
X295132D01*
X283700Y386599D02*
Y384933D01*
X284033Y384600D01*
X284700D01*
X285033Y384933D01*
Y386599D01*
X285699Y384600D02*
X286366D01*
X286033D01*
Y386599D01*
X285699Y386266D01*
X274466Y394067D02*
X274799Y394400D01*
Y395067D01*
X274466Y395400D01*
X273133D01*
X272800Y395067D01*
Y394400D01*
X273133Y394067D01*
X272800Y393401D02*
Y392734D01*
Y393067D01*
X274799D01*
X274466Y393401D01*
X274266Y388467D02*
X274599Y388800D01*
Y389467D01*
X274266Y389800D01*
X272933D01*
X272600Y389467D01*
Y388800D01*
X272933Y388467D01*
X272600Y386468D02*
Y387801D01*
X273933Y386468D01*
X274266D01*
X274599Y386801D01*
Y387467D01*
X274266Y387801D01*
X258233Y362366D02*
X257900Y362699D01*
X257233D01*
X256900Y362366D01*
Y361033D01*
X257233Y360700D01*
X257900D01*
X258233Y361033D01*
X258899Y362366D02*
X259233Y362699D01*
X259899D01*
X260232Y362366D01*
Y362033D01*
X259899Y361700D01*
X259566D01*
X259899D01*
X260232Y361366D01*
Y361033D01*
X259899Y360700D01*
X259233D01*
X258899Y361033D01*
X278633Y340766D02*
X278300Y341099D01*
X277633D01*
X277300Y340766D01*
Y339433D01*
X277633Y339100D01*
X278300D01*
X278633Y339433D01*
X280299Y339100D02*
Y341099D01*
X279299Y340100D01*
X280632D01*
X312666Y346267D02*
X312999Y346600D01*
Y347267D01*
X312666Y347600D01*
X311333D01*
X311000Y347267D01*
Y346600D01*
X311333Y346267D01*
X312999Y344268D02*
Y345601D01*
X312000D01*
X312333Y344934D01*
Y344601D01*
X312000Y344268D01*
X311333D01*
X311000Y344601D01*
Y345267D01*
X311333Y345601D01*
X312566Y352567D02*
X312899Y352900D01*
Y353567D01*
X312566Y353900D01*
X311233D01*
X310900Y353567D01*
Y352900D01*
X311233Y352567D01*
X312899Y351901D02*
Y350568D01*
X312566D01*
X311233Y351901D01*
X310900D01*
X244066Y313367D02*
X244399Y313700D01*
Y314367D01*
X244066Y314700D01*
X242733D01*
X242400Y314367D01*
Y313700D01*
X242733Y313367D01*
X242400Y312701D02*
Y312034D01*
Y312367D01*
X244399D01*
X244066Y312701D01*
Y311034D02*
X244399Y310701D01*
Y310035D01*
X244066Y309702D01*
X243733D01*
X243400Y310035D01*
X243066Y309702D01*
X242733D01*
X242400Y310035D01*
Y310701D01*
X242733Y311034D01*
X243066D01*
X243400Y310701D01*
X243733Y311034D01*
X244066D01*
X243400Y310701D02*
Y310035D01*
X308733Y328566D02*
X308400Y328899D01*
X307733D01*
X307400Y328566D01*
Y327233D01*
X307733Y326900D01*
X308400D01*
X308733Y327233D01*
X310732Y326900D02*
X309399D01*
X310732Y328233D01*
Y328566D01*
X310399Y328899D01*
X309733D01*
X309399Y328566D01*
X311399D02*
X311732Y328899D01*
X312398D01*
X312732Y328566D01*
Y327233D01*
X312398Y326900D01*
X311732D01*
X311399Y327233D01*
Y328566D01*
X303433Y328766D02*
X303100Y329099D01*
X302433D01*
X302100Y328766D01*
Y327433D01*
X302433Y327100D01*
X303100D01*
X303433Y327433D01*
X305432Y327100D02*
X304099D01*
X305432Y328433D01*
Y328766D01*
X305099Y329099D01*
X304433D01*
X304099Y328766D01*
X306099Y327100D02*
X306765D01*
X306432D01*
Y329099D01*
X306099Y328766D01*
X243633Y362266D02*
X243300Y362599D01*
X242633D01*
X242300Y362266D01*
Y360933D01*
X242633Y360600D01*
X243300D01*
X243633Y360933D01*
X245632Y360600D02*
X244299D01*
X245632Y361933D01*
Y362266D01*
X245299Y362599D01*
X244633D01*
X244299Y362266D01*
X246299D02*
X246632Y362599D01*
X247298D01*
X247632Y362266D01*
Y361933D01*
X247298Y361600D01*
X246965D01*
X247298D01*
X247632Y361266D01*
Y360933D01*
X247298Y360600D01*
X246632D01*
X246299Y360933D01*
X266733Y377866D02*
X266400Y378199D01*
X265733D01*
X265400Y377866D01*
Y376533D01*
X265733Y376200D01*
X266400D01*
X266733Y376533D01*
X268732Y376200D02*
X267399D01*
X268732Y377533D01*
Y377866D01*
X268399Y378199D01*
X267733D01*
X267399Y377866D01*
X270398Y376200D02*
Y378199D01*
X269399Y377200D01*
X270732D01*
X259233Y413266D02*
X258900Y413599D01*
X258233D01*
X257900Y413266D01*
Y411933D01*
X258233Y411600D01*
X258900D01*
X259233Y411933D01*
X259899Y413266D02*
X260233Y413599D01*
X260899D01*
X261232Y413266D01*
Y412933D01*
X260899Y412600D01*
X260566D01*
X260899D01*
X261232Y412266D01*
Y411933D01*
X260899Y411600D01*
X260233D01*
X259899Y411933D01*
X263232Y411600D02*
X261899D01*
X263232Y412933D01*
Y413266D01*
X262898Y413599D01*
X262232D01*
X261899Y413266D01*
X252733Y413166D02*
X252400Y413499D01*
X251733D01*
X251400Y413166D01*
Y411833D01*
X251733Y411500D01*
X252400D01*
X252733Y411833D01*
X253399Y413166D02*
X253733Y413499D01*
X254399D01*
X254732Y413166D01*
Y412833D01*
X254399Y412500D01*
X254066D01*
X254399D01*
X254732Y412166D01*
Y411833D01*
X254399Y411500D01*
X253733D01*
X253399Y411833D01*
X255399Y413166D02*
X255732Y413499D01*
X256398D01*
X256732Y413166D01*
Y412833D01*
X256398Y412500D01*
X256065D01*
X256398D01*
X256732Y412166D01*
Y411833D01*
X256398Y411500D01*
X255732D01*
X255399Y411833D01*
X239533Y413166D02*
X239200Y413499D01*
X238533D01*
X238200Y413166D01*
Y411833D01*
X238533Y411500D01*
X239200D01*
X239533Y411833D01*
X240199Y413166D02*
X240533Y413499D01*
X241199D01*
X241532Y413166D01*
Y412833D01*
X241199Y412500D01*
X240866D01*
X241199D01*
X241532Y412166D01*
Y411833D01*
X241199Y411500D01*
X240533D01*
X240199Y411833D01*
X243198Y411500D02*
Y413499D01*
X242199Y412500D01*
X243532D01*
X233033Y413166D02*
X232700Y413499D01*
X232033D01*
X231700Y413166D01*
Y411833D01*
X232033Y411500D01*
X232700D01*
X233033Y411833D01*
X233699Y413166D02*
X234033Y413499D01*
X234699D01*
X235032Y413166D01*
Y412833D01*
X234699Y412500D01*
X234366D01*
X234699D01*
X235032Y412166D01*
Y411833D01*
X234699Y411500D01*
X234033D01*
X233699Y411833D01*
X237032Y413499D02*
X235699D01*
Y412500D01*
X236365Y412833D01*
X236698D01*
X237032Y412500D01*
Y411833D01*
X236698Y411500D01*
X236032D01*
X235699Y411833D01*
X259166Y313467D02*
X259499Y313800D01*
Y314467D01*
X259166Y314800D01*
X257833D01*
X257500Y314467D01*
Y313800D01*
X257833Y313467D01*
X259166Y312801D02*
X259499Y312467D01*
Y311801D01*
X259166Y311468D01*
X258833D01*
X258500Y311801D01*
Y312134D01*
Y311801D01*
X258166Y311468D01*
X257833D01*
X257500Y311801D01*
Y312467D01*
X257833Y312801D01*
X259499Y309468D02*
X259166Y310135D01*
X258500Y310801D01*
X257833D01*
X257500Y310468D01*
Y309802D01*
X257833Y309468D01*
X258166D01*
X258500Y309802D01*
Y310801D01*
X274166Y318967D02*
X274499Y319300D01*
Y319967D01*
X274166Y320300D01*
X272833D01*
X272500Y319967D01*
Y319300D01*
X272833Y318967D01*
X274166Y318301D02*
X274499Y317967D01*
Y317301D01*
X274166Y316968D01*
X273833D01*
X273500Y317301D01*
Y317634D01*
Y317301D01*
X273166Y316968D01*
X272833D01*
X272500Y317301D01*
Y317967D01*
X272833Y318301D01*
X274499Y316301D02*
Y314968D01*
X274166D01*
X272833Y316301D01*
X272500D01*
X242500Y333000D02*
X244499D01*
Y332000D01*
X244166Y331667D01*
X243500D01*
X243166Y332000D01*
Y333000D01*
Y332334D02*
X242500Y331667D01*
X244499Y329668D02*
Y331001D01*
X243500D01*
X243833Y330334D01*
Y330001D01*
X243500Y329668D01*
X242833D01*
X242500Y330001D01*
Y330667D01*
X242833Y331001D01*
X242400Y338200D02*
X244399D01*
Y337200D01*
X244066Y336867D01*
X243400D01*
X243066Y337200D01*
Y338200D01*
Y337534D02*
X242400Y336867D01*
X244399Y334868D02*
X244066Y335534D01*
X243400Y336201D01*
X242733D01*
X242400Y335867D01*
Y335201D01*
X242733Y334868D01*
X243066D01*
X243400Y335201D01*
Y336201D01*
X242600Y350100D02*
X244599D01*
Y349100D01*
X244266Y348767D01*
X243600D01*
X243266Y349100D01*
Y350100D01*
Y349434D02*
X242600Y348767D01*
X244266Y348101D02*
X244599Y347767D01*
Y347101D01*
X244266Y346768D01*
X243933D01*
X243600Y347101D01*
X243266Y346768D01*
X242933D01*
X242600Y347101D01*
Y347767D01*
X242933Y348101D01*
X243266D01*
X243600Y347767D01*
X243933Y348101D01*
X244266D01*
X243600Y347767D02*
Y347101D01*
X242400Y344600D02*
X244399D01*
Y343600D01*
X244066Y343267D01*
X243400D01*
X243066Y343600D01*
Y344600D01*
Y343934D02*
X242400Y343267D01*
X242733Y342601D02*
X242400Y342267D01*
Y341601D01*
X242733Y341268D01*
X244066D01*
X244399Y341601D01*
Y342267D01*
X244066Y342601D01*
X243733D01*
X243400Y342267D01*
Y341268D01*
X242500Y320300D02*
X244499D01*
Y319300D01*
X244166Y318967D01*
X243500D01*
X243166Y319300D01*
Y320300D01*
Y319634D02*
X242500Y318967D01*
Y318301D02*
Y317634D01*
Y317967D01*
X244499D01*
X244166Y318301D01*
Y316634D02*
X244499Y316301D01*
Y315635D01*
X244166Y315302D01*
X242833D01*
X242500Y315635D01*
Y316301D01*
X242833Y316634D01*
X244166D01*
X242400Y327000D02*
X244399D01*
Y326000D01*
X244066Y325667D01*
X243400D01*
X243066Y326000D01*
Y327000D01*
Y326334D02*
X242400Y325667D01*
Y325001D02*
Y324334D01*
Y324667D01*
X244399D01*
X244066Y325001D01*
X242400Y323335D02*
Y322668D01*
Y323001D01*
X244399D01*
X244066Y323335D01*
X319900Y313200D02*
X321899D01*
Y312200D01*
X321566Y311867D01*
X320900D01*
X320566Y312200D01*
Y313200D01*
Y312534D02*
X319900Y311867D01*
Y311201D02*
Y310534D01*
Y310867D01*
X321899D01*
X321566Y311201D01*
X319900Y308202D02*
Y309535D01*
X321233Y308202D01*
X321566D01*
X321899Y308535D01*
Y309201D01*
X321566Y309535D01*
X319900Y307200D02*
X321899D01*
Y306200D01*
X321566Y305867D01*
X320900D01*
X320566Y306200D01*
Y307200D01*
Y306534D02*
X319900Y305867D01*
Y305201D02*
Y304534D01*
Y304867D01*
X321899D01*
X321566Y305201D01*
Y303535D02*
X321899Y303201D01*
Y302535D01*
X321566Y302202D01*
X321233D01*
X320900Y302535D01*
Y302868D01*
Y302535D01*
X320566Y302202D01*
X320233D01*
X319900Y302535D01*
Y303201D01*
X320233Y303535D01*
X249200Y359000D02*
Y360999D01*
X250200D01*
X250533Y360666D01*
Y360000D01*
X250200Y359666D01*
X249200D01*
X249866D02*
X250533Y359000D01*
X251199D02*
X251866D01*
X251533D01*
Y360999D01*
X251199Y360666D01*
X253865Y359000D02*
Y360999D01*
X252866Y360000D01*
X254198D01*
X236500Y360600D02*
Y362599D01*
X237500D01*
X237833Y362266D01*
Y361600D01*
X237500Y361266D01*
X236500D01*
X237166D02*
X237833Y360600D01*
X238499D02*
X239166D01*
X238833D01*
Y362599D01*
X238499Y362266D01*
X241498Y362599D02*
X240165D01*
Y361600D01*
X240832Y361933D01*
X241165D01*
X241498Y361600D01*
Y360933D01*
X241165Y360600D01*
X240499D01*
X240165Y360933D01*
X245100Y411500D02*
Y413499D01*
X246100D01*
X246433Y413166D01*
Y412500D01*
X246100Y412166D01*
X245100D01*
X245766D02*
X246433Y411500D01*
X247099D02*
X247766D01*
X247433D01*
Y413499D01*
X247099Y413166D01*
X248765Y411833D02*
X249099Y411500D01*
X249765D01*
X250098Y411833D01*
Y413166D01*
X249765Y413499D01*
X249099D01*
X248765Y413166D01*
Y412833D01*
X249099Y412500D01*
X250098D01*
X272300Y327800D02*
X274299D01*
Y326800D01*
X273966Y326467D01*
X273300D01*
X272966Y326800D01*
Y327800D01*
Y327134D02*
X272300Y326467D01*
Y324468D02*
Y325801D01*
X273633Y324468D01*
X273966D01*
X274299Y324801D01*
Y325467D01*
X273966Y325801D01*
Y323801D02*
X274299Y323468D01*
Y322802D01*
X273966Y322468D01*
X272633D01*
X272300Y322802D01*
Y323468D01*
X272633Y323801D01*
X273966D01*
X272400Y333000D02*
X274399D01*
Y332000D01*
X274066Y331667D01*
X273400D01*
X273066Y332000D01*
Y333000D01*
Y332334D02*
X272400Y331667D01*
Y329668D02*
Y331001D01*
X273733Y329668D01*
X274066D01*
X274399Y330001D01*
Y330667D01*
X274066Y331001D01*
X272400Y329001D02*
Y328335D01*
Y328668D01*
X274399D01*
X274066Y329001D01*
X272400Y339400D02*
X274399D01*
Y338400D01*
X274066Y338067D01*
X273400D01*
X273066Y338400D01*
Y339400D01*
Y338734D02*
X272400Y338067D01*
Y336068D02*
Y337401D01*
X273733Y336068D01*
X274066D01*
X274399Y336401D01*
Y337067D01*
X274066Y337401D01*
X272400Y334068D02*
Y335401D01*
X273733Y334068D01*
X274066D01*
X274399Y334402D01*
Y335068D01*
X274066Y335401D01*
X272400Y345400D02*
X274399D01*
Y344400D01*
X274066Y344067D01*
X273400D01*
X273066Y344400D01*
Y345400D01*
Y344734D02*
X272400Y344067D01*
Y342068D02*
Y343401D01*
X273733Y342068D01*
X274066D01*
X274399Y342401D01*
Y343067D01*
X274066Y343401D01*
Y341401D02*
X274399Y341068D01*
Y340402D01*
X274066Y340068D01*
X273733D01*
X273400Y340402D01*
Y340735D01*
Y340402D01*
X273066Y340068D01*
X272733D01*
X272400Y340402D01*
Y341068D01*
X272733Y341401D01*
X272300Y351300D02*
X274299D01*
Y350300D01*
X273966Y349967D01*
X273300D01*
X272966Y350300D01*
Y351300D01*
Y350634D02*
X272300Y349967D01*
Y347968D02*
Y349301D01*
X273633Y347968D01*
X273966D01*
X274299Y348301D01*
Y348967D01*
X273966Y349301D01*
X272300Y346302D02*
X274299D01*
X273300Y347301D01*
Y345968D01*
X272400Y314300D02*
X274399D01*
Y313300D01*
X274066Y312967D01*
X273400D01*
X273066Y313300D01*
Y314300D01*
Y313634D02*
X272400Y312967D01*
Y310968D02*
Y312301D01*
X273733Y310968D01*
X274066D01*
X274399Y311301D01*
Y311967D01*
X274066Y312301D01*
X274399Y308968D02*
Y310301D01*
X273400D01*
X273733Y309635D01*
Y309302D01*
X273400Y308968D01*
X272733D01*
X272400Y309302D01*
Y309968D01*
X272733Y310301D01*
X270800Y411600D02*
Y413599D01*
X271800D01*
X272133Y413266D01*
Y412600D01*
X271800Y412266D01*
X270800D01*
X271466D02*
X272133Y411600D01*
X273799D02*
Y413599D01*
X272799Y412600D01*
X274132D01*
X274799Y413266D02*
X275132Y413599D01*
X275798D01*
X276132Y413266D01*
Y412933D01*
X275798Y412600D01*
X276132Y412266D01*
Y411933D01*
X275798Y411600D01*
X275132D01*
X274799Y411933D01*
Y412266D01*
X275132Y412600D01*
X274799Y412933D01*
Y413266D01*
X275132Y412600D02*
X275798D01*
X264200Y411600D02*
Y413599D01*
X265200D01*
X265533Y413266D01*
Y412600D01*
X265200Y412266D01*
X264200D01*
X264866D02*
X265533Y411600D01*
X267199D02*
Y413599D01*
X266199Y412600D01*
X267532D01*
X268199Y411933D02*
X268532Y411600D01*
X269198D01*
X269532Y411933D01*
Y413266D01*
X269198Y413599D01*
X268532D01*
X268199Y413266D01*
Y412933D01*
X268532Y412600D01*
X269532D01*
X266833Y298666D02*
X266500Y298999D01*
X265833D01*
X265500Y298666D01*
Y298333D01*
X265833Y298000D01*
X266500D01*
X266833Y297666D01*
Y297333D01*
X266500Y297000D01*
X265833D01*
X265500Y297333D01*
X267499Y297000D02*
X268166D01*
X267833D01*
Y298999D01*
X267499Y298666D01*
X287133D02*
X286800Y298999D01*
X286133D01*
X285800Y298666D01*
Y298333D01*
X286133Y298000D01*
X286800D01*
X287133Y297666D01*
Y297333D01*
X286800Y297000D01*
X286133D01*
X285800Y297333D01*
X289132Y297000D02*
X287799D01*
X289132Y298333D01*
Y298666D01*
X288799Y298999D01*
X288133D01*
X287799Y298666D01*
X259399Y320400D02*
X257400D01*
Y319400D01*
X257733Y319067D01*
X259066D01*
X259399Y319400D01*
Y320400D01*
X257400Y318401D02*
Y317734D01*
Y318067D01*
X259399D01*
X259066Y318401D01*
X259599Y326200D02*
X257600D01*
Y325200D01*
X257933Y324867D01*
X259266D01*
X259599Y325200D01*
Y326200D01*
X257600Y322868D02*
Y324201D01*
X258933Y322868D01*
X259266D01*
X259599Y323201D01*
Y323867D01*
X259266Y324201D01*
X259399Y332100D02*
X257400D01*
Y331100D01*
X257733Y330767D01*
X259066D01*
X259399Y331100D01*
Y332100D01*
X259066Y330101D02*
X259399Y329767D01*
Y329101D01*
X259066Y328768D01*
X258733D01*
X258400Y329101D01*
Y329434D01*
Y329101D01*
X258066Y328768D01*
X257733D01*
X257400Y329101D01*
Y329767D01*
X257733Y330101D01*
X259499Y338100D02*
X257500D01*
Y337100D01*
X257833Y336767D01*
X259166D01*
X259499Y337100D01*
Y338100D01*
X257500Y335101D02*
X259499D01*
X258500Y336101D01*
Y334768D01*
X259499Y344300D02*
X257500D01*
Y343300D01*
X257833Y342967D01*
X259166D01*
X259499Y343300D01*
Y344300D01*
Y340968D02*
Y342301D01*
X258500D01*
X258833Y341634D01*
Y341301D01*
X258500Y340968D01*
X257833D01*
X257500Y341301D01*
Y341967D01*
X257833Y342301D01*
X259599Y351300D02*
X257600D01*
Y350300D01*
X257933Y349967D01*
X259266D01*
X259599Y350300D01*
Y351300D01*
Y347968D02*
X259266Y348634D01*
X258600Y349301D01*
X257933D01*
X257600Y348967D01*
Y348301D01*
X257933Y347968D01*
X258266D01*
X258600Y348301D01*
Y349301D01*
X300233Y301099D02*
X299566D01*
X299900D01*
Y299433D01*
X299566Y299100D01*
X299233D01*
X298900Y299433D01*
X301899Y299100D02*
Y301099D01*
X300899Y300100D01*
X302232D01*
X288801Y320400D02*
X290467D01*
X290800Y320733D01*
Y321400D01*
X290467Y321733D01*
X288801D01*
Y323732D02*
Y322399D01*
X289800D01*
X289467Y323066D01*
Y323399D01*
X289800Y323732D01*
X290467D01*
X290800Y323399D01*
Y322733D01*
X290467Y322399D01*
X251150Y382549D02*
Y380883D01*
X251483Y380550D01*
X252150D01*
X252483Y380883D01*
Y382549D01*
X254482D02*
X253816Y382216D01*
X253149Y381550D01*
Y380883D01*
X253483Y380550D01*
X254149D01*
X254482Y380883D01*
Y381216D01*
X254149Y381550D01*
X253149D01*
X232000Y392899D02*
Y391233D01*
X232333Y390900D01*
X233000D01*
X233333Y391233D01*
Y392899D01*
X233999D02*
X235332D01*
Y392566D01*
X233999Y391233D01*
Y390900D01*
X275500Y320099D02*
Y318433D01*
X275833Y318100D01*
X276500D01*
X276833Y318433D01*
Y320099D01*
X277499Y318433D02*
X277833Y318100D01*
X278499D01*
X278832Y318433D01*
Y319766D01*
X278499Y320099D01*
X277833D01*
X277499Y319766D01*
Y319433D01*
X277833Y319100D01*
X278832D01*
X314666Y403067D02*
X314999Y403400D01*
Y404067D01*
X314666Y404400D01*
X313333D01*
X313000Y404067D01*
Y403400D01*
X313333Y403067D01*
X314666Y402401D02*
X314999Y402067D01*
Y401401D01*
X314666Y401068D01*
X314333D01*
X314000Y401401D01*
Y401734D01*
Y401401D01*
X313666Y401068D01*
X313333D01*
X313000Y401401D01*
Y402067D01*
X313333Y402401D01*
Y400401D02*
X313000Y400068D01*
Y399402D01*
X313333Y399068D01*
X314666D01*
X314999Y399402D01*
Y400068D01*
X314666Y400401D01*
X314333D01*
X314000Y400068D01*
Y399068D01*
X314666Y396967D02*
X314999Y397300D01*
Y397967D01*
X314666Y398300D01*
X313333D01*
X313000Y397967D01*
Y397300D01*
X313333Y396967D01*
X313000Y395301D02*
X314999D01*
X314000Y396301D01*
Y394968D01*
X314666Y394301D02*
X314999Y393968D01*
Y393302D01*
X314666Y392968D01*
X313333D01*
X313000Y393302D01*
Y393968D01*
X313333Y394301D01*
X314666D01*
X324666Y371067D02*
X324999Y371400D01*
Y372067D01*
X324666Y372400D01*
X323333D01*
X323000Y372067D01*
Y371400D01*
X323333Y371067D01*
X323000Y369401D02*
X324999D01*
X324000Y370401D01*
Y369068D01*
X323000Y368401D02*
Y367735D01*
Y368068D01*
X324999D01*
X324666Y368401D01*
X312466Y359567D02*
X312799Y359900D01*
Y360567D01*
X312466Y360900D01*
X311133D01*
X310800Y360567D01*
Y359900D01*
X311133Y359567D01*
X310800Y357901D02*
X312799D01*
X311800Y358901D01*
Y357568D01*
X310800Y355568D02*
Y356901D01*
X312133Y355568D01*
X312466D01*
X312799Y355902D01*
Y356568D01*
X312466Y356901D01*
X259299Y356500D02*
X257300D01*
Y355500D01*
X257633Y355167D01*
X258966D01*
X259299Y355500D01*
Y356500D01*
Y354501D02*
Y353168D01*
X258966D01*
X257633Y354501D01*
X257300D01*
X242600Y358500D02*
X244599D01*
Y357500D01*
X244266Y357167D01*
X243600D01*
X243266Y357500D01*
Y358500D01*
Y357834D02*
X242600Y357167D01*
Y355168D02*
Y356501D01*
X243933Y355168D01*
X244266D01*
X244599Y355501D01*
Y356167D01*
X244266Y356501D01*
X244599Y354501D02*
Y353168D01*
X244266D01*
X242933Y354501D01*
X242600D01*
X320000Y319400D02*
X321999D01*
Y318400D01*
X321666Y318067D01*
X321000D01*
X320666Y318400D01*
Y319400D01*
Y318734D02*
X320000Y318067D01*
Y316401D02*
X321999D01*
X321000Y317401D01*
Y316068D01*
X321666Y315401D02*
X321999Y315068D01*
Y314402D01*
X321666Y314068D01*
X320333D01*
X320000Y314402D01*
Y315068D01*
X320333Y315401D01*
X321666D01*
D68*
X293600Y419299D02*
X291600Y416300D01*
Y419299D02*
X293600D01*
X291600Y416300D02*
X293600D01*
X294271Y419299D02*
Y416300D01*
Y417728D02*
X294699Y418157D01*
X294985Y418300D01*
X295413D01*
X295699Y418157D01*
X295842Y417728D01*
Y416300D01*
X297342Y418300D02*
X297056Y418157D01*
X296770Y417871D01*
X296627Y417443D01*
Y417157D01*
X296770Y416728D01*
X297056Y416443D01*
X297342Y416300D01*
X297770D01*
X298056Y416443D01*
X298341Y416728D01*
X298484Y417157D01*
Y417443D01*
X298341Y417871D01*
X298056Y418157D01*
X297770Y418300D01*
X297342D01*
X299141D02*
Y416300D01*
Y417728D02*
X299570Y418157D01*
X299855Y418300D01*
X300284D01*
X300570Y418157D01*
X300712Y417728D01*
Y416300D01*
X303212Y418300D02*
Y416014D01*
X303069Y415586D01*
X302926Y415443D01*
X302641Y415300D01*
X302212D01*
X301926Y415443D01*
X303212Y417871D02*
X302926Y418157D01*
X302641Y418300D01*
X302212D01*
X301926Y418157D01*
X301641Y417871D01*
X301498Y417443D01*
Y417157D01*
X301641Y416728D01*
X301926Y416443D01*
X302212Y416300D01*
X302641D01*
X302926Y416443D01*
X303212Y416728D01*
X304583Y419299D02*
X304726Y419157D01*
X304869Y419299D01*
X304726Y419442D01*
X304583Y419299D01*
X304726Y418300D02*
Y415871D01*
X304583Y415443D01*
X304297Y415300D01*
X304012D01*
X305426Y418300D02*
Y416871D01*
X305568Y416443D01*
X305854Y416300D01*
X306283D01*
X306568Y416443D01*
X306997Y416871D01*
Y418300D02*
Y416300D01*
X307782Y418300D02*
Y416300D01*
Y417728D02*
X308211Y418157D01*
X308496Y418300D01*
X308925D01*
X309210Y418157D01*
X309353Y417728D01*
Y416300D01*
X290500Y428899D02*
Y425900D01*
Y428899D02*
X292357D01*
X290500Y427471D02*
X291643D01*
X292700Y427043D02*
X294413D01*
Y427328D01*
X294271Y427614D01*
X294128Y427757D01*
X293842Y427900D01*
X293414D01*
X293128Y427757D01*
X292842Y427471D01*
X292700Y427043D01*
Y426757D01*
X292842Y426329D01*
X293128Y426043D01*
X293414Y425900D01*
X293842D01*
X294128Y426043D01*
X294413Y426329D01*
X295056Y428899D02*
Y425900D01*
Y427471D02*
X295342Y427757D01*
X295627Y427900D01*
X296056D01*
X296342Y427757D01*
X296627Y427471D01*
X296770Y427043D01*
Y426757D01*
X296627Y426329D01*
X296342Y426043D01*
X296056Y425900D01*
X295627D01*
X295342Y426043D01*
X295056Y426329D01*
X299912Y428185D02*
Y428328D01*
X300055Y428614D01*
X300198Y428757D01*
X300484Y428899D01*
X301055D01*
X301341Y428757D01*
X301483Y428614D01*
X301626Y428328D01*
Y428042D01*
X301483Y427757D01*
X301198Y427328D01*
X299769Y425900D01*
X301769D01*
X303297Y428899D02*
X302869Y428757D01*
X302583Y428328D01*
X302440Y427614D01*
Y427185D01*
X302583Y426471D01*
X302869Y426043D01*
X303297Y425900D01*
X303583D01*
X304011Y426043D01*
X304297Y426471D01*
X304440Y427185D01*
Y427614D01*
X304297Y428328D01*
X304011Y428757D01*
X303583Y428899D01*
X303297D01*
X305111Y428328D02*
X305397Y428471D01*
X305825Y428899D01*
Y425900D01*
X309025Y428899D02*
X307596D01*
X307453Y427614D01*
X307596Y427757D01*
X308025Y427900D01*
X308453D01*
X308882Y427757D01*
X309167Y427471D01*
X309310Y427043D01*
Y426757D01*
X309167Y426329D01*
X308882Y426043D01*
X308453Y425900D01*
X308025D01*
X307596Y426043D01*
X307453Y426186D01*
X307311Y426471D01*
X287629Y424249D02*
Y421250D01*
Y424249D02*
X288915D01*
X289343Y424106D01*
X289486Y423964D01*
X289629Y423678D01*
Y423392D01*
X289486Y423107D01*
X289343Y422964D01*
X288915Y422821D01*
X287629D02*
X288915D01*
X289343Y422678D01*
X289486Y422535D01*
X289629Y422250D01*
Y421821D01*
X289486Y421535D01*
X289343Y421393D01*
X288915Y421250D01*
X287629D01*
X290443Y423249D02*
X291300Y421250D01*
X292157Y423249D02*
X291300Y421250D01*
X291014Y420679D01*
X290728Y420393D01*
X290443Y420250D01*
X290300D01*
X292799Y423249D02*
X292657Y423107D01*
X292799Y422964D01*
X292942Y423107D01*
X292799Y423249D01*
Y421535D02*
X292657Y421393D01*
X292799Y421250D01*
X292942Y421393D01*
X292799Y421535D01*
X295956Y424249D02*
Y421250D01*
X297670D01*
X297998Y423249D02*
Y421821D01*
X298141Y421393D01*
X298427Y421250D01*
X298855D01*
X299141Y421393D01*
X299570Y421821D01*
Y423249D02*
Y421250D01*
X304711Y423821D02*
X304426Y424106D01*
X303997Y424249D01*
X303426D01*
X302997Y424106D01*
X302712Y423821D01*
Y423535D01*
X302854Y423249D01*
X302997Y423107D01*
X303283Y422964D01*
X304140Y422678D01*
X304426Y422535D01*
X304568Y422393D01*
X304711Y422107D01*
Y421678D01*
X304426Y421393D01*
X303997Y421250D01*
X303426D01*
X302997Y421393D01*
X302712Y421678D01*
X305382Y423249D02*
Y421821D01*
X305525Y421393D01*
X305811Y421250D01*
X306240D01*
X306525Y421393D01*
X306954Y421821D01*
Y423249D02*
Y421250D01*
X307739Y423249D02*
Y421250D01*
Y422678D02*
X308168Y423107D01*
X308453Y423249D01*
X308882D01*
X309168Y423107D01*
X309310Y422678D01*
Y421250D01*
D69*
X230000Y428699D02*
Y423700D01*
Y428699D02*
X231904Y423700D01*
X233809Y428699D02*
X231904Y423700D01*
X233809Y428699D02*
Y423700D01*
X236427Y427033D02*
X235951Y426795D01*
X235475Y426319D01*
X235237Y425604D01*
Y425128D01*
X235475Y424414D01*
X235951Y423938D01*
X236427Y423700D01*
X237141D01*
X237617Y423938D01*
X238093Y424414D01*
X238332Y425128D01*
Y425604D01*
X238093Y426319D01*
X237617Y426795D01*
X237141Y427033D01*
X236427D01*
X240141Y428699D02*
Y424652D01*
X240379Y423938D01*
X240855Y423700D01*
X241331D01*
X239426Y427033D02*
X241093D01*
X242521Y428699D02*
X242759Y428461D01*
X242997Y428699D01*
X242759Y428937D01*
X242521Y428699D01*
X242759Y427033D02*
Y423700D01*
X245068Y427033D02*
X244592Y426795D01*
X244116Y426319D01*
X243878Y425604D01*
Y425128D01*
X244116Y424414D01*
X244592Y423938D01*
X245068Y423700D01*
X245782D01*
X246258Y423938D01*
X246734Y424414D01*
X246973Y425128D01*
Y425604D01*
X246734Y426319D01*
X246258Y426795D01*
X245782Y427033D01*
X245068D01*
X248068D02*
Y423700D01*
Y426080D02*
X248782Y426795D01*
X249258Y427033D01*
X249972D01*
X250448Y426795D01*
X250686Y426080D01*
Y423700D01*
X251995Y428699D02*
Y423700D01*
Y428699D02*
X255328Y423700D01*
Y428699D02*
Y423700D01*
X256709Y425604D02*
X259565D01*
Y426080D01*
X259327Y426556D01*
X259089Y426795D01*
X258613Y427033D01*
X257899D01*
X257423Y426795D01*
X256947Y426319D01*
X256709Y425604D01*
Y425128D01*
X256947Y424414D01*
X257423Y423938D01*
X257899Y423700D01*
X258613D01*
X259089Y423938D01*
X259565Y424414D01*
X261350Y428699D02*
Y424652D01*
X261589Y423938D01*
X262065Y423700D01*
X262541D01*
X260636Y427033D02*
X262303D01*
X232476Y421099D02*
X230000D01*
Y417100D01*
X232476D01*
X230000Y419195D02*
X231523D01*
X235808Y420528D02*
X235427Y420909D01*
X234856Y421099D01*
X234094D01*
X233523Y420909D01*
X233142Y420528D01*
Y420147D01*
X233333Y419766D01*
X233523Y419576D01*
X233904Y419385D01*
X235047Y419004D01*
X235427Y418814D01*
X235618Y418623D01*
X235808Y418243D01*
Y417671D01*
X235427Y417290D01*
X234856Y417100D01*
X234094D01*
X233523Y417290D01*
X233142Y417671D01*
X239369Y420528D02*
X238988Y420909D01*
X238417Y421099D01*
X237655D01*
X237084Y420909D01*
X236703Y420528D01*
Y420147D01*
X236894Y419766D01*
X237084Y419576D01*
X237465Y419385D01*
X238608Y419004D01*
X238988Y418814D01*
X239179Y418623D01*
X239369Y418243D01*
Y417671D01*
X238988Y417290D01*
X238417Y417100D01*
X237655D01*
X237084Y417290D01*
X236703Y417671D01*
X240265Y419004D02*
X241978D01*
X242550Y419195D01*
X242740Y419385D01*
X242931Y419766D01*
Y420337D01*
X242740Y420718D01*
X242550Y420909D01*
X241978Y421099D01*
X240265D01*
Y417100D01*
X243826Y418814D02*
X247253D01*
X248434Y421099D02*
Y418243D01*
X248625Y417671D01*
X249006Y417290D01*
X249577Y417100D01*
X249958D01*
X250529Y417290D01*
X250910Y417671D01*
X251100Y418243D01*
Y421099D01*
X253538D02*
Y417100D01*
X252205Y421099D02*
X254871D01*
X255347D02*
Y417100D01*
Y421099D02*
X256680D01*
X257251Y420909D01*
X257632Y420528D01*
X257823Y420147D01*
X258013Y419576D01*
Y418623D01*
X257823Y418052D01*
X257632Y417671D01*
X257251Y417290D01*
X256680Y417100D01*
X255347D01*
X261193Y419766D02*
Y417100D01*
Y419195D02*
X260812Y419576D01*
X260432Y419766D01*
X259860D01*
X259479Y419576D01*
X259099Y419195D01*
X258908Y418623D01*
Y418243D01*
X259099Y417671D01*
X259479Y417290D01*
X259860Y417100D01*
X260432D01*
X260812Y417290D01*
X261193Y417671D01*
X262260Y421099D02*
Y417100D01*
X263098Y421099D02*
Y417100D01*
X266221Y419766D02*
Y417100D01*
Y419195D02*
X265840Y419576D01*
X265459Y419766D01*
X264888D01*
X264507Y419576D01*
X264126Y419195D01*
X263936Y418623D01*
Y418243D01*
X264126Y417671D01*
X264507Y417290D01*
X264888Y417100D01*
X265459D01*
X265840Y417290D01*
X266221Y417671D01*
X269382Y419195D02*
X269192Y419576D01*
X268620Y419766D01*
X268049D01*
X267478Y419576D01*
X267287Y419195D01*
X267478Y418814D01*
X267859Y418623D01*
X268811Y418433D01*
X269192Y418243D01*
X269382Y417862D01*
Y417671D01*
X269192Y417290D01*
X268620Y417100D01*
X268049D01*
X267478Y417290D01*
X267287Y417671D01*
M02*
