%FSLAX25Y25*%
%MOIN*%
G70*
G01*
G75*
G04 Layer_Color=8421504*
%ADD10R,0.03937X0.03740*%
%ADD11R,0.25984X0.25984*%
%ADD12O,0.00945X0.02362*%
%ADD13O,0.02362X0.00945*%
%ADD14R,0.02165X0.02362*%
%ADD15R,0.02362X0.02165*%
%ADD16R,0.03740X0.03937*%
%ADD17C,0.00984*%
%ADD18R,0.01772X0.05433*%
%ADD19R,0.09350X0.07480*%
%ADD20R,0.04606X0.07480*%
%ADD21R,0.05807X0.08268*%
%ADD22R,0.03150X0.00984*%
%ADD23R,0.00984X0.03150*%
%ADD24R,0.03937X0.02165*%
%ADD25R,0.04134X0.02362*%
%ADD26R,0.06693X0.06693*%
%ADD27O,0.03347X0.01102*%
%ADD28O,0.01102X0.03347*%
%ADD29R,0.03150X0.03740*%
%ADD30R,0.06299X0.07087*%
%ADD31R,0.01378X0.03937*%
%ADD32R,0.06299X0.03150*%
%ADD33C,0.01200*%
%ADD34C,0.00800*%
%ADD35C,0.01500*%
%ADD36C,0.02000*%
%ADD37C,0.01000*%
%ADD38C,0.01826*%
%ADD39R,0.04000X0.04100*%
%ADD40R,0.01300X0.04400*%
%ADD41R,0.04000X0.04200*%
%ADD42C,0.05906*%
%ADD43R,0.05906X0.05906*%
%ADD44C,0.02200*%
%ADD45C,0.04331*%
%ADD46C,0.05000*%
%ADD47C,0.04000*%
%ADD48R,0.06728X0.02402*%
%ADD49C,0.03098*%
%ADD50R,0.02362X0.03937*%
%ADD51R,0.03937X0.02362*%
%ADD52R,0.07500X0.05500*%
%ADD53R,0.07100X0.05500*%
%ADD54R,0.05500X0.07500*%
%ADD55R,0.03200X0.05900*%
%ADD56R,0.04724X0.04331*%
%ADD57R,0.05906X0.03150*%
%ADD58R,0.02402X0.06728*%
%ADD59C,0.01800*%
%ADD60C,0.01181*%
%ADD61C,0.01969*%
%ADD62R,0.02362X0.02362*%
%ADD63C,0.00394*%
%ADD64C,0.00591*%
%ADD65C,0.00787*%
%ADD66C,0.00315*%
%ADD67C,0.00400*%
%ADD68C,0.00600*%
%ADD69C,0.00700*%
D10*
X316750Y304700D02*
D03*
X310450D02*
D03*
X309750Y389600D02*
D03*
X303450D02*
D03*
X316750Y310700D02*
D03*
X310450D02*
D03*
X239150Y312400D02*
D03*
X232850D02*
D03*
X269150Y387800D02*
D03*
X262850D02*
D03*
X269150Y381800D02*
D03*
X262850D02*
D03*
X239150Y348900D02*
D03*
X232850D02*
D03*
X239150Y342700D02*
D03*
X232850D02*
D03*
Y336700D02*
D03*
X239150D02*
D03*
X232850Y330700D02*
D03*
X239150D02*
D03*
Y324700D02*
D03*
X232850D02*
D03*
X239150Y318700D02*
D03*
X232850D02*
D03*
X262850Y348700D02*
D03*
X269150D02*
D03*
X262850Y342700D02*
D03*
X269150D02*
D03*
X262850Y336700D02*
D03*
X269150D02*
D03*
X262850Y330700D02*
D03*
X269150D02*
D03*
Y324700D02*
D03*
X262850D02*
D03*
X269150Y318700D02*
D03*
X262850D02*
D03*
X247850Y312300D02*
D03*
X254150D02*
D03*
X262850D02*
D03*
X269150D02*
D03*
Y394000D02*
D03*
X262850D02*
D03*
X322350Y352300D02*
D03*
X316050D02*
D03*
Y346300D02*
D03*
X322350D02*
D03*
X309750Y401600D02*
D03*
X303450D02*
D03*
X309750Y395600D02*
D03*
X303450D02*
D03*
X322350Y364300D02*
D03*
X316050D02*
D03*
X322350Y358300D02*
D03*
X316050D02*
D03*
X232850Y354900D02*
D03*
X239150D02*
D03*
X310350Y316700D02*
D03*
X316650D02*
D03*
D11*
X291100Y365800D02*
D03*
D12*
X292084Y381154D02*
D03*
X294053D02*
D03*
X296021D02*
D03*
X297990D02*
D03*
X299958D02*
D03*
X301927D02*
D03*
X303895D02*
D03*
X290116D02*
D03*
X288147D02*
D03*
X286179D02*
D03*
X284210D02*
D03*
X282242D02*
D03*
X280273D02*
D03*
X278305D02*
D03*
Y350446D02*
D03*
X280273D02*
D03*
X282242D02*
D03*
X284210D02*
D03*
X286179D02*
D03*
X288147D02*
D03*
X290116D02*
D03*
X303895D02*
D03*
X301927D02*
D03*
X299958D02*
D03*
X297990D02*
D03*
X296021D02*
D03*
X294053D02*
D03*
X292084D02*
D03*
D13*
X306454Y353005D02*
D03*
Y354973D02*
D03*
Y356942D02*
D03*
Y358910D02*
D03*
Y360879D02*
D03*
Y362847D02*
D03*
Y364816D02*
D03*
Y378595D02*
D03*
Y376627D02*
D03*
Y374658D02*
D03*
Y372690D02*
D03*
Y370721D02*
D03*
Y368753D02*
D03*
Y366784D02*
D03*
X275746Y353005D02*
D03*
Y354973D02*
D03*
Y356942D02*
D03*
Y358910D02*
D03*
Y360879D02*
D03*
Y362847D02*
D03*
Y364816D02*
D03*
Y378595D02*
D03*
Y376627D02*
D03*
Y374658D02*
D03*
Y372690D02*
D03*
Y370721D02*
D03*
Y368753D02*
D03*
Y366784D02*
D03*
D14*
X321200Y407227D02*
D03*
Y410573D02*
D03*
Y399473D02*
D03*
Y396127D02*
D03*
D15*
X321173Y403100D02*
D03*
X317827D02*
D03*
D16*
X277400Y335950D02*
D03*
Y329650D02*
D03*
X310400Y338650D02*
D03*
Y332350D02*
D03*
X304300Y338650D02*
D03*
Y332350D02*
D03*
X239100Y365850D02*
D03*
Y372150D02*
D03*
X251300Y365850D02*
D03*
Y372150D02*
D03*
X247500Y408350D02*
D03*
Y402050D02*
D03*
X267000Y402150D02*
D03*
Y408450D02*
D03*
X234500Y408350D02*
D03*
Y402050D02*
D03*
X273500Y402150D02*
D03*
Y408450D02*
D03*
X254000Y408350D02*
D03*
Y402050D02*
D03*
X260500Y408450D02*
D03*
Y402150D02*
D03*
X241000Y408350D02*
D03*
Y402050D02*
D03*
X245100Y365850D02*
D03*
Y372150D02*
D03*
X257500Y365850D02*
D03*
Y372150D02*
D03*
X232800Y372250D02*
D03*
Y365950D02*
D03*
X316400Y338750D02*
D03*
Y332450D02*
D03*
D17*
X277987Y321213D02*
D03*
X276413D02*
D03*
Y322787D02*
D03*
X277987D02*
D03*
X236587Y394913D02*
D03*
X235013D02*
D03*
Y396487D02*
D03*
X236587D02*
D03*
D18*
X245893Y303265D02*
D03*
X240775D02*
D03*
X251011D02*
D03*
X248452D02*
D03*
X243334D02*
D03*
D19*
X234426Y292792D02*
D03*
X257360D02*
D03*
D20*
X249180D02*
D03*
X242605D02*
D03*
D21*
X255588Y301847D02*
D03*
X236198D02*
D03*
D22*
X257274Y380879D02*
D03*
Y382847D02*
D03*
Y384816D02*
D03*
Y386784D02*
D03*
Y388753D02*
D03*
Y390721D02*
D03*
X241526D02*
D03*
Y388753D02*
D03*
Y386784D02*
D03*
Y384816D02*
D03*
Y382847D02*
D03*
Y380879D02*
D03*
D23*
X244479Y393674D02*
D03*
X246447D02*
D03*
X248416D02*
D03*
X250384D02*
D03*
X252353D02*
D03*
X254321D02*
D03*
Y377926D02*
D03*
X252353D02*
D03*
X250384D02*
D03*
X248416D02*
D03*
X246447D02*
D03*
X244479D02*
D03*
D24*
X285985Y321860D02*
D03*
Y329340D02*
D03*
D25*
X296615D02*
D03*
Y321860D02*
D03*
Y325600D02*
D03*
D26*
X287600Y307700D02*
D03*
D27*
X281793Y308684D02*
D03*
Y306716D02*
D03*
Y304747D02*
D03*
Y310653D02*
D03*
X293407D02*
D03*
Y304747D02*
D03*
Y306716D02*
D03*
Y308684D02*
D03*
D28*
X288584Y313507D02*
D03*
X286616D02*
D03*
X284647D02*
D03*
X290553D02*
D03*
Y301893D02*
D03*
X284647D02*
D03*
X286616D02*
D03*
X288584D02*
D03*
D29*
X247557Y348900D02*
D03*
X254643D02*
D03*
X247557Y342700D02*
D03*
X254643D02*
D03*
X254543Y336700D02*
D03*
X247457D02*
D03*
X254543Y330700D02*
D03*
X247457D02*
D03*
Y324700D02*
D03*
X254543D02*
D03*
X247457Y318700D02*
D03*
X254543D02*
D03*
X254643Y354900D02*
D03*
X247557D02*
D03*
D30*
X278812Y292600D02*
D03*
X267788D02*
D03*
X287588D02*
D03*
X298612D02*
D03*
D31*
X313559Y369913D02*
D03*
X311000D02*
D03*
X316118D02*
D03*
Y377000D02*
D03*
X311000D02*
D03*
X313559D02*
D03*
D32*
X321100Y427993D02*
D03*
Y414607D02*
D03*
M02*
