M48
;Layer_Color=9474304
;FILE_FORMAT=2:5
INCH,LZ
;TYPE=PLATED
T1F00S00C0.01100
T3F00S00C0.03543
T4F00S00C0.04331
%
T01
X02349Y03086
X02433Y03082
X0247Y02986
X02603
X02604Y03017
X02682Y03035
X02715Y03015
X02748Y03028
X0276Y03001
X02787Y03027
X02727Y02934
X03032Y02972
X03034Y03164
X0299Y03126
X0292947Y0313207
X0284Y03189
X0281Y03214
X02826Y03252
X02811Y03305
X02832Y03328
X02884Y03333
X02915Y03332
X02989Y03325
X02979Y03372
X02965Y03397
X02995Y03398
Y03426
X03044Y03477
X0308Y03482
X03094Y03507
Y03537
X03093Y03567
X03121Y03624
X03101Y03648
X03084Y03746
X03086Y03816
X03098Y0386
X0303Y03856
X03001
X0291Y03867
X02883Y03853
X02824Y03864
Y03893
X02811Y03974
X02845Y04024
X0281Y04094
X02726Y04153
X02702Y03991
X0266Y03909
X0273Y03853
X02709Y03726
X0268Y03725
X02656Y03706
X0268Y03665
X02703Y03634
X02637Y03637
X02606Y03636
X0252Y03621
X02486
X02482Y03689
X02421Y0369
X02359Y03691
X02361Y03752
X02373Y03822
X02374Y03884
X02352Y03904
X02448Y03901
X02474Y03886
X0253Y03889
Y03837
X02463Y03816
X026Y03787
X02632Y03754
X02648Y03526
X02606Y03522
X0266Y03457
X02659Y03398
X02586Y034
X02587Y03337
X02585Y03275
X0251Y03277
Y03218
Y03158
X02586Y03165
X02764Y03162
X02808Y0316
X02729Y03213
X0276Y03412
X0278Y03437
X0282Y0338
X03098Y03431
X03099Y03461
X02939Y03903
X02969Y03992
X02989Y04012
X02955Y04039
X02957Y04071
X02638Y04053
X02577Y04051
X02513Y04049
X02509Y03989
X02569Y03966
X0241Y03976
X02376Y03982
X02443Y04053
X02349Y03622
X0236Y03519
Y03397
X02436Y03457
X02432Y03283
X02435Y03215
X0251Y03337
X03164Y03425
X03192Y03613
X03196Y03683
X03139Y03207
T03
X03186Y02955
X03086
T04
X02893Y03907
X02933Y04107
X0284946
M30
