%FSLAX25Y25*%
%MOIN*%
G70*
G01*
G75*
G04 Layer_Color=16711935*
%ADD10R,0.03937X0.03740*%
%ADD11R,0.25984X0.25984*%
%ADD12O,0.00945X0.02362*%
%ADD13O,0.02362X0.00945*%
%ADD14R,0.02165X0.02362*%
%ADD15R,0.02362X0.02165*%
%ADD16R,0.03740X0.03937*%
%ADD17C,0.00984*%
%ADD18R,0.01772X0.05433*%
%ADD19R,0.09350X0.07480*%
%ADD20R,0.04606X0.07480*%
%ADD21R,0.05807X0.08268*%
%ADD22R,0.03150X0.00984*%
%ADD23R,0.00984X0.03150*%
%ADD24R,0.03937X0.02165*%
%ADD25R,0.04134X0.02362*%
%ADD26R,0.06693X0.06693*%
%ADD27O,0.03347X0.01102*%
%ADD28O,0.01102X0.03347*%
%ADD29R,0.03150X0.03740*%
%ADD30R,0.06299X0.07087*%
%ADD31R,0.01378X0.03937*%
%ADD32R,0.06299X0.03150*%
%ADD33C,0.01200*%
%ADD34C,0.00800*%
%ADD35C,0.01500*%
%ADD36C,0.02000*%
%ADD37C,0.01000*%
%ADD38C,0.01826*%
%ADD39R,0.04000X0.04100*%
%ADD40R,0.01300X0.04400*%
%ADD41R,0.04000X0.04200*%
%ADD42C,0.05906*%
%ADD43R,0.05906X0.05906*%
%ADD44C,0.02200*%
%ADD45C,0.04331*%
%ADD46C,0.05000*%
%ADD47C,0.04000*%
%ADD48R,0.06728X0.02402*%
%ADD49C,0.03098*%
%ADD50R,0.02362X0.03937*%
%ADD51R,0.03937X0.02362*%
%ADD52R,0.07500X0.05500*%
%ADD53R,0.07100X0.05500*%
%ADD54R,0.05500X0.07500*%
%ADD55R,0.03200X0.05900*%
%ADD56R,0.04724X0.04331*%
%ADD57R,0.05906X0.03150*%
%ADD58R,0.02402X0.06728*%
%ADD59C,0.01800*%
%ADD60C,0.01181*%
%ADD61C,0.01969*%
%ADD62R,0.02362X0.02362*%
%ADD63C,0.00394*%
%ADD64C,0.00591*%
%ADD65C,0.00787*%
%ADD66C,0.00315*%
%ADD67C,0.00400*%
%ADD68C,0.00600*%
%ADD69C,0.00700*%
%ADD70R,0.04737X0.04540*%
%ADD71R,0.26784X0.26784*%
%ADD72O,0.01745X0.03162*%
%ADD73O,0.03162X0.01745*%
%ADD74R,0.02965X0.03162*%
%ADD75R,0.03162X0.02965*%
%ADD76R,0.04540X0.04737*%
%ADD77C,0.01784*%
%ADD78R,0.10150X0.08280*%
%ADD79R,0.05406X0.08280*%
%ADD80R,0.06607X0.09068*%
%ADD81R,0.03950X0.01784*%
%ADD82R,0.01784X0.03950*%
%ADD83R,0.04737X0.02965*%
%ADD84R,0.04934X0.03162*%
%ADD85R,0.07493X0.07493*%
%ADD86O,0.04147X0.01902*%
%ADD87O,0.01902X0.04147*%
%ADD88R,0.03950X0.04540*%
%ADD89R,0.07099X0.07887*%
%ADD90R,0.02178X0.04737*%
%ADD91R,0.07099X0.03950*%
%ADD92C,0.06706*%
%ADD93R,0.06706X0.06706*%
%ADD94C,0.03000*%
%ADD95C,0.05131*%
%ADD96C,0.05800*%
%ADD97C,0.04800*%
%ADD98R,0.07528X0.03202*%
%ADD99C,0.03898*%
%ADD100R,0.02756X0.04331*%
%ADD101R,0.04331X0.02756*%
%ADD102R,0.08300X0.06300*%
%ADD103R,0.07900X0.06300*%
%ADD104R,0.06300X0.08300*%
%ADD105R,0.04000X0.06700*%
%ADD106R,0.05524X0.05131*%
%ADD107R,0.06706X0.03950*%
%ADD108R,0.03202X0.07528*%
D70*
X316050Y358300D02*
D03*
X322350D02*
D03*
X316050Y346300D02*
D03*
X322350D02*
D03*
Y352300D02*
D03*
X316050D02*
D03*
Y364300D02*
D03*
X322350D02*
D03*
X314050Y389600D02*
D03*
X320350D02*
D03*
X320250Y401600D02*
D03*
X313950D02*
D03*
X320250Y395600D02*
D03*
X313950D02*
D03*
D76*
X296000Y322850D02*
D03*
Y329150D02*
D03*
X289200Y374750D02*
D03*
Y381050D02*
D03*
X283200D02*
D03*
Y374750D02*
D03*
X295200Y381150D02*
D03*
Y374850D02*
D03*
X301300Y381150D02*
D03*
Y374850D02*
D03*
X290000Y329150D02*
D03*
Y322850D02*
D03*
X302000D02*
D03*
Y329150D02*
D03*
X308200D02*
D03*
Y322850D02*
D03*
D77*
X285187Y365913D02*
D03*
Y367487D02*
D03*
X283613D02*
D03*
Y365913D02*
D03*
D92*
X308600Y295500D02*
D03*
D93*
X318600D02*
D03*
D94*
X260600Y352200D02*
D03*
X284000Y318900D02*
D03*
X268200Y303500D02*
D03*
X280800Y316000D02*
D03*
X276000Y300100D02*
D03*
X252000Y362100D02*
D03*
X291500Y333200D02*
D03*
X296500Y339700D02*
D03*
X299500Y339800D02*
D03*
Y342600D02*
D03*
X297900Y337200D02*
D03*
X308400Y374600D02*
D03*
X308600Y381600D02*
D03*
X308000Y348200D02*
D03*
X310100Y364800D02*
D03*
X312100Y362400D02*
D03*
X316400Y342500D02*
D03*
X270300Y363400D02*
D03*
X268000Y366500D02*
D03*
X263700Y363700D02*
D03*
X319200Y361300D02*
D03*
X309400Y350700D02*
D03*
Y353700D02*
D03*
X309300Y356700D02*
D03*
X309800Y386000D02*
D03*
X319600Y368300D02*
D03*
X258600Y340000D02*
D03*
X244300Y405300D02*
D03*
X257700Y405100D02*
D03*
X263800Y405300D02*
D03*
X243200Y328300D02*
D03*
X243500Y321500D02*
D03*
X234900Y308600D02*
D03*
X243300Y308200D02*
D03*
X282000Y338000D02*
D03*
X266000Y345700D02*
D03*
X246300Y381600D02*
D03*
X237300Y382200D02*
D03*
X251300Y404900D02*
D03*
X241000Y397600D02*
D03*
X271500Y301500D02*
D03*
X247000Y298600D02*
D03*
X260300D02*
D03*
X251000Y333700D02*
D03*
Y327700D02*
D03*
Y321800D02*
D03*
X237400Y388400D02*
D03*
X236000Y351900D02*
D03*
X265900Y339800D02*
D03*
X258700Y333700D02*
D03*
X258500Y327500D02*
D03*
X260400Y301700D02*
D03*
X258600Y316500D02*
D03*
X251000Y315800D02*
D03*
X272900Y321300D02*
D03*
X281000Y409400D02*
D03*
X278000Y343700D02*
D03*
X276000Y341200D02*
D03*
X272600Y415300D02*
D03*
X237600Y398200D02*
D03*
X253000Y388900D02*
D03*
Y383700D02*
D03*
X250900Y398900D02*
D03*
X256900Y396600D02*
D03*
X284500Y402400D02*
D03*
X281100Y397400D02*
D03*
X270200Y399100D02*
D03*
X295700Y407100D02*
D03*
X298900Y401200D02*
D03*
X295500Y403900D02*
D03*
X296900Y399200D02*
D03*
X291000Y386700D02*
D03*
X282400Y389300D02*
D03*
Y386400D02*
D03*
X288300Y385300D02*
D03*
X293900Y390300D02*
D03*
X266000Y390900D02*
D03*
X273000Y385300D02*
D03*
X236100Y375200D02*
D03*
X248200Y368900D02*
D03*
X235200Y390400D02*
D03*
X244800Y390100D02*
D03*
X247400Y388600D02*
D03*
X270900Y372600D02*
D03*
X268000Y372500D02*
D03*
X265600Y370600D02*
D03*
X234900Y362200D02*
D03*
X248600Y362100D02*
D03*
X235900Y369100D02*
D03*
X242100Y369000D02*
D03*
X260000Y378700D02*
D03*
X260600Y363600D02*
D03*
X300100Y385600D02*
D03*
X303000D02*
D03*
X263200Y375400D02*
D03*
X236000Y339700D02*
D03*
X243600Y345700D02*
D03*
X264800Y352600D02*
D03*
X272700Y293400D02*
D03*
X288400Y333300D02*
D03*
X278700Y302700D02*
D03*
X292947Y313207D02*
D03*
X303200Y297200D02*
D03*
X309900Y346100D02*
D03*
X304400Y347700D02*
D03*
X309800Y343100D02*
D03*
X283200Y332800D02*
D03*
X274800Y302800D02*
D03*
X276400Y316200D02*
D03*
X281000Y321400D02*
D03*
X282600Y325200D02*
D03*
X281100Y330500D02*
D03*
X298900Y332500D02*
D03*
X299000Y312600D02*
D03*
X303400Y316400D02*
D03*
X313900Y320700D02*
D03*
D95*
X289300Y390700D02*
D03*
X293300Y410700D02*
D03*
X284946D02*
D03*
D98*
X291066Y344137D02*
D03*
X304334D02*
D03*
Y336231D02*
D03*
Y340168D02*
D03*
X291066D02*
D03*
Y336231D02*
D03*
X319334Y313668D02*
D03*
Y309732D02*
D03*
X306066D02*
D03*
Y313668D02*
D03*
D99*
X291800Y400700D02*
D03*
Y405700D02*
D03*
Y395700D02*
D03*
X286800Y400700D02*
D03*
Y405700D02*
D03*
Y395700D02*
D03*
D100*
X247801Y358361D02*
D03*
X250950D02*
D03*
X254100D02*
D03*
X257249D02*
D03*
X260399D02*
D03*
X263549D02*
D03*
X266698D02*
D03*
X269848D02*
D03*
X272997D02*
D03*
X244651D02*
D03*
X241501D02*
D03*
X238352D02*
D03*
X235202D02*
D03*
D101*
X276935Y425290D02*
D03*
Y422141D02*
D03*
Y418991D02*
D03*
Y415841D02*
D03*
Y412692D02*
D03*
Y409542D02*
D03*
Y406393D02*
D03*
Y403243D02*
D03*
Y400093D02*
D03*
Y396944D02*
D03*
Y393794D02*
D03*
Y390645D02*
D03*
Y387495D02*
D03*
Y384345D02*
D03*
Y381196D02*
D03*
Y378046D02*
D03*
Y374897D02*
D03*
Y371747D02*
D03*
Y368597D02*
D03*
Y365448D02*
D03*
Y362298D02*
D03*
X231265D02*
D03*
Y365448D02*
D03*
Y368597D02*
D03*
Y371747D02*
D03*
Y374897D02*
D03*
Y378046D02*
D03*
Y381196D02*
D03*
Y384345D02*
D03*
Y387495D02*
D03*
Y390645D02*
D03*
Y393794D02*
D03*
Y396944D02*
D03*
Y400093D02*
D03*
Y403243D02*
D03*
Y406393D02*
D03*
Y409542D02*
D03*
Y412692D02*
D03*
D102*
X254700Y348300D02*
D03*
D103*
X277400D02*
D03*
D104*
X231800Y292600D02*
D03*
X283600Y296500D02*
D03*
D105*
X280500Y307700D02*
D03*
X276200D02*
D03*
X271900Y306900D02*
D03*
X267600Y307700D02*
D03*
X263300Y306900D02*
D03*
X259000Y307700D02*
D03*
X254700Y309300D02*
D03*
X250400Y307700D02*
D03*
D106*
X301134Y360947D02*
D03*
X292866D02*
D03*
Y366853D02*
D03*
X301134D02*
D03*
D107*
X306000Y393369D02*
D03*
Y402031D02*
D03*
D108*
X293332Y306734D02*
D03*
X297269D02*
D03*
Y293466D02*
D03*
X293332D02*
D03*
M02*
