%FSLAX25Y25*%
%MOIN*%
G70*
G01*
G75*
G04 Layer_Physical_Order=3*
G04 Layer_Color=16440176*
%ADD10R,0.03937X0.03740*%
%ADD11R,0.25984X0.25984*%
%ADD12O,0.00945X0.02362*%
%ADD13O,0.02362X0.00945*%
%ADD14R,0.02165X0.02362*%
%ADD15R,0.02362X0.02165*%
%ADD16R,0.03740X0.03937*%
%ADD17C,0.00984*%
%ADD18R,0.01772X0.05433*%
%ADD19R,0.09350X0.07480*%
%ADD20R,0.04606X0.07480*%
%ADD21R,0.05807X0.08268*%
%ADD22R,0.03150X0.00984*%
%ADD23R,0.00984X0.03150*%
%ADD24R,0.03937X0.02165*%
%ADD25R,0.04134X0.02362*%
%ADD26R,0.06693X0.06693*%
%ADD27O,0.03347X0.01102*%
%ADD28O,0.01102X0.03347*%
%ADD29R,0.03150X0.03740*%
%ADD30R,0.06299X0.07087*%
%ADD31R,0.01378X0.03937*%
%ADD32R,0.06299X0.03150*%
%ADD33C,0.01200*%
%ADD34C,0.00800*%
%ADD35C,0.01500*%
%ADD36C,0.02000*%
%ADD37C,0.01000*%
%ADD38C,0.01826*%
%ADD39R,0.04000X0.04100*%
%ADD40R,0.01300X0.04400*%
%ADD41R,0.04000X0.04200*%
%ADD42C,0.05906*%
%ADD43R,0.05906X0.05906*%
%ADD44C,0.02200*%
%ADD45C,0.04331*%
%ADD46C,0.05000*%
%ADD47C,0.04000*%
D33*
X242100Y347200D02*
X243600Y345700D01*
X235900Y369100D02*
X238000Y367000D01*
Y353900D02*
Y367000D01*
X271900Y296300D02*
X275700Y300100D01*
X236000Y351900D02*
X238000Y353900D01*
X266100Y374800D02*
Y390800D01*
X260700Y369400D02*
X266100Y374800D01*
X260700Y364100D02*
Y369400D01*
X234900Y306100D02*
Y308600D01*
Y306100D02*
X244700Y296300D01*
X266000Y390900D02*
X266100Y390800D01*
X260100Y363500D02*
X260700Y364100D01*
X260600Y361310D02*
Y363650D01*
Y361310D02*
X264800Y357110D01*
Y352600D02*
Y357110D01*
X242100Y347200D02*
Y369000D01*
X244700Y296300D02*
X271900D01*
X282000Y338000D02*
X293000D01*
X298200Y332800D01*
D34*
X236900Y331900D02*
X251800Y346800D01*
X236900Y311500D02*
Y331900D01*
Y311500D02*
X247000Y301400D01*
Y298600D02*
Y301400D01*
X243300Y308200D02*
Y310500D01*
X238900Y314900D02*
X243300Y310500D01*
X259800Y307000D02*
X269400D01*
X278700Y313900D02*
X280800Y316000D01*
X248000Y362100D02*
X251800Y358300D01*
Y346800D02*
Y358300D01*
X251100Y321700D02*
X257300D01*
X286300Y345500D02*
X309300D01*
X268250Y327450D02*
X286300Y345500D01*
X308000Y348200D02*
Y348900D01*
X302100Y354800D02*
X308000Y348900D01*
X253300Y401200D02*
X274300D01*
X235200Y394600D02*
X237400Y392400D01*
X285900Y347900D02*
X304300D01*
X267600Y329600D02*
X285900Y347900D01*
X256500Y329600D02*
X267600D01*
X258550Y327450D02*
X268250D01*
X293500Y395200D02*
X297700Y391000D01*
Y373400D02*
Y391000D01*
Y373400D02*
X302100Y369000D01*
X251600Y330800D02*
X254400Y333600D01*
X250500Y330800D02*
X251600D01*
X251100Y327700D02*
X254600Y331200D01*
X248700Y323000D02*
X250400Y324700D01*
X251600D01*
X251000Y321800D02*
X251100Y321700D01*
X258500Y327400D02*
X258550Y327450D01*
X240700Y329500D02*
X251200Y340000D01*
X251000Y321400D02*
Y321700D01*
X254400Y333600D02*
X258700D01*
X238900Y314900D02*
Y330600D01*
X251600Y324700D02*
X256500Y329600D01*
X251000Y333500D02*
X253700Y336200D01*
X240700Y316800D02*
Y329500D01*
Y316800D02*
X258900Y298600D01*
X260300D01*
X247200Y327500D02*
X250500Y330800D01*
X302100Y354800D02*
Y369000D01*
X246300Y381600D02*
X254200D01*
X284500Y397400D02*
Y402400D01*
Y397400D02*
X286700Y395200D01*
X293500D01*
X254200Y381600D02*
X256600Y384000D01*
X283600Y391500D02*
X287700Y387400D01*
X291000D01*
X291500Y393800D02*
X293500Y391800D01*
Y390900D02*
Y391800D01*
X274300Y401200D02*
X281700Y393800D01*
X291500D01*
X270200Y399100D02*
X274300D01*
X281900Y391500D01*
X283600D01*
X281400Y389300D02*
X282400D01*
X281500Y386400D02*
X282400D01*
X237400Y388400D02*
Y392400D01*
X236700Y376000D02*
X239700Y379000D01*
X260000D01*
X263200Y375000D02*
Y375400D01*
X237200Y383000D02*
X241400Y387200D01*
X243500Y321500D02*
X245500Y323500D01*
Y331600D01*
X251800Y337900D01*
X254600Y331200D02*
X264800D01*
X274800Y341200D01*
X276000D01*
X253700Y336200D02*
X265900D01*
X273400Y343700D01*
X278000D01*
X268400Y342300D02*
Y359000D01*
X263700Y363700D02*
X268400Y359000D01*
X265900Y339800D02*
X268400Y342300D01*
X251800Y337900D02*
X264000D01*
X265900Y339800D01*
X251200Y340000D02*
X258600D01*
X238900Y330600D02*
X260900Y352600D01*
X241400Y387200D02*
Y392300D01*
X309400Y353700D02*
X312600D01*
X309300Y356700D02*
X312900D01*
X247400Y388800D02*
Y398700D01*
X256600Y384000D02*
Y387400D01*
X262400Y393200D01*
X274700D01*
X281500Y386400D01*
X253000Y388900D02*
X259900Y395800D01*
X274900D01*
X281400Y389300D01*
X247400Y398700D02*
X251500Y402800D01*
X255400D01*
X257700Y405100D01*
X250900Y398800D02*
X253300Y401200D01*
X241400Y392300D02*
X243200Y394100D01*
Y400600D01*
X244800Y390100D02*
Y398400D01*
X251300Y404900D01*
X243200Y400600D02*
X250200Y407600D01*
X261500D01*
X263800Y405300D01*
X269100Y409400D02*
X281100Y397400D01*
X235200Y394600D02*
Y400500D01*
X244100Y409400D01*
X269100D01*
X248700Y315000D02*
Y323000D01*
X247200Y313500D02*
Y327500D01*
Y313500D02*
X259000Y301700D01*
X260400D01*
X272700Y293400D02*
X276800Y297500D01*
X276100Y326500D02*
X280100Y330500D01*
X273250Y303150D02*
X275150D01*
X257300Y321700D02*
X265100Y313900D01*
X248700Y315000D02*
X258600Y305100D01*
X266600D01*
X268200Y303500D01*
X251000Y315800D02*
X259800Y307000D01*
X269400D02*
X273250Y303150D01*
X276100Y316200D02*
Y326500D01*
X265100Y313900D02*
X278700D01*
X280100Y330500D02*
X281100D01*
X303200Y297200D02*
Y303500D01*
X276800Y297500D02*
X294700D01*
X288400Y332100D02*
Y333300D01*
Y332100D02*
X299500Y321000D01*
X313600D01*
X283200Y332800D02*
X299000Y317000D01*
Y312600D02*
Y317000D01*
X294700Y297500D02*
X319100Y321900D01*
Y347200D01*
X312600Y353700D02*
X319100Y347200D01*
X303200Y303500D02*
X321500Y321800D01*
Y348100D01*
X312900Y356700D02*
X321500Y348100D01*
D35*
X250600Y386100D02*
X253000Y383700D01*
X250600Y386100D02*
Y390500D01*
X256900Y396800D01*
X272600Y415300D02*
X294800D01*
X298600Y411500D01*
X298900Y401200D02*
X306500Y393600D01*
Y384600D02*
Y393600D01*
X305100Y383200D02*
X306500Y384600D01*
X305100Y378200D02*
Y383200D01*
X308400Y372100D02*
Y374600D01*
X250100Y375400D02*
X263200D01*
X245500Y370800D02*
X250100Y375400D01*
X245500Y360400D02*
Y370800D01*
Y360400D02*
X247700Y358200D01*
Y345700D02*
Y358200D01*
X234700Y332700D02*
X247700Y345700D01*
X234700Y308600D02*
Y332700D01*
X305100Y378200D02*
X308400Y374900D01*
Y372100D02*
X319200Y361300D01*
X298600Y401200D02*
Y411500D01*
D37*
X326400Y288000D02*
Y431500D01*
X228000Y288000D02*
X326400D01*
X228000Y431500D02*
X326400D01*
X228000Y288000D02*
Y431500D01*
D44*
X260600Y352200D02*
D03*
X268200Y303500D02*
D03*
X280800Y316000D02*
D03*
X276000Y300100D02*
D03*
X308400Y374600D02*
D03*
X308000Y348200D02*
D03*
X263700Y363700D02*
D03*
X319200Y361300D02*
D03*
X309400Y353700D02*
D03*
X309300Y356700D02*
D03*
X258600Y340000D02*
D03*
X257700Y405100D02*
D03*
X263800Y405300D02*
D03*
X243500Y321500D02*
D03*
X234900Y308600D02*
D03*
X243300Y308200D02*
D03*
X282000Y338000D02*
D03*
X246300Y381600D02*
D03*
X237300Y382200D02*
D03*
X251300Y404900D02*
D03*
X247000Y298600D02*
D03*
X260300D02*
D03*
X251000Y333700D02*
D03*
Y327700D02*
D03*
Y321800D02*
D03*
X237400Y388400D02*
D03*
X236000Y351900D02*
D03*
X265900Y339800D02*
D03*
X258700Y333700D02*
D03*
X258500Y327500D02*
D03*
X260400Y301700D02*
D03*
X251000Y315800D02*
D03*
X278000Y343700D02*
D03*
X276000Y341200D02*
D03*
X272600Y415300D02*
D03*
X253000Y388900D02*
D03*
Y383700D02*
D03*
X250900Y398900D02*
D03*
X256900Y396600D02*
D03*
X284500Y402400D02*
D03*
X281100Y397400D02*
D03*
X270200Y399100D02*
D03*
X298900Y401200D02*
D03*
X291000Y386700D02*
D03*
X282400Y389300D02*
D03*
Y386400D02*
D03*
X293900Y390300D02*
D03*
X266000Y390900D02*
D03*
X236100Y375200D02*
D03*
X244800Y390100D02*
D03*
X247400Y388600D02*
D03*
X248600Y362100D02*
D03*
X235900Y369100D02*
D03*
X242100Y369000D02*
D03*
X260000Y378700D02*
D03*
X260600Y363600D02*
D03*
X263200Y375400D02*
D03*
X243600Y345700D02*
D03*
X264800Y352600D02*
D03*
X272700Y293400D02*
D03*
X288400Y333300D02*
D03*
X303200Y297200D02*
D03*
X309900Y346100D02*
D03*
X304400Y347700D02*
D03*
X283200Y332800D02*
D03*
X274800Y302800D02*
D03*
X276400Y316200D02*
D03*
X281100Y330500D02*
D03*
X298900Y332500D02*
D03*
X299000Y312600D02*
D03*
X313900Y320700D02*
D03*
M02*
