%FSLAX25Y25*%
%MOIN*%
G70*
G01*
G75*
G04 Layer_Color=32896*
%ADD10R,0.03937X0.03740*%
%ADD11R,0.25984X0.25984*%
%ADD12O,0.00945X0.02362*%
%ADD13O,0.02362X0.00945*%
%ADD14R,0.02165X0.02362*%
%ADD15R,0.02362X0.02165*%
%ADD16R,0.03740X0.03937*%
%ADD17C,0.00984*%
%ADD18R,0.01772X0.05433*%
%ADD19R,0.09350X0.07480*%
%ADD20R,0.04606X0.07480*%
%ADD21R,0.05807X0.08268*%
%ADD22R,0.03150X0.00984*%
%ADD23R,0.00984X0.03150*%
%ADD24R,0.03937X0.02165*%
%ADD25R,0.04134X0.02362*%
%ADD26R,0.06693X0.06693*%
%ADD27O,0.03347X0.01102*%
%ADD28O,0.01102X0.03347*%
%ADD29R,0.03150X0.03740*%
%ADD30R,0.06299X0.07087*%
%ADD31R,0.01378X0.03937*%
%ADD32R,0.06299X0.03150*%
%ADD33C,0.01200*%
%ADD34C,0.00800*%
%ADD35C,0.01500*%
%ADD36C,0.02000*%
%ADD37C,0.01000*%
%ADD38C,0.01826*%
%ADD39R,0.04000X0.04100*%
%ADD40R,0.01300X0.04400*%
%ADD41R,0.04000X0.04200*%
%ADD42C,0.05906*%
%ADD43R,0.05906X0.05906*%
%ADD44C,0.02200*%
%ADD45C,0.04331*%
%ADD46C,0.05000*%
%ADD47C,0.04000*%
%ADD48R,0.06728X0.02402*%
%ADD49C,0.03098*%
%ADD50R,0.02362X0.03937*%
%ADD51R,0.03937X0.02362*%
%ADD52R,0.07500X0.05500*%
%ADD53R,0.07100X0.05500*%
%ADD54R,0.05500X0.07500*%
%ADD55R,0.03200X0.05900*%
%ADD56R,0.04724X0.04331*%
%ADD57R,0.05906X0.03150*%
%ADD58R,0.02402X0.06728*%
%ADD59C,0.01800*%
%ADD60C,0.01181*%
%ADD61C,0.01969*%
%ADD62R,0.02362X0.02362*%
%ADD63C,0.00394*%
%ADD64C,0.00591*%
%ADD65C,0.00787*%
%ADD66C,0.00315*%
%ADD67C,0.00400*%
%ADD68C,0.00600*%
%ADD69C,0.00700*%
%ADD70R,0.04737X0.04540*%
%ADD71R,0.26784X0.26784*%
%ADD72O,0.01745X0.03162*%
%ADD73O,0.03162X0.01745*%
%ADD74R,0.02965X0.03162*%
%ADD75R,0.03162X0.02965*%
%ADD76R,0.04540X0.04737*%
%ADD77C,0.01784*%
%ADD78R,0.10150X0.08280*%
%ADD79R,0.05406X0.08280*%
%ADD80R,0.06607X0.09068*%
%ADD81R,0.03950X0.01784*%
%ADD82R,0.01784X0.03950*%
%ADD83R,0.04737X0.02965*%
%ADD84R,0.04934X0.03162*%
%ADD85R,0.07493X0.07493*%
%ADD86O,0.04147X0.01902*%
%ADD87O,0.01902X0.04147*%
%ADD88R,0.03950X0.04540*%
%ADD89R,0.07099X0.07887*%
%ADD90R,0.02178X0.04737*%
%ADD91R,0.07099X0.03950*%
%ADD92C,0.06706*%
%ADD93R,0.06706X0.06706*%
%ADD94C,0.03000*%
%ADD95C,0.05131*%
%ADD96C,0.05800*%
%ADD97C,0.04800*%
%ADD98R,0.07528X0.03202*%
%ADD99C,0.03898*%
%ADD100R,0.02756X0.04331*%
%ADD101R,0.04331X0.02756*%
%ADD102R,0.08300X0.06300*%
%ADD103R,0.07900X0.06300*%
%ADD104R,0.06300X0.08300*%
%ADD105R,0.04000X0.06700*%
%ADD106R,0.05524X0.05131*%
%ADD107R,0.06706X0.03950*%
%ADD108R,0.03202X0.07528*%
D34*
X230000Y334925D02*
Y349900D01*
X285400Y302200D02*
X286400D01*
X285400Y290900D02*
X286400D01*
X260400Y349900D02*
X271900D01*
X285400Y290000D02*
Y290900D01*
X286400Y290000D02*
Y290900D01*
X236900Y290000D02*
X286400D01*
Y302200D02*
Y349900D01*
X282875D02*
X286400D01*
X230000D02*
X248900D01*
X230000Y298700D02*
Y334925D01*
X285400Y302200D02*
Y349900D01*
D60*
X282038Y367487D02*
D03*
D63*
X296780Y387200D02*
Y414200D01*
X281820Y387200D02*
Y414200D01*
Y387200D02*
X296780D01*
X281820Y414200D02*
X296780D01*
X322200Y360859D02*
X325027D01*
Y355741D02*
Y360859D01*
X322200Y355741D02*
X325027D01*
X313373Y360859D02*
X316200D01*
X313373Y355741D02*
Y360859D01*
Y355741D02*
X316200D01*
X293441Y329000D02*
Y331827D01*
X298559D01*
Y329000D02*
Y331827D01*
X293441Y320173D02*
Y323000D01*
Y320173D02*
X298559D01*
Y323000D01*
X322200Y348859D02*
X325027D01*
Y343741D02*
Y348859D01*
X322200Y343741D02*
X325027D01*
X313373Y348859D02*
X316200D01*
X313373Y343741D02*
Y348859D01*
Y343741D02*
X316200D01*
X313373Y349741D02*
X316200D01*
X313373D02*
Y354859D01*
X316200D01*
X322200Y349741D02*
X325027D01*
Y354859D01*
X322200D02*
X325027D01*
X322200Y366859D02*
X325027D01*
Y361741D02*
Y366859D01*
X322200Y361741D02*
X325027D01*
X313373Y366859D02*
X316200D01*
X313373Y361741D02*
Y366859D01*
Y361741D02*
X316200D01*
X286641Y380900D02*
Y383727D01*
X291759D01*
Y380900D02*
Y383727D01*
X286641Y372073D02*
Y374900D01*
Y372073D02*
X291759D01*
Y374900D01*
X285759Y372073D02*
Y374900D01*
X280641Y372073D02*
X285759D01*
X280641D02*
Y374900D01*
X285759Y380900D02*
Y383727D01*
X280641D02*
X285759D01*
X280641Y380900D02*
Y383727D01*
X320200Y392159D02*
X323027D01*
Y387041D02*
Y392159D01*
X320200Y387041D02*
X323027D01*
X311373Y392159D02*
X314200D01*
X311373Y387041D02*
Y392159D01*
Y387041D02*
X314200D01*
X297759Y372173D02*
Y375000D01*
X292641Y372173D02*
X297759D01*
X292641D02*
Y375000D01*
X297759Y381000D02*
Y383827D01*
X292641D02*
X297759D01*
X292641Y381000D02*
Y383827D01*
X303859Y372173D02*
Y375000D01*
X298741Y372173D02*
X303859D01*
X298741D02*
Y375000D01*
X303859Y381000D02*
Y383827D01*
X298741D02*
X303859D01*
X298741Y381000D02*
Y383827D01*
X311273Y399041D02*
X314100D01*
X311273D02*
Y404159D01*
X314100D01*
X320100Y399041D02*
X322927D01*
Y404159D01*
X320100D02*
X322927D01*
X311273Y393041D02*
X314100D01*
X311273D02*
Y398159D01*
X314100D01*
X320100Y393041D02*
X322927D01*
Y398159D01*
X320100D02*
X322927D01*
X292559Y320173D02*
Y323000D01*
X287441Y320173D02*
X292559D01*
X287441D02*
Y323000D01*
X292559Y329000D02*
Y331827D01*
X287441D02*
X292559D01*
X287441Y329000D02*
Y331827D01*
X299441Y329000D02*
Y331827D01*
X304559D01*
Y329000D02*
Y331827D01*
X299441Y320173D02*
Y323000D01*
Y320173D02*
X304559D01*
Y323000D01*
X310759Y320173D02*
Y323000D01*
X305641Y320173D02*
X310759D01*
X305641D02*
Y323000D01*
X310759Y329000D02*
Y331827D01*
X305641D02*
X310759D01*
X305641Y329000D02*
Y331827D01*
D64*
X229887Y427652D02*
Y429818D01*
X232742D01*
X229986Y356983D02*
Y359936D01*
Y356983D02*
X232840D01*
X278312Y356983D02*
Y359936D01*
X275458Y356983D02*
X278312D01*
X278312Y427652D02*
Y429818D01*
X275458D02*
X278312D01*
D65*
X279986Y430605D02*
G03*
X279986Y430605I-394J0D01*
G01*
D66*
X282865Y365165D02*
X285935D01*
X282865D02*
Y368235D01*
X285935D01*
Y365165D02*
Y368235D01*
D67*
X298667Y394799D02*
X299334D01*
X299000D01*
Y393133D01*
X299334Y392800D01*
X299667D01*
X300000Y393133D01*
X298001Y392800D02*
X297334D01*
X297667D01*
Y394799D01*
X298001Y394466D01*
X304999Y305733D02*
Y305066D01*
Y305400D01*
X303333D01*
X303000Y305066D01*
Y304733D01*
X303333Y304400D01*
X304999Y307732D02*
X304666Y307066D01*
X304000Y306399D01*
X303333D01*
X303000Y306733D01*
Y307399D01*
X303333Y307732D01*
X303666D01*
X304000Y307399D01*
Y306399D01*
X310800Y350300D02*
X312799D01*
Y351300D01*
X312466Y351633D01*
X311800D01*
X311466Y351300D01*
Y350300D01*
Y350966D02*
X310800Y351633D01*
Y353299D02*
X312799D01*
X311800Y352299D01*
Y353632D01*
X322467Y342766D02*
X322800Y343099D01*
X323467D01*
X323800Y342766D01*
Y341433D01*
X323467Y341100D01*
X322800D01*
X322467Y341433D01*
X320468Y343099D02*
X321134Y342766D01*
X321801Y342100D01*
Y341433D01*
X321467Y341100D01*
X320801D01*
X320468Y341433D01*
Y341766D01*
X320801Y342100D01*
X321801D01*
X325166Y401233D02*
X325499Y400900D01*
Y400233D01*
X325166Y399900D01*
X323833D01*
X323500Y400233D01*
Y400900D01*
X323833Y401233D01*
X325166Y401899D02*
X325499Y402233D01*
Y402899D01*
X325166Y403232D01*
X324833D01*
X324500Y402899D01*
X324166Y403232D01*
X323833D01*
X323500Y402899D01*
Y402233D01*
X323833Y401899D01*
X324166D01*
X324500Y402233D01*
X324833Y401899D01*
X325166D01*
X324500Y402233D02*
Y402899D01*
X325166Y395333D02*
X325499Y395000D01*
Y394333D01*
X325166Y394000D01*
X323833D01*
X323500Y394333D01*
Y395000D01*
X323833Y395333D01*
Y395999D02*
X323500Y396333D01*
Y396999D01*
X323833Y397332D01*
X325166D01*
X325499Y396999D01*
Y396333D01*
X325166Y395999D01*
X324833D01*
X324500Y396333D01*
Y397332D01*
X296367Y371266D02*
X296700Y371599D01*
X297367D01*
X297700Y371266D01*
Y369933D01*
X297367Y369600D01*
X296700D01*
X296367Y369933D01*
X295701Y369600D02*
X295034D01*
X295367D01*
Y371599D01*
X295701Y371266D01*
X294035D02*
X293701Y371599D01*
X293035D01*
X292702Y371266D01*
Y369933D01*
X293035Y369600D01*
X293701D01*
X294035Y369933D01*
Y371266D01*
X302167D02*
X302500Y371599D01*
X303167D01*
X303500Y371266D01*
Y369933D01*
X303167Y369600D01*
X302500D01*
X302167Y369933D01*
X301501Y369600D02*
X300834D01*
X301167D01*
Y371599D01*
X301501Y371266D01*
X299834Y369600D02*
X299168D01*
X299501D01*
Y371599D01*
X299834Y371266D01*
X284067Y371066D02*
X284400Y371399D01*
X285067D01*
X285400Y371066D01*
Y369733D01*
X285067Y369400D01*
X284400D01*
X284067Y369733D01*
X283401Y369400D02*
X282734D01*
X283067D01*
Y371399D01*
X283401Y371066D01*
X281734Y371399D02*
X280402D01*
Y371066D01*
X281734Y369733D01*
Y369400D01*
X291267Y319266D02*
X291600Y319599D01*
X292267D01*
X292600Y319266D01*
Y317933D01*
X292267Y317600D01*
X291600D01*
X291267Y317933D01*
X289268Y317600D02*
X290601D01*
X289268Y318933D01*
Y319266D01*
X289601Y319599D01*
X290267D01*
X290601Y319266D01*
X287268Y317600D02*
X288601D01*
X287268Y318933D01*
Y319266D01*
X287602Y319599D01*
X288268D01*
X288601Y319266D01*
X297267D02*
X297600Y319599D01*
X298267D01*
X298600Y319266D01*
Y317933D01*
X298267Y317600D01*
X297600D01*
X297267Y317933D01*
X295268Y317600D02*
X296601D01*
X295268Y318933D01*
Y319266D01*
X295601Y319599D01*
X296267D01*
X296601Y319266D01*
X293268Y319599D02*
X294601D01*
Y318600D01*
X293935Y318933D01*
X293602D01*
X293268Y318600D01*
Y317933D01*
X293602Y317600D01*
X294268D01*
X294601Y317933D01*
X310500Y357200D02*
X312499D01*
Y358200D01*
X312166Y358533D01*
X311500D01*
X311166Y358200D01*
Y357200D01*
Y357866D02*
X310500Y358533D01*
Y359199D02*
Y359866D01*
Y359533D01*
X312499D01*
X312166Y359199D01*
X322600Y367900D02*
X324599D01*
Y368900D01*
X324266Y369233D01*
X323600D01*
X323266Y368900D01*
Y367900D01*
Y368566D02*
X322600Y369233D01*
Y371232D02*
Y369899D01*
X323933Y371232D01*
X324266D01*
X324599Y370899D01*
Y370233D01*
X324266Y369899D01*
X323500Y387700D02*
X325499D01*
Y388700D01*
X325166Y389033D01*
X324500D01*
X324166Y388700D01*
Y387700D01*
Y388366D02*
X323500Y389033D01*
X325166Y389699D02*
X325499Y390033D01*
Y390699D01*
X325166Y391032D01*
X324833D01*
X324500Y390699D01*
Y390366D01*
Y390699D01*
X324166Y391032D01*
X323833D01*
X323500Y390699D01*
Y390033D01*
X323833Y389699D01*
X291000Y369400D02*
Y371399D01*
X290000D01*
X289667Y371066D01*
Y370400D01*
X290000Y370066D01*
X291000D01*
X290334D02*
X289667Y369400D01*
X289001Y371399D02*
X287668D01*
Y371066D01*
X289001Y369733D01*
Y369400D01*
X310900Y317500D02*
Y319499D01*
X309900D01*
X309567Y319166D01*
Y318500D01*
X309900Y318166D01*
X310900D01*
X310234D02*
X309567Y317500D01*
X308901D02*
X308234D01*
X308567D01*
Y319499D01*
X308901Y319166D01*
X307235Y319499D02*
X305902D01*
Y319166D01*
X307235Y317833D01*
Y317500D01*
X304000Y317600D02*
Y319599D01*
X303000D01*
X302667Y319266D01*
Y318600D01*
X303000Y318266D01*
X304000D01*
X303334D02*
X302667Y317600D01*
X302001D02*
X301334D01*
X301667D01*
Y319599D01*
X302001Y319266D01*
X300335D02*
X300001Y319599D01*
X299335D01*
X299002Y319266D01*
Y318933D01*
X299335Y318600D01*
X299002Y318266D01*
Y317933D01*
X299335Y317600D01*
X300001D01*
X300335Y317933D01*
Y318266D01*
X300001Y318600D01*
X300335Y318933D01*
Y319266D01*
X300001Y318600D02*
X299335D01*
X297467Y348399D02*
X298134D01*
X297800D01*
Y346733D01*
X298134Y346400D01*
X298467D01*
X298800Y346733D01*
X296801Y348066D02*
X296467Y348399D01*
X295801D01*
X295468Y348066D01*
Y347733D01*
X295801Y347400D01*
X296134D01*
X295801D01*
X295468Y347066D01*
Y346733D01*
X295801Y346400D01*
X296467D01*
X296801Y346733D01*
X273600Y426299D02*
Y424633D01*
X273267Y424300D01*
X272600D01*
X272267Y424633D01*
Y426299D01*
X270268Y424300D02*
X271601D01*
X270268Y425633D01*
Y425966D01*
X270601Y426299D01*
X271267D01*
X271601Y425966D01*
X286100Y364099D02*
Y362433D01*
X285767Y362100D01*
X285100D01*
X284767Y362433D01*
Y364099D01*
X284101Y363766D02*
X283767Y364099D01*
X283101D01*
X282768Y363766D01*
Y363433D01*
X283101Y363100D01*
X283434D01*
X283101D01*
X282768Y362766D01*
Y362433D01*
X283101Y362100D01*
X283767D01*
X284101Y362433D01*
X272300Y348199D02*
Y346533D01*
X271967Y346200D01*
X271300D01*
X270967Y346533D01*
Y348199D01*
X270301Y347866D02*
X269967Y348199D01*
X269301D01*
X268968Y347866D01*
Y347533D01*
X269301Y347200D01*
X268968Y346866D01*
Y346533D01*
X269301Y346200D01*
X269967D01*
X270301Y346533D01*
Y346866D01*
X269967Y347200D01*
X270301Y347533D01*
Y347866D01*
X269967Y347200D02*
X269301D01*
X295400Y358199D02*
Y357866D01*
X294734Y357200D01*
X294067Y357866D01*
Y358199D01*
X294734Y357200D02*
Y356200D01*
X292068D02*
X293401D01*
X292068Y357533D01*
Y357866D01*
X292401Y358199D01*
X293067D01*
X293401Y357866D01*
X307600Y391099D02*
Y390766D01*
X306934Y390100D01*
X306267Y390766D01*
Y391099D01*
X306934Y390100D02*
Y389100D01*
X305601D02*
X304934D01*
X305267D01*
Y391099D01*
X305601Y390766D01*
X290867Y313199D02*
X291534D01*
X291200D01*
Y311533D01*
X291534Y311200D01*
X291867D01*
X292200Y311533D01*
X290201Y313199D02*
X288868D01*
Y312866D01*
X290201Y311533D01*
Y311200D01*
M02*
